<svg width="120" height="120" viewBox="0 0 120 120" fill="none" xmlns="http://www.w3.org/2000/svg">
<g filter="url(#filter0_d)">
<mask id="path-1-outside-1" maskUnits="userSpaceOnUse" x="13.6912" y="13" width="93" height="94" fill="black">
<rect fill="white" x="13.6912" y="13" width="93" height="94"/>
<path fill-rule="evenodd" clip-rule="evenodd" d="M70.6093 36.0546H81.4746C83.677 32.9809 85.1243 29.703 85.538 26.7636C81.3333 27.3527 76.4418 30.0513 72.4433 34.0526C71.7968 34.6989 71.1843 35.3684 70.6093 36.0546ZM84.3716 36.0546C86.5789 32.5996 87.8839 28.9846 88.0333 25.7104C88.0493 25.6378 88.0587 25.5627 88.0608 25.4858C88.0777 24.8557 88.051 24.2481 87.9814 23.6657C87.9833 23.6367 87.9844 23.6075 87.9844 23.5778C87.9844 23.4299 87.9583 23.2875 87.9086 23.157C87.5951 21.2803 86.8163 19.688 85.6065 18.4782C83.9852 16.8584 81.6934 16.0016 78.9779 16.0016C74.8527 16.0016 70.1403 17.9026 65.8306 21.2163C65.673 21.0246 65.5052 20.8395 65.3274 20.6617C63.9052 19.2394 62.0131 18.4559 60.0016 18.4559C57.6566 18.4559 55.5586 19.5333 54.1765 21.2189C49.8652 17.9026 45.1506 16 41.0236 16C38.3098 16 36.0179 16.8553 34.3966 18.4766C32.7084 20.1632 31.8596 22.5872 31.9408 25.4858C31.9429 25.5627 31.9523 25.6378 31.9682 25.7104C32.1183 28.9849 33.4221 32.5995 35.6276 36.0546H17.8857C17.2263 36.0546 16.6912 36.5897 16.6912 37.2491V54.7124C16.6912 55.3718 17.2263 55.9069 17.8857 55.9069H24.8169V102.806C24.8169 103.465 25.352 104 26.0114 104H53.4972H66.5028H93.9886C94.648 104 95.1831 103.465 95.1831 102.806V55.9069H102.114C102.774 55.9069 103.309 55.3718 103.31 54.7124V37.2491C103.31 36.5897 102.775 36.0546 102.116 36.0546H84.3716ZM67.5333 36.0546H67.56C68.5077 34.7798 69.5773 33.5403 70.7551 32.3628C75.2995 27.814 80.7699 24.882 85.6284 24.3434C85.6206 24.2443 85.6112 24.1457 85.6002 24.0476C85.5954 24.0046 85.5938 23.9616 85.5938 23.9186C85.5938 23.8971 85.5944 23.8756 85.5955 23.8543C85.587 23.8186 85.58 23.7821 85.5747 23.745C85.5412 23.5125 85.4998 23.2832 85.4457 23.0602C85.4011 22.8707 85.3501 22.6843 85.2896 22.498C85.2896 22.498 85.289 22.4974 85.2889 22.4965C85.2889 22.496 85.289 22.4954 85.2896 22.4948C85.2785 22.46 85.2691 22.4251 85.2613 22.3901C85.2293 22.3343 85.2014 22.2752 85.1781 22.2129C85.0698 21.9246 84.9424 21.6459 84.7975 21.3784C84.7677 21.3237 84.7428 21.2678 84.7224 21.2112C84.6815 21.165 84.6438 21.115 84.6095 21.0614C84.4009 20.7317 84.1811 20.4514 83.9406 20.2014C83.9173 20.1772 83.8952 20.1524 83.8743 20.1268C83.8623 20.114 83.8506 20.1009 83.8391 20.0875C83.6312 19.8888 83.4068 19.7069 83.1669 19.5421C83.1098 19.5171 83.0538 19.4874 82.9994 19.4529L82.7461 19.3016L82.7429 19.2998L82.739 19.2977C82.7372 19.2967 82.7353 19.2958 82.7334 19.2952L82.6808 19.2649V19.2633C82.6441 19.2395 82.6089 19.2139 82.5753 19.1866C82.4017 19.0959 82.2217 19.0127 82.0356 18.9372C81.9689 18.9243 81.9018 18.9051 81.8352 18.8795C81.8272 18.8763 81.7014 18.8254 81.6934 18.8206C81.6397 18.8032 81.5877 18.7823 81.5375 18.758C81.1848 18.6465 80.8133 18.5599 80.4245 18.4989C80.3906 18.4973 80.3564 18.4942 80.3221 18.4893L80.1772 18.475C80.1692 18.475 80.0227 18.4606 80.0148 18.459C79.9567 18.4527 79.9 18.4423 79.845 18.4281C79.5945 18.4058 79.3377 18.3934 79.075 18.391C79.0128 18.4016 78.949 18.4074 78.884 18.4081H78.8792H78.8728L78.6546 18.4097C78.6419 18.4113 78.626 18.4113 78.6132 18.4113C78.5644 18.4113 78.5159 18.4083 78.4678 18.4024C74.9453 18.5637 70.8082 20.364 67.0444 23.3067C67.3652 24.1515 67.5324 25.0565 67.5316 25.9875L67.5333 36.0546ZM49.3917 36.0546H38.5248C36.3243 32.9809 34.8786 29.7028 34.4651 26.7631L34.4731 26.7642C38.0534 27.267 42.1329 29.3015 45.7354 32.3693C45.8363 32.4552 45.9368 32.5419 46.0369 32.6294C46.5556 33.0828 47.0637 33.5578 47.5583 34.0526C48.2045 34.6989 48.8168 35.3684 49.3917 36.0546Z"/>
</mask>
<path fill-rule="evenodd" clip-rule="evenodd" d="M70.6093 36.0546H81.4746C83.677 32.9809 85.1243 29.703 85.538 26.7636C81.3333 27.3527 76.4418 30.0513 72.4433 34.0526C71.7968 34.6989 71.1843 35.3684 70.6093 36.0546ZM84.3716 36.0546C86.5789 32.5996 87.8839 28.9846 88.0333 25.7104C88.0493 25.6378 88.0587 25.5627 88.0608 25.4858C88.0777 24.8557 88.051 24.2481 87.9814 23.6657C87.9833 23.6367 87.9844 23.6075 87.9844 23.5778C87.9844 23.4299 87.9583 23.2875 87.9086 23.157C87.5951 21.2803 86.8163 19.688 85.6065 18.4782C83.9852 16.8584 81.6934 16.0016 78.9779 16.0016C74.8527 16.0016 70.1403 17.9026 65.8306 21.2163C65.673 21.0246 65.5052 20.8395 65.3274 20.6617C63.9052 19.2394 62.0131 18.4559 60.0016 18.4559C57.6566 18.4559 55.5586 19.5333 54.1765 21.2189C49.8652 17.9026 45.1506 16 41.0236 16C38.3098 16 36.0179 16.8553 34.3966 18.4766C32.7084 20.1632 31.8596 22.5872 31.9408 25.4858C31.9429 25.5627 31.9523 25.6378 31.9682 25.7104C32.1183 28.9849 33.4221 32.5995 35.6276 36.0546H17.8857C17.2263 36.0546 16.6912 36.5897 16.6912 37.2491V54.7124C16.6912 55.3718 17.2263 55.9069 17.8857 55.9069H24.8169V102.806C24.8169 103.465 25.352 104 26.0114 104H53.4972H66.5028H93.9886C94.648 104 95.1831 103.465 95.1831 102.806V55.9069H102.114C102.774 55.9069 103.309 55.3718 103.31 54.7124V37.2491C103.31 36.5897 102.775 36.0546 102.116 36.0546H84.3716ZM67.5333 36.0546H67.56C68.5077 34.7798 69.5773 33.5403 70.7551 32.3628C75.2995 27.814 80.7699 24.882 85.6284 24.3434C85.6206 24.2443 85.6112 24.1457 85.6002 24.0476C85.5954 24.0046 85.5938 23.9616 85.5938 23.9186C85.5938 23.8971 85.5944 23.8756 85.5955 23.8543C85.587 23.8186 85.58 23.7821 85.5747 23.745C85.5412 23.5125 85.4998 23.2832 85.4457 23.0602C85.4011 22.8707 85.3501 22.6843 85.2896 22.498C85.2896 22.498 85.289 22.4974 85.2889 22.4965C85.2889 22.496 85.289 22.4954 85.2896 22.4948C85.2785 22.46 85.2691 22.4251 85.2613 22.3901C85.2293 22.3343 85.2014 22.2752 85.1781 22.2129C85.0698 21.9246 84.9424 21.6459 84.7975 21.3784C84.7677 21.3237 84.7428 21.2678 84.7224 21.2112C84.6815 21.165 84.6438 21.115 84.6095 21.0614C84.4009 20.7317 84.1811 20.4514 83.9406 20.2014C83.9173 20.1772 83.8952 20.1524 83.8743 20.1268C83.8623 20.114 83.8506 20.1009 83.8391 20.0875C83.6312 19.8888 83.4068 19.7069 83.1669 19.5421C83.1098 19.5171 83.0538 19.4874 82.9994 19.4529L82.7461 19.3016L82.7429 19.2998L82.739 19.2977C82.7372 19.2967 82.7353 19.2958 82.7334 19.2952L82.6808 19.2649V19.2633C82.6441 19.2395 82.6089 19.2139 82.5753 19.1866C82.4017 19.0959 82.2217 19.0127 82.0356 18.9372C81.9689 18.9243 81.9018 18.9051 81.8352 18.8795C81.8272 18.8763 81.7014 18.8254 81.6934 18.8206C81.6397 18.8032 81.5877 18.7823 81.5375 18.758C81.1848 18.6465 80.8133 18.5599 80.4245 18.4989C80.3906 18.4973 80.3564 18.4942 80.3221 18.4893L80.1772 18.475C80.1692 18.475 80.0227 18.4606 80.0148 18.459C79.9567 18.4527 79.9 18.4423 79.845 18.4281C79.5945 18.4058 79.3377 18.3934 79.075 18.391C79.0128 18.4016 78.949 18.4074 78.884 18.4081H78.8792H78.8728L78.6546 18.4097C78.6419 18.4113 78.626 18.4113 78.6132 18.4113C78.5644 18.4113 78.5159 18.4083 78.4678 18.4024C74.9453 18.5637 70.8082 20.364 67.0444 23.3067C67.3652 24.1515 67.5324 25.0565 67.5316 25.9875L67.5333 36.0546ZM49.3917 36.0546H38.5248C36.3243 32.9809 34.8786 29.7028 34.4651 26.7631L34.4731 26.7642C38.0534 27.267 42.1329 29.3015 45.7354 32.3693C45.8363 32.4552 45.9368 32.5419 46.0369 32.6294C46.5556 33.0828 47.0637 33.5578 47.5583 34.0526C48.2045 34.6989 48.8168 35.3684 49.3917 36.0546Z" fill="black"/>
<path d="M81.4746 36.0546V39.0546H83.0156L83.9132 37.802L81.4746 36.0546ZM70.6093 36.0546L68.31 34.1276L64.1806 39.0546H70.6093V36.0546ZM85.538 26.7636L88.5087 27.1817L89.0633 23.2404L85.1217 23.7926L85.538 26.7636ZM72.4433 34.0526L74.5643 36.1743L74.5654 36.1732L72.4433 34.0526ZM88.0333 25.7104L85.1033 25.0661L85.0482 25.317L85.0364 25.5736L88.0333 25.7104ZM84.3716 36.0546L81.8435 34.4394L78.895 39.0546H84.3716V36.0546ZM88.0608 25.4858L91.0596 25.5688L91.0597 25.5665L88.0608 25.4858ZM87.9814 23.6657L84.9884 23.4599L84.9691 23.7414L85.0025 24.0217L87.9814 23.6657ZM87.9086 23.157L84.9496 23.6512L84.9987 23.945L85.1045 24.2233L87.9086 23.157ZM85.6065 18.4782L87.7279 16.3568L87.7268 16.3558L85.6065 18.4782ZM65.8306 21.2163L63.5127 23.1209L65.3566 25.365L67.6592 23.5946L65.8306 21.2163ZM65.3274 20.6617L63.2061 22.783L63.2061 22.783L65.3274 20.6617ZM54.1765 21.2189L52.3474 23.5968L54.6524 25.3699L56.4964 23.1211L54.1765 21.2189ZM34.3966 18.4766L36.517 20.5989L36.518 20.5979L34.3966 18.4766ZM31.9408 25.4858L34.9396 25.4029L34.9396 25.4018L31.9408 25.4858ZM31.9682 25.7104L34.9651 25.5731L34.9534 25.3168L34.8983 25.0662L31.9682 25.7104ZM35.6276 36.0546V39.0546H41.1018L38.1563 34.4404L35.6276 36.0546ZM24.8169 55.9069H27.8169V52.9069H24.8169V55.9069ZM95.1831 55.9069V52.9069H92.1831V55.9069H95.1831ZM103.31 54.7124L106.31 54.7197V54.7124H103.31ZM67.56 36.0546V39.0546H69.0679L69.9676 37.8445L67.56 36.0546ZM67.5333 36.0546L64.5333 36.0551L64.5338 39.0546H67.5333V36.0546ZM70.7551 32.3628L72.8761 34.4845L72.8775 34.4831L70.7551 32.3628ZM85.6284 24.3434L85.959 27.3251L88.8486 27.0047L88.6191 24.1065L85.6284 24.3434ZM85.6002 24.0476L82.6185 24.3788L82.6188 24.3818L85.6002 24.0476ZM85.5955 23.8543L88.5912 24.015L88.6145 23.5811L88.5137 23.1584L85.5955 23.8543ZM85.5747 23.745L82.6052 24.1722L82.6053 24.1726L85.5747 23.745ZM85.4457 23.0602L82.5255 23.7474L82.5279 23.7578L82.5304 23.7681L85.4457 23.0602ZM85.2896 22.498L88.1429 21.5713L87.92 20.8849L87.4093 20.375L85.2896 22.498ZM85.2889 22.4965L82.3007 22.7619L82.302 22.7766L82.3034 22.7912L85.2889 22.4965ZM85.2896 22.4948L87.4084 24.6186L88.7038 23.3264L88.1477 21.5832L85.2896 22.4948ZM85.2613 22.3901L88.1894 21.7372L88.0904 21.2932L87.8641 20.8984L85.2613 22.3901ZM85.1781 22.2129L87.9879 21.1616L87.9865 21.1578L85.1781 22.2129ZM84.7975 21.3784L87.4354 19.9495L87.4329 19.945L84.7975 21.3784ZM84.7224 21.2112L87.545 20.1948L87.3506 19.6549L86.9706 19.2249L84.7224 21.2112ZM84.6095 21.0614L82.0745 22.6657L82.0809 22.6757L84.6095 21.0614ZM83.9406 20.2014L86.1029 18.1218L86.098 18.1167L83.9406 20.2014ZM83.8743 20.1268L86.1963 18.2273L86.1334 18.1504L86.0656 18.0779L83.8743 20.1268ZM83.8391 20.0875L86.1199 18.1386L86.0213 18.0233L85.9116 17.9184L83.8391 20.0875ZM83.1669 19.5421L84.8657 17.0694L84.6304 16.9078L84.3688 16.7934L83.1669 19.5421ZM82.9994 19.4529L84.6075 16.9203L84.5731 16.8984L84.5381 16.8775L82.9994 19.4529ZM82.7461 19.3016L84.2849 16.7262L84.2343 16.696L84.1826 16.6678L82.7461 19.3016ZM82.7429 19.2998L81.2951 21.9273L81.3065 21.9335L82.7429 19.2998ZM82.739 19.2977L84.1868 16.6701L84.1564 16.6534L84.1257 16.6373L82.739 19.2977ZM82.7334 19.2952L81.2364 21.895L81.4991 22.0462L81.7867 22.1419L82.7334 19.2952ZM82.6808 19.2649H79.6808V20.9993L81.1838 21.8647L82.6808 19.2649ZM82.6808 19.2633H85.6808V17.6333L84.3132 16.7463L82.6808 19.2633ZM82.5753 19.1866L84.4653 16.8568L84.2315 16.6672L83.9648 16.5278L82.5753 19.1866ZM82.0356 18.9372L83.1635 16.1573L82.8932 16.0476L82.6068 15.9921L82.0356 18.9372ZM81.8352 18.8795L80.7212 21.665L80.7407 21.6728L80.7604 21.6804L81.8352 18.8795ZM81.6934 18.8206L83.2366 16.2479L82.9423 16.0714L82.6157 15.9659L81.6934 18.8206ZM81.5375 18.758L82.8427 16.0568L82.6481 15.9628L82.4419 15.8976L81.5375 18.758ZM80.4245 18.4989L80.8895 15.5352L80.7311 15.5103L80.5709 15.5025L80.4245 18.4989ZM80.3221 18.4893L80.7464 15.5195L80.6821 15.5103L80.6174 15.5039L80.3221 18.4893ZM80.1772 18.475L80.4725 15.4895L80.3252 15.475H80.1772V18.475ZM80.0148 18.459L80.603 15.5173L80.4729 15.4913L80.3409 15.4768L80.0148 18.459ZM79.845 18.4281L80.5937 15.523L80.3556 15.4617L80.1108 15.4399L79.845 18.4281ZM79.075 18.391L79.1026 15.3911L78.8343 15.3887L78.5698 15.4338L79.075 18.391ZM78.884 18.4081V21.4081H78.8986L78.9132 21.4079L78.884 18.4081ZM78.8728 18.4081V15.4081H78.8619L78.851 15.4082L78.8728 18.4081ZM78.6546 18.4097L78.6328 15.4098L78.457 15.411L78.2825 15.4328L78.6546 18.4097ZM78.4678 18.4024L78.832 15.4246L78.5821 15.394L78.3306 15.4055L78.4678 18.4024ZM67.0444 23.3067L65.1966 20.9432L63.4548 22.305L64.2398 24.3719L67.0444 23.3067ZM67.5316 25.9875L64.5316 25.9851L64.5316 25.988L67.5316 25.9875ZM38.5248 36.0546L36.0855 37.8009L36.983 39.0546H38.5248V36.0546ZM49.3917 36.0546V39.0546H55.8192L51.6912 34.1279L49.3917 36.0546ZM34.4651 26.7631L34.8816 23.7921L30.9401 23.2396L31.4944 27.1809L34.4651 26.7631ZM34.4731 26.7642L34.8902 23.7934L34.8895 23.7933L34.4731 26.7642ZM45.7354 32.3693L47.6805 30.0852L47.6805 30.0852L45.7354 32.3693ZM46.0369 32.6294L48.0114 30.3707L48.0114 30.3707L46.0369 32.6294ZM47.5583 34.0526L45.4362 36.1732L45.4369 36.174L47.5583 34.0526ZM81.4746 33.0546H70.6093V39.0546H81.4746V33.0546ZM82.5672 26.3456C82.2385 28.6819 81.0393 31.5115 79.036 34.3072L83.9132 37.802C86.3148 34.4503 88.0102 30.7241 88.5087 27.1817L82.5672 26.3456ZM74.5654 36.1732C78.244 32.4919 82.5687 30.2089 85.9542 29.7346L85.1217 23.7926C80.0979 24.4965 74.6395 27.6107 70.3212 31.9321L74.5654 36.1732ZM72.9085 37.9816C73.4273 37.3627 73.9803 36.7581 74.5643 36.1743L70.3224 31.9309C69.6134 32.6397 68.9414 33.3742 68.31 34.1276L72.9085 37.9816ZM85.0364 25.5736C84.9171 28.188 83.8502 31.2985 81.8435 34.4394L86.8997 37.6697C89.3077 33.9007 90.8506 29.7812 91.0302 25.8472L85.0364 25.5736ZM85.0619 25.4028C85.0651 25.29 85.0789 25.1772 85.1033 25.0661L90.9633 26.3548C91.0197 26.0985 91.0523 25.8354 91.0596 25.5688L85.0619 25.4028ZM85.0025 24.0217C85.0538 24.4502 85.0752 24.9116 85.0619 25.4051L91.0597 25.5665C91.0803 24.7999 91.0481 24.046 90.9602 23.3098L85.0025 24.0217ZM84.9844 23.5778C84.9844 23.5389 84.9857 23.4996 84.9884 23.4599L90.9743 23.8715C90.981 23.7739 90.9844 23.676 90.9844 23.5778H84.9844ZM85.1045 24.2233C85.0206 24.0026 84.9844 23.7827 84.9844 23.5778H90.9844C90.9844 23.0771 90.8959 22.5724 90.7127 22.0906L85.1045 24.2233ZM83.4852 20.5995C84.199 21.3132 84.7257 22.3107 84.9496 23.6512L90.8676 22.6627C90.4646 20.2498 89.4337 18.0627 87.7279 16.3568L83.4852 20.5995ZM78.9779 19.0016C81.0554 19.0016 82.5296 19.6449 83.4863 20.6005L87.7268 16.3558C85.4408 14.072 82.3314 13.0016 78.9779 13.0016V19.0016ZM67.6592 23.5946C71.6297 20.5417 75.7148 19.0016 78.9779 19.0016V13.0016C73.9906 13.0016 68.651 15.2634 64.0019 18.838L67.6592 23.5946ZM63.2061 22.783C63.3151 22.892 63.4173 23.0048 63.5127 23.1209L68.1484 19.3117C67.9288 19.0444 67.6953 18.787 67.4487 18.5403L63.2061 22.783ZM60.0016 21.4559C61.2176 21.4559 62.3466 21.9235 63.2061 22.783L67.4487 18.5404C65.4637 16.5554 62.8086 15.4559 60.0016 15.4559V21.4559ZM56.4964 23.1211C57.3351 22.0982 58.5963 21.4559 60.0016 21.4559V15.4559C56.717 15.4559 53.782 16.9685 51.8566 19.3168L56.4964 23.1211ZM41.0236 19C44.2882 19 48.3754 20.5414 52.3474 23.5968L56.0056 18.841C51.3551 15.2637 46.013 13 41.0236 13V19ZM36.518 20.5979C37.4735 19.6423 38.9467 19 41.0236 19V13C37.6729 13 34.5623 14.0682 32.2753 16.3552L36.518 20.5979ZM34.9396 25.4018C34.8761 23.1366 35.5356 21.5793 36.517 20.5989L32.2763 16.3542C29.8813 18.747 28.843 22.0378 28.942 25.5698L34.9396 25.4018ZM34.8983 25.0662C34.9226 25.177 34.9365 25.2899 34.9396 25.4029L28.9419 25.5687C28.9493 25.8356 28.9819 26.0986 29.0382 26.3547L34.8983 25.0662ZM38.1563 34.4404C36.1513 31.2994 35.0849 28.1888 34.9651 25.5731L28.9714 25.8477C29.1516 29.781 30.6929 33.8997 33.0989 37.6688L38.1563 34.4404ZM17.8857 39.0546H35.6276V33.0546H17.8857V39.0546ZM19.6912 37.2491C19.6912 38.2466 18.8832 39.0546 17.8857 39.0546V33.0546C15.5695 33.0546 13.6912 34.9329 13.6912 37.2491H19.6912ZM19.6912 54.7124V37.2491H13.6912V54.7124H19.6912ZM17.8857 52.9069C18.8832 52.9069 19.6912 53.7149 19.6912 54.7124H13.6912C13.6912 57.0286 15.5695 58.9069 17.8857 58.9069V52.9069ZM24.8169 52.9069H17.8857V58.9069H24.8169V52.9069ZM27.8169 102.806V55.9069H21.8169V102.806H27.8169ZM26.0114 101C27.0089 101 27.8169 101.808 27.8169 102.806H21.8169C21.8169 105.122 23.6951 107 26.0114 107V101ZM53.4972 101H26.0114V107H53.4972V101ZM66.5028 101H53.4972V107H66.5028V101ZM93.9886 101H66.5028V107H93.9886V101ZM92.1831 102.806C92.1831 101.808 92.9911 101 93.9886 101V107C96.3049 107 98.1831 105.122 98.1831 102.806H92.1831ZM92.1831 55.9069V102.806H98.1831V55.9069H92.1831ZM102.114 52.9069H95.1831V58.9069H102.114V52.9069ZM100.31 54.7052C100.313 53.7148 101.115 52.9069 102.114 52.9069V58.9069C104.432 58.9069 106.305 57.0288 106.31 54.7197L100.31 54.7052ZM100.31 37.2491V54.7124H106.31V37.2491H100.31ZM102.116 39.0546C101.118 39.0546 100.31 38.2466 100.31 37.2491H106.31C106.31 34.9329 104.432 33.0546 102.116 33.0546V39.0546ZM84.3716 39.0546H102.116V33.0546H84.3716V39.0546ZM67.56 33.0546H67.5333V39.0546H67.56V33.0546ZM68.6342 30.2412C67.3545 31.5204 66.1889 32.8705 65.1524 34.2647L69.9676 37.8445C70.8265 36.6891 71.8 35.5603 72.8761 34.4845L68.6342 30.2412ZM85.2978 21.3616C79.5816 21.9954 73.5134 25.3572 68.6328 30.2425L72.8775 34.4831C77.0856 30.2709 81.9582 27.7687 85.959 27.3251L85.2978 21.3616ZM82.6188 24.3818C82.6262 24.4472 82.6325 24.5134 82.6378 24.5803L88.6191 24.1065C88.6087 23.9752 88.5962 23.8442 88.5815 23.7135L82.6188 24.3818ZM82.5938 23.9186C82.5938 24.0331 82.5978 24.1928 82.6185 24.3788L88.5818 23.7165C88.5929 23.8165 88.5938 23.8901 88.5938 23.9186H82.5938ZM82.5998 23.6936C82.5959 23.7675 82.5938 23.8426 82.5938 23.9186H88.5938C88.5938 23.9516 88.5929 23.9837 88.5912 24.015L82.5998 23.6936ZM82.6053 24.1726C82.6237 24.3005 82.6478 24.4264 82.6774 24.5502L88.5137 23.1584C88.5262 23.2107 88.5363 23.2638 88.5441 23.3175L82.6053 24.1726ZM82.5304 23.7681C82.5565 23.8757 82.5816 24.0076 82.6052 24.1722L88.5441 23.3179C88.5009 23.0174 88.4431 22.6907 88.361 22.3523L82.5304 23.7681ZM82.4363 23.4246C82.468 23.5221 82.4973 23.6276 82.5255 23.7474L88.3659 22.373C88.3049 22.1137 88.2323 21.8465 88.1429 21.5713L82.4363 23.4246ZM82.3034 22.7912C82.3653 23.4179 82.6074 23.8699 82.7548 24.1026C82.8366 24.2318 82.917 24.337 82.9844 24.4179C83.0188 24.4592 83.0518 24.4966 83.0825 24.5299C83.0979 24.5467 83.1129 24.5626 83.1275 24.5777C83.1348 24.5853 83.1419 24.5927 83.149 24.5999C83.1526 24.6035 83.1561 24.607 83.1595 24.6105C83.1613 24.6123 83.163 24.614 83.1648 24.6158C83.1656 24.6166 83.1665 24.6175 83.1673 24.6184C83.1678 24.6188 83.1684 24.6194 83.1686 24.6197C83.1693 24.6203 83.1699 24.6209 85.2896 22.498C87.4093 20.375 87.4099 20.3757 87.4106 20.3763C87.4108 20.3765 87.4114 20.3772 87.4119 20.3776C87.4127 20.3785 87.4136 20.3793 87.4145 20.3802C87.4162 20.3819 87.4179 20.3837 87.4197 20.3854C87.4231 20.389 87.4267 20.3925 87.4302 20.3961C87.4373 20.4033 87.4444 20.4107 87.4517 20.4183C87.4662 20.4334 87.4813 20.4493 87.4967 20.466C87.5273 20.4993 87.5603 20.5366 87.5946 20.5779C87.6619 20.6586 87.7422 20.7636 87.8238 20.8925C87.9708 21.1247 88.2126 21.576 88.2744 22.2018L82.3034 22.7912ZM83.1708 20.371C82.5444 20.9959 82.2215 21.8701 82.3007 22.7619L88.2771 22.2311C88.3118 22.6216 88.2737 23.0684 88.1069 23.525C87.9405 23.9806 87.683 24.3447 87.4084 24.6186L83.1708 20.371ZM82.3332 23.043C82.3604 23.1649 82.3931 23.2861 82.4315 23.4064L88.1477 21.5832C88.1639 21.6339 88.1778 21.6853 88.1894 21.7372L82.3332 23.043ZM82.3684 23.2643C82.4487 23.479 82.5459 23.6854 82.6584 23.8818L87.8641 20.8984C87.9127 20.9832 87.9541 21.0713 87.9879 21.1616L82.3684 23.2643ZM82.1596 22.8072C82.2397 22.955 82.31 23.1089 82.3698 23.268L87.9865 21.1578C87.8296 20.7404 87.6451 20.3368 87.4354 19.9495L82.1596 22.8072ZM81.8998 22.2276C81.9717 22.4274 82.0592 22.6227 82.1621 22.8118L87.4329 19.945C87.4762 20.0247 87.5138 20.1082 87.545 20.1948L81.8998 22.2276ZM82.0809 22.6757C82.1991 22.8609 82.3307 23.0352 82.4741 23.1975L86.9706 19.2249C87.0324 19.2948 87.0884 19.3691 87.1382 19.4471L82.0809 22.6757ZM81.7784 22.281C81.8706 22.3768 81.9672 22.496 82.0745 22.6657L87.1446 19.4572C86.8347 18.9674 86.4917 18.5261 86.1029 18.1218L81.7784 22.281ZM81.5523 22.0264C81.6255 22.1158 81.7025 22.2025 81.7833 22.2861L86.098 18.1167C86.1321 18.152 86.1649 18.1889 86.1963 18.2273L81.5523 22.0264ZM81.5584 22.0364C81.599 22.0839 81.6405 22.1304 81.683 22.1757L86.0656 18.0779C86.0841 18.0976 86.1022 18.1179 86.1199 18.1386L81.5584 22.0364ZM81.4682 22.0148C81.578 22.0902 81.6771 22.171 81.7667 22.2566L85.9116 17.9184C85.5852 17.6066 85.2355 17.3235 84.8657 17.0694L81.4682 22.0148ZM81.3913 21.9854C81.5751 22.1022 81.7669 22.2042 81.9651 22.2908L84.3688 16.7934C84.4527 16.83 84.5324 16.8726 84.6075 16.9203L81.3913 21.9854ZM81.2074 21.8769L81.4607 22.0282L84.5381 16.8775L84.2849 16.7262L81.2074 21.8769ZM81.3065 21.9335L81.3097 21.9353L84.1826 16.6678L84.1793 16.666L81.3065 21.9335ZM81.2913 21.9252L81.2951 21.9273L84.1907 16.6722L84.1868 16.6701L81.2913 21.9252ZM81.7867 22.1419C81.5765 22.072 81.4209 21.9936 81.3524 21.958L84.1257 16.6373C84.0536 16.5998 83.8941 16.5197 83.6801 16.4485L81.7867 22.1419ZM81.1838 21.8647L81.2364 21.895L84.2304 16.6954L84.1779 16.6651L81.1838 21.8647ZM79.6808 19.2633V19.2649H85.6808V19.2633H79.6808ZM80.6853 21.5164C80.8006 21.6099 80.9217 21.6982 81.0485 21.7803L84.3132 16.7463C84.3665 16.7809 84.4172 16.8178 84.4653 16.8568L80.6853 21.5164ZM80.9077 21.7171C81.007 21.7574 81.0996 21.8004 81.1858 21.8454L83.9648 16.5278C83.7037 16.3914 83.4363 16.268 83.1635 16.1573L80.9077 21.7171ZM80.7604 21.6804C80.9874 21.7675 81.2228 21.8355 81.4643 21.8823L82.6068 15.9921C82.715 16.0131 82.8163 16.0427 82.9099 16.0786L80.7604 21.6804ZM80.1502 21.3932C80.2486 21.4523 80.3291 21.4925 80.3497 21.5028C80.383 21.5196 80.4101 21.5324 80.4253 21.5395C80.456 21.5539 80.481 21.5649 80.4927 21.57C80.518 21.5812 80.5403 21.5906 80.552 21.5956C80.5781 21.6066 80.6051 21.6177 80.6245 21.6257C80.6624 21.6412 80.7052 21.6586 80.7212 21.665L82.9491 16.094C82.9571 16.0972 82.9331 16.0875 82.904 16.0756C82.89 16.0698 82.8836 16.0671 82.8836 16.0671C82.8842 16.0674 82.8865 16.0683 82.8901 16.0699C82.8933 16.0713 82.9005 16.0744 82.9102 16.0787C82.9177 16.0819 82.9391 16.0914 82.9671 16.1045C82.981 16.111 83.0069 16.1232 83.0393 16.1395C83.0559 16.1478 83.0799 16.16 83.1086 16.1754C83.1349 16.1894 83.1807 16.2144 83.2366 16.2479L80.1502 21.3932ZM80.2322 21.4592C80.4039 21.5421 80.5838 21.6148 80.7711 21.6753L82.6157 15.9659C82.6957 15.9917 82.7714 16.0224 82.8427 16.0568L80.2322 21.4592ZM79.9594 21.4627C80.2083 21.5017 80.4324 21.555 80.633 21.6184L82.4419 15.8976C81.9372 15.738 81.4183 15.6182 80.8895 15.5352L79.9594 21.4627ZM79.8979 21.4592C80.0339 21.4786 80.1615 21.4897 80.2781 21.4954L80.5709 15.5025C80.6197 15.5049 80.6788 15.5098 80.7464 15.5195L79.8979 21.4592ZM79.882 21.4604L80.0269 21.4747L80.6174 15.5039L80.4725 15.4895L79.882 21.4604ZM79.4265 21.4008C79.5104 21.4176 79.5776 21.427 79.587 21.4284C79.6104 21.4318 79.6292 21.4342 79.6391 21.4355C79.6596 21.4381 79.6764 21.44 79.6845 21.441C79.7025 21.443 79.7192 21.4448 79.7301 21.4459C79.7539 21.4484 79.7803 21.451 79.8036 21.4533C79.8269 21.4556 79.8531 21.4581 79.8766 21.4603C79.8875 21.4613 79.9038 21.4627 79.9214 21.4642C79.9293 21.4648 79.9457 21.4662 79.9656 21.4676C79.9753 21.4682 79.9937 21.4695 80.0168 21.4707C80.0254 21.4712 80.0925 21.475 80.1772 21.475V15.475C80.2272 15.475 80.2666 15.4763 80.285 15.4769C80.3066 15.4777 80.3242 15.4786 80.3354 15.4792C80.3574 15.4803 80.3746 15.4815 80.3827 15.4821C80.3996 15.4832 80.4121 15.4843 80.4152 15.4845C80.4231 15.4852 80.4267 15.4855 80.4226 15.4852C80.4161 15.4846 80.4037 15.4834 80.3884 15.4819C80.3731 15.4804 80.3608 15.4791 80.3546 15.4785C80.3506 15.4781 80.3545 15.4785 80.3629 15.4794C80.3662 15.4798 80.3791 15.4813 80.3965 15.4835C80.4049 15.4845 80.4224 15.4868 80.4448 15.4901C80.4562 15.4917 80.474 15.4943 80.4958 15.4979C80.5144 15.5009 80.5536 15.5074 80.603 15.5173L79.4265 21.4008ZM79.0964 21.3332C79.2896 21.383 79.4874 21.4193 79.6886 21.4413L80.3409 15.4768C80.4259 15.4861 80.5104 15.5016 80.5937 15.523L79.0964 21.3332ZM79.0474 21.3909C79.2337 21.3926 79.411 21.4013 79.5793 21.4163L80.1108 15.4399C79.7781 15.4103 79.4418 15.3942 79.1026 15.3911L79.0474 21.3909ZM78.9132 21.4079C79.1386 21.4057 79.3615 21.3855 79.5803 21.3481L78.5698 15.4338C78.6641 15.4177 78.7595 15.4091 78.8548 15.4082L78.9132 21.4079ZM78.8792 21.4081H78.884V15.4081H78.8792V21.4081ZM78.8728 21.4081H78.8792V15.4081H78.8728V21.4081ZM78.6765 21.4096L78.8947 21.408L78.851 15.4082L78.6328 15.4098L78.6765 21.4096ZM78.6132 21.4113C78.6139 21.4113 78.662 21.4114 78.7173 21.4099C78.7677 21.4085 78.8832 21.4044 79.0268 21.3865L78.2825 15.4328C78.3531 15.424 78.4116 15.4194 78.4521 15.4168C78.4936 15.4141 78.5275 15.4129 78.5506 15.4122C78.5916 15.4111 78.6253 15.4113 78.6132 15.4113V21.4113ZM78.1037 21.3802C78.2719 21.4008 78.4421 21.4113 78.6132 21.4113V15.4113C78.6868 15.4113 78.7598 15.4158 78.832 15.4246L78.1037 21.3802ZM68.8921 25.6701C72.352 22.9651 75.9055 21.5229 78.6051 21.3993L78.3306 15.4055C73.9851 15.6045 69.2645 17.7629 65.1966 20.9432L68.8921 25.6701ZM70.5316 25.9898C70.5326 24.6966 70.3002 23.4296 69.8489 22.2414L64.2398 24.3719C64.4303 24.8734 64.5321 25.4165 64.5316 25.9851L70.5316 25.9898ZM70.5333 36.0541L70.5316 25.987L64.5316 25.988L64.5333 36.0551L70.5333 36.0541ZM38.5248 39.0546H49.3917V33.0546H38.5248V39.0546ZM31.4944 27.1809C31.9925 30.7229 33.6858 34.4491 36.0855 37.8009L40.9641 34.3083C38.9628 31.5128 37.7646 28.6827 37.4359 26.3453L31.4944 27.1809ZM34.8895 23.7933L34.8816 23.7921L34.0486 29.734L34.0566 29.7352L34.8895 23.7933ZM47.6805 30.0852C43.7782 26.7621 39.1868 24.3967 34.8902 23.7934L34.0559 29.7351C36.9201 30.1372 40.4877 31.8408 43.7904 34.6533L47.6805 30.0852ZM48.0114 30.3707C47.9015 30.2747 47.7912 30.1795 47.6805 30.0852L43.7904 34.6533C43.8814 34.7308 43.9721 34.809 44.0624 34.888L48.0114 30.3707ZM49.6803 31.9321C49.138 31.3893 48.5806 30.8684 48.0114 30.3707L44.0624 34.888C44.5307 35.2973 44.9895 35.7262 45.4362 36.1732L49.6803 31.9321ZM51.6912 34.1279C51.0601 33.3746 50.3883 32.6401 49.6796 31.9313L45.4369 36.174C46.0207 36.7577 46.5736 37.3623 47.0922 37.9813L51.6912 34.1279Z" fill="white" mask="url(#path-1-outside-1)"/>
</g>
<path d="M56.6379 24.9714C49.1684 17.505 39.5902 14.9743 35.2407 19.3223C33.7325 20.8305 33.0668 22.9869 33.1353 25.4539C37.7667 25.5814 43.532 28.335 48.4039 33.2085C53.2774 38.0804 56.0263 43.841 56.1569 48.4756C58.6255 48.5441 60.7756 47.8816 62.2886 46.3701C66.635 42.0206 64.1042 32.4425 56.6379 24.9714Z" fill="#69C172"/>
<path d="M33.9316 21.294C33.3726 22.5139 33.0923 23.9075 33.1353 25.4524C37.7667 25.5798 43.532 28.3334 48.4039 33.2069C53.2774 38.0788 56.0263 43.8394 56.1569 48.474C57.7002 48.5139 59.097 48.2351 60.3137 47.6745C62.4845 42.809 59.7324 34.7837 53.2774 28.3303C46.8225 21.8769 38.7987 19.1232 33.9316 21.294Z" fill="#449D4D"/>
<path d="M36.3556 18.4447C36.4798 18.3667 36.612 18.2918 36.7426 18.2202C36.612 18.2918 36.4798 18.3667 36.3556 18.4447Z" fill="#F26606"/>
<path d="M33.2117 23.9171C33.1671 24.3311 33.1448 24.7532 33.148 25.1896C33.1464 24.7532 33.1655 24.3311 33.2117 23.9171Z" fill="#F26606"/>
<path d="M33.7022 21.7956C33.8328 21.45 33.981 21.1235 34.1546 20.8066C33.981 21.1235 33.8328 21.45 33.7022 21.7956Z" fill="#F26606"/>
<path d="M34.3823 20.4164C34.6212 20.0437 34.8888 19.6886 35.2009 19.3684C34.8904 19.6917 34.6212 20.0437 34.3823 20.4164Z" fill="#F26606"/>
<path d="M33.2436 23.5778C33.3136 23.0777 33.4235 22.5952 33.5716 22.1349C33.4235 22.5952 33.3152 23.073 33.2436 23.5778Z" fill="#F26606"/>
<path d="M37.7332 17.7663C37.8447 17.7264 37.9546 17.6723 38.0693 17.6357C37.953 17.6739 37.8447 17.7264 37.7332 17.7663Z" fill="#F26606"/>
<path d="M64.41 40.2225C64.4037 40.2225 64.3989 40.2194 64.3893 40.2194C64.3957 40.307 64.3973 40.3961 64.3973 40.4837C64.3973 40.393 64.4116 40.3133 64.41 40.2225Z" fill="#F26606"/>
<path d="M41.3883 17.22C41.3883 17.2136 41.3868 17.2072 41.3868 17.2009C41.296 17.1977 41.2179 17.2136 41.1272 17.2136C41.2116 17.2136 41.3008 17.2168 41.3883 17.22Z" fill="#F26606"/>
<path d="M35.3076 19.2665C35.2917 19.2793 35.2742 19.2888 35.2598 19.3031C35.2551 19.3063 35.2551 19.3095 35.2519 19.3127C35.2678 19.2968 35.2885 19.2824 35.3076 19.2665Z" fill="#F26606"/>
<path d="M39.5154 17.306C39.6269 17.29 39.7463 17.2837 39.8578 17.2725C39.7447 17.2853 39.6269 17.2916 39.5154 17.306Z" fill="#F26606"/>
<path d="M64.3017 42.0955C64.3208 41.984 64.3224 41.8645 64.3352 41.7499C64.3224 41.8645 64.3177 41.984 64.3017 42.0955Z" fill="#F26606"/>
<path d="M63.843 43.8777C63.8829 43.7662 63.937 43.6563 63.9752 43.5384C63.937 43.6563 63.8829 43.7662 63.843 43.8777Z" fill="#F26606"/>
<path d="M62.295 46.3606C62.2998 46.3542 62.3014 46.3542 62.3046 46.351C62.3189 46.3351 62.3284 46.3176 62.3428 46.3017C62.3269 46.3192 62.3141 46.3415 62.295 46.3606Z" fill="#F26606"/>
<path d="M63.1646 45.2521C63.2442 45.1279 63.3191 44.9973 63.3891 44.8635C63.3159 44.9941 63.2442 45.1279 63.1646 45.2521Z" fill="#F26606"/>
<path d="M62.2393 46.4068C61.9175 46.7205 61.5624 46.9849 61.1897 47.2254C61.5624 46.9849 61.9191 46.7205 62.2393 46.4068Z" fill="#F26606"/>
<path d="M59.4776 48.0361C59.0157 48.1826 58.5348 48.2941 58.0331 48.3626C58.5348 48.2941 59.0157 48.1826 59.4776 48.0361Z" fill="#F26606"/>
<path d="M56.4181 48.4597C56.8561 48.4629 57.2798 48.4406 57.6923 48.3976C57.2798 48.4406 56.8545 48.4661 56.4181 48.4597Z" fill="#F26606"/>
<path d="M60.8027 47.4516C60.4889 47.6284 60.1577 47.7781 59.8168 47.9055C60.1577 47.7781 60.4889 47.6284 60.8027 47.4516Z" fill="#F26606"/>
<path d="M48.4039 33.2085C43.5384 28.3398 37.7842 25.5909 33.1544 25.4539C33.2945 30.0822 36.0434 35.8348 40.909 40.7019C45.7745 45.5675 51.5287 48.3164 56.1554 48.4533C56.0216 43.8251 53.2695 38.0693 48.4039 33.2085Z" fill="#277C2F"/>
<path d="M38.3894 26.5704C39.6301 29.915 41.8773 33.4331 45.0259 36.5834C48.1778 39.732 51.6959 41.9808 55.0437 43.2215C53.7982 39.8738 51.5542 36.3556 48.4039 33.2085C45.2537 30.0567 41.7371 27.8111 38.3894 26.5704Z" fill="#14521B"/>
<path d="M56.4994 49.6749L56.1235 49.6701C55.4912 49.6526 54.9816 49.1429 54.9625 48.5091C54.8351 44.0321 51.9986 38.4929 47.5583 34.0526C43.1164 29.6076 37.5771 26.7711 33.1018 26.6468C32.4679 26.6293 31.9583 26.1197 31.9408 25.4858C31.8596 22.5872 32.7084 20.1632 34.3966 18.4766C36.0179 16.8553 38.3098 16 41.0236 16C46.238 16 52.3903 19.0372 57.482 24.1257C65.536 32.1845 68.0174 42.3264 63.1327 47.2127C61.5226 48.8228 59.2292 49.6749 56.4994 49.6749ZM34.3536 24.3407C39.2144 24.871 44.6931 27.8047 49.2481 32.3628C53.803 36.9162 56.7351 42.3949 57.2686 47.2573C59.0189 47.1282 60.4205 46.5469 61.4429 45.5245C65.2509 41.7148 62.6629 32.6893 55.7922 25.8155C51.2086 21.235 45.5483 18.389 41.0236 18.389C38.9564 18.389 37.2475 19.0037 36.0848 20.1664C35.0767 21.1761 34.4858 22.6047 34.3536 24.3407Z" fill="black"/>
<path d="M36.3572 19.6392C35.959 19.6392 35.5704 19.4401 35.3443 19.077C35.22 18.8795 35.1627 18.6613 35.1627 18.4463C35.1627 18.0482 35.3618 17.658 35.7249 17.4318C35.8682 17.341 36.0211 17.255 36.1708 17.1722C36.7474 16.8553 37.4752 17.0655 37.7922 17.6452C37.8909 17.8268 37.9387 18.0243 37.9387 18.217C37.9387 18.639 37.7141 19.0483 37.3175 19.2665C37.2077 19.327 37.0946 19.3908 36.9895 19.4561C36.792 19.5819 36.5738 19.6392 36.3572 19.6392Z" fill="black"/>
<path d="M33.148 26.384C32.4918 26.384 31.9583 25.8537 31.9535 25.1975C31.9535 25.1959 31.9535 25.1943 31.9535 25.1943C31.9535 25.1943 31.9535 25.1943 31.9535 25.1928C31.9503 24.7118 31.9742 24.2451 32.0236 23.788C32.0953 23.1319 32.6909 22.6604 33.3407 22.7289C33.9539 22.7958 34.4062 23.3134 34.4062 23.917C34.4062 23.96 34.4046 24.003 34.3998 24.046C34.36 24.4171 34.3409 24.7946 34.3425 25.1848C34.3441 25.8441 33.8121 26.3793 33.1544 26.384C33.1512 26.384 33.1496 26.384 33.148 26.384Z" fill="black"/>
<path d="M33.7022 22.9901C33.5621 22.9901 33.4188 22.9646 33.2786 22.9137C32.8008 22.7321 32.5062 22.2782 32.5078 21.794C32.5078 21.6555 32.5332 21.5121 32.5842 21.3736C32.7355 20.9754 32.9059 20.5996 33.1082 20.2332C33.4251 19.6551 34.153 19.4433 34.7295 19.7618C35.1261 19.9784 35.3506 20.3893 35.349 20.8114C35.349 21.0057 35.3013 21.2016 35.2009 21.3831C35.0544 21.6507 34.9302 21.9278 34.8187 22.2209C34.6387 22.6955 34.1848 22.9901 33.7022 22.9901Z" fill="black"/>
<path d="M34.3823 21.6109C34.1609 21.6109 33.938 21.5504 33.7373 21.4214C33.3821 21.192 33.1878 20.8082 33.1878 20.4148C33.1878 20.1934 33.2499 19.9705 33.3773 19.7714C33.6831 19.2952 34.0001 18.8923 34.3441 18.5371C34.8028 18.0641 35.5561 18.0529 36.0307 18.5084C36.5037 18.9655 36.5196 19.7188 36.0641 20.195C35.8205 20.4499 35.5991 20.7334 35.3889 21.063C35.1595 21.4182 34.7741 21.6109 34.3823 21.6109Z" fill="black"/>
<path d="M33.2452 24.7723C33.1894 24.7723 33.1337 24.7691 33.0779 24.7611C32.4249 24.6688 31.9694 24.0651 32.0618 23.4122C32.1399 22.8515 32.2641 22.3021 32.4329 21.7749C32.4329 21.7733 32.4345 21.7717 32.4345 21.7701C32.6368 21.1426 33.3089 20.7954 33.9364 20.9977C34.4428 21.1618 34.7661 21.63 34.7661 22.1349C34.7661 22.2559 34.7486 22.3785 34.7088 22.4996C34.6499 22.6827 34.5973 22.8691 34.5527 23.0602C34.5018 23.2816 34.4588 23.5077 34.4253 23.7434C34.4253 23.7434 34.4253 23.745 34.4253 23.7466C34.3425 24.3407 33.8313 24.7723 33.2452 24.7723Z" fill="black"/>
<path d="M37.7332 18.9607C37.2443 18.9607 36.7856 18.6581 36.6088 18.1724C36.561 18.0386 36.5371 17.9 36.5387 17.7647C36.5387 17.2757 36.8413 16.8186 37.3271 16.6418L37.7332 17.7662L37.4195 16.6052C37.5118 16.567 37.6042 16.5304 37.6998 16.4985C38.3273 16.2931 39.001 16.6387 39.2048 17.2662C39.2446 17.3888 39.2638 17.513 39.2638 17.6357C39.2638 18.1389 38.942 18.6072 38.4372 18.7712C38.4197 18.7776 38.1553 18.8827 38.1378 18.8891C38.004 18.9384 37.867 18.9607 37.7332 18.9607Z" fill="black"/>
<path d="M64.3973 41.6782C63.7395 41.6782 63.206 41.1479 63.2028 40.4917C63.2028 40.4901 63.2028 40.4901 63.2028 40.4885C63.2028 40.4869 63.2028 40.4869 63.2028 40.4853L63.198 40.307C63.1741 39.9757 63.2888 39.6492 63.515 39.4071C63.7809 39.1188 64.168 38.9819 64.5773 39.0424C65.149 39.1236 65.5934 39.6094 65.6045 40.2034C65.6045 40.2417 65.5981 40.4168 65.595 40.4535C65.595 40.463 65.5934 40.4742 65.5918 40.4837C65.5918 40.4837 65.5918 40.4837 65.5918 40.4853C65.5918 41.1431 65.0566 41.6782 64.3973 41.6782Z" fill="black"/>
<path d="M41.3868 18.4145C41.374 18.4145 41.3597 18.4145 41.3469 18.4145L41.1272 18.4097C40.4678 18.4097 39.9327 17.8745 39.9327 17.2152C39.9327 16.5558 40.4678 16.0207 41.1272 16.0207C41.2179 16.0127 41.288 16.008 41.3629 16.008C42.0222 16.008 42.5812 16.5431 42.5812 17.2024C42.5812 17.5273 42.4507 17.8459 42.2165 18.0704C41.9936 18.2854 41.6957 18.4145 41.3868 18.4145Z" fill="black"/>
<path d="M35.2519 20.5072C34.9461 20.5072 34.6403 20.3909 34.4062 20.1568C33.9714 19.7204 33.9427 19.0324 34.3218 18.5642C34.352 18.5275 34.3823 18.4925 34.4158 18.4591C34.4221 18.4527 34.4317 18.4447 34.4396 18.4352C34.4651 18.4113 34.4922 18.3874 34.5209 18.3651C34.5511 18.3412 34.5814 18.3173 34.6053 18.2998C35.1308 17.9319 35.8603 18.037 36.2489 18.5451C36.5547 18.9448 36.5754 19.4752 36.3301 19.8829C36.2616 19.996 36.1724 20.1011 36.0641 20.1903C36.0625 20.1919 36.0625 20.1903 36.0625 20.1919C36.061 20.1934 36.0594 20.195 36.0562 20.1966C36.0211 20.2317 36.0036 20.2444 35.9781 20.2603C35.7631 20.426 35.5067 20.5072 35.2519 20.5072Z" fill="black"/>
<path d="M39.6524 18.4877C39.0567 18.4877 38.4865 18.0609 38.4037 17.4636C38.3958 17.3999 38.391 17.3362 38.391 17.2741C38.391 16.6976 38.7621 16.2055 39.3529 16.1226L39.6173 16.094C40.2735 16.0335 40.9137 16.5081 40.9774 17.1595C40.9822 17.2056 40.9838 17.2518 40.9838 17.2948C40.9838 17.8889 40.5936 18.3906 39.99 18.4575C39.9804 18.4575 39.8307 18.4718 39.8228 18.4734C39.7638 18.4829 39.7081 18.4877 39.6524 18.4877Z" fill="black"/>
<path d="M64.3033 43.29C64.2428 43.29 64.1823 43.2852 64.1218 43.2757C63.4767 43.1769 63.0292 42.5781 63.12 41.9315L63.1455 41.6703C63.1487 41.6384 63.1503 41.6113 63.1518 41.605C63.2315 40.9488 63.8335 40.4965 64.4817 40.5634C65.0885 40.6366 65.5328 41.1527 65.5328 41.7483C65.5328 41.7961 65.5297 41.8455 65.5249 41.8932C65.509 42.0891 65.4994 42.1911 65.4835 42.2914C65.3831 42.8759 64.8767 43.29 64.3033 43.29Z" fill="black"/>
<path d="M63.8287 44.9909C63.6981 44.9909 63.5675 44.9686 63.4401 44.9192C62.9623 44.7329 62.6517 44.3188 62.6517 43.8506C62.6517 43.7263 62.674 43.5989 62.7186 43.4715C62.725 43.454 62.7887 43.2916 62.7967 43.274C63.0021 42.6481 63.6997 42.25 64.3256 42.457C64.8321 42.6242 65.1665 43.0606 65.1665 43.5543C65.1665 43.6706 65.1474 43.7901 65.1076 43.9111C65.0758 44.0067 65.0391 44.099 65.0025 44.1882C64.8082 44.6644 64.3224 44.9909 63.8287 44.9909Z" fill="black"/>
<path d="M62.2966 47.5503C62.029 47.5503 61.7615 47.4611 61.5401 47.2795C61.0464 46.8734 60.9556 46.1535 61.341 45.6423C61.3553 45.6232 61.3713 45.6041 61.3872 45.5834C61.4111 45.5531 61.4429 45.5149 61.4636 45.4926C61.4764 45.4783 61.4875 45.4655 61.4987 45.4544C61.9605 44.9957 62.7027 44.9893 63.1694 45.4368C63.6217 45.87 63.6599 46.5772 63.2665 47.0566C63.241 47.09 63.214 47.1235 63.1917 47.1473C63.1678 47.1744 63.1423 47.1999 63.1152 47.2254C62.8875 47.4404 62.5928 47.5503 62.2966 47.5503Z" fill="black"/>
<path d="M63.1646 46.4466C62.9448 46.4466 62.7218 46.3861 62.5227 46.2586C62.166 46.0309 61.9701 45.6439 61.9701 45.2505C61.9701 45.0307 62.0306 44.8093 62.158 44.6103C62.2074 44.5322 62.2536 44.4478 62.2998 44.365C62.3061 44.3522 62.3141 44.3379 62.3221 44.3252C62.3237 44.3204 62.3269 44.3156 62.33 44.3108C62.6629 43.7789 63.3748 43.5527 63.9322 43.8522C64.5072 44.1627 64.7493 44.838 64.4467 45.4177C64.3623 45.5802 64.2715 45.7394 64.1743 45.8907C64.1743 45.8923 64.1727 45.8939 64.1711 45.8955C63.945 46.2523 63.558 46.4466 63.1646 46.4466Z" fill="black"/>
<path d="M61.1913 48.4199C60.7979 48.4199 60.4141 48.2256 60.1847 47.8704C60.0573 47.6713 59.9952 47.4468 59.9952 47.227C59.9952 46.8336 60.1895 46.4482 60.5447 46.2204C60.8919 45.9975 61.1738 45.7793 61.4063 45.5531C61.8793 45.0928 62.6342 45.1024 63.0945 45.5722C63.5564 46.0437 63.5484 46.7986 63.077 47.2604C62.733 47.5981 62.3284 47.915 61.8427 48.2272C61.8411 48.2288 61.8395 48.2288 61.8379 48.2304C61.6356 48.3578 61.4111 48.4199 61.1913 48.4199Z" fill="black"/>
<path d="M58.0315 49.557C57.4438 49.557 56.931 49.1238 56.8497 48.5234C56.8418 48.4693 56.8386 48.4151 56.8386 48.3594C56.8386 47.7717 57.2734 47.2604 57.8722 47.1776C58.2863 47.1219 58.7052 47.0263 59.1177 46.8957C59.7515 46.6951 60.4189 47.0454 60.6164 47.6729C60.6546 47.794 60.6737 47.915 60.6721 48.0361C60.6721 48.5425 60.3456 49.0124 59.8375 49.1732C59.296 49.3452 58.7418 49.471 58.1939 49.5443C58.1398 49.5538 58.084 49.557 58.0315 49.557Z" fill="black"/>
<path d="M56.5503 49.6542C56.5455 49.6542 56.4054 49.6542 56.4006 49.6542C55.7429 49.6446 55.2157 49.1047 55.2237 48.447C55.23 47.7908 55.7636 47.2652 56.4181 47.2652C56.4229 47.2652 56.4293 47.2652 56.4357 47.2652C56.8689 47.2652 57.2192 47.2461 57.5617 47.2095C57.5632 47.2095 57.5648 47.2095 57.568 47.2095C58.2178 47.1394 58.8119 47.6156 58.8804 48.2718C58.8851 48.3132 58.8867 48.3562 58.8867 48.3976C58.8867 49.0012 58.4312 49.5204 57.8181 49.5857C57.4072 49.6287 56.9835 49.6542 56.5503 49.6542Z" fill="black"/>
<path d="M59.8168 49.0999C59.3327 49.0999 58.8788 48.8037 58.6988 48.3243C58.6463 48.1874 58.6224 48.0456 58.6224 47.9071C58.6224 47.4229 58.9186 46.9674 59.398 46.7874C59.6815 46.6823 59.9554 46.5581 60.2166 46.4116C60.7915 46.0883 61.5194 46.2905 61.8443 46.8655C61.9478 47.0502 61.9988 47.2525 61.9988 47.45C61.9988 47.8672 61.7806 48.2734 61.392 48.4932C61.0241 48.7002 60.6355 48.8754 60.2373 49.0251C60.0972 49.0761 59.9554 49.0999 59.8168 49.0999Z" fill="black"/>
<path d="M56.1554 49.6478C56.1442 49.6478 56.1315 49.6478 56.1203 49.6478C50.9872 49.4965 44.9845 46.4673 40.0633 41.5476C35.1436 36.6247 32.1144 30.6221 31.9599 25.4906C31.9503 25.1609 32.0762 24.844 32.3087 24.6098C32.5412 24.3773 32.8645 24.2579 33.1878 24.261C38.3241 24.4123 44.3284 27.4432 49.2465 32.3644C54.1709 37.2841 57.2001 43.2852 57.3467 48.4199C57.3562 48.748 57.2304 49.0665 56.9979 49.299C56.7749 49.522 56.4723 49.6478 56.1554 49.6478ZM34.4651 26.7631C35.056 30.9645 37.7555 35.8571 41.7531 39.8562C45.7522 43.8554 50.6448 46.5549 54.8462 47.1426C54.2601 42.9412 51.5606 38.0502 47.5583 34.0526C43.5607 30.0519 38.6681 27.3508 34.4651 26.7631Z" fill="black"/>
<path d="M63.3637 24.9714C70.8332 17.505 80.4113 14.9743 84.7624 19.3223C86.2707 20.8305 86.9332 22.9869 86.8663 25.4539C82.2317 25.5845 76.4711 28.335 71.5992 33.2085C66.7257 38.0804 63.9752 43.8442 63.843 48.4756C61.3744 48.5441 59.226 47.8784 57.7145 46.3701C53.3682 42.0206 55.8942 32.4425 63.3637 24.9714Z" fill="#69C172"/>
<path d="M86.0684 21.2939C86.6274 22.5139 86.9077 23.9075 86.8663 25.4523C82.2317 25.5829 76.4711 28.3334 71.5992 33.2069C66.7257 38.0788 63.9752 43.8426 63.843 48.474C62.2998 48.5138 60.903 48.2351 59.6894 47.6777C57.5155 42.8058 60.2692 34.7836 66.7257 28.3302C73.1775 21.8753 81.2013 19.1232 86.0684 21.2939Z" fill="#449D4D"/>
<path d="M83.646 18.4479C83.5202 18.3667 83.388 18.2886 83.2574 18.217C83.388 18.2918 83.5202 18.3635 83.646 18.4479Z" fill="#F26606"/>
<path d="M86.7883 23.917C86.8329 24.3311 86.8568 24.7532 86.852 25.1895C86.8552 24.7532 86.8345 24.3311 86.7883 23.917Z" fill="#F26606"/>
<path d="M86.2977 21.7956C86.1703 21.4532 86.019 21.1235 85.847 20.8066C86.019 21.1235 86.1703 21.4532 86.2977 21.7956Z" fill="#F26606"/>
<path d="M85.6177 20.4196C85.3788 20.0437 85.1112 19.6886 84.7991 19.3716C85.1096 19.6918 85.3788 20.0437 85.6177 20.4196Z" fill="#F26606"/>
<path d="M86.758 23.5778C86.6864 23.0745 86.5765 22.5951 86.4283 22.1317C86.5765 22.592 86.6864 23.0729 86.758 23.5778Z" fill="#F26606"/>
<path d="M82.2668 17.7663C82.1553 17.7232 82.0486 17.6723 81.9339 17.6357C82.0502 17.6739 82.1553 17.7232 82.2668 17.7663Z" fill="#F26606"/>
<path d="M55.59 40.2225C55.5963 40.2225 55.6027 40.2194 55.6107 40.2194C55.6075 40.307 55.6059 40.3961 55.6059 40.4805C55.6059 40.393 55.5868 40.3133 55.59 40.2225Z" fill="#F26606"/>
<path d="M78.6133 17.2168C78.6133 17.2136 78.6133 17.2072 78.6133 17.2009C78.7056 17.1945 78.7837 17.2136 78.8744 17.2136C78.7853 17.2136 78.6992 17.2136 78.6133 17.2168Z" fill="#F26606"/>
<path d="M84.694 19.2665C84.7083 19.2793 84.7274 19.2888 84.7433 19.3031C84.7449 19.3063 84.7465 19.3127 84.7497 19.3127C84.7322 19.2968 84.7115 19.2824 84.694 19.2665Z" fill="#F26606"/>
<path d="M80.4862 17.306C80.3747 17.29 80.2569 17.2837 80.1422 17.2725C80.2584 17.2853 80.3747 17.2916 80.4862 17.306Z" fill="#F26606"/>
<path d="M55.6999 42.0955C55.6807 41.984 55.6776 41.8645 55.6664 41.7499C55.6776 41.8645 55.6855 41.984 55.6999 42.0955Z" fill="#F26606"/>
<path d="M56.1569 43.8777C56.1171 43.7662 56.0646 43.6563 56.0263 43.5384C56.0646 43.6563 56.1171 43.7662 56.1569 43.8777Z" fill="#F26606"/>
<path d="M57.7066 46.3606C57.7018 46.3574 57.7002 46.3542 57.6954 46.351C57.6811 46.3351 57.6731 46.3144 57.6604 46.3017C57.6731 46.3192 57.6875 46.3415 57.7066 46.3606Z" fill="#F26606"/>
<path d="M56.8386 45.2521C56.7558 45.1279 56.6825 44.9973 56.6093 44.8635C56.6825 44.9973 56.7574 45.1279 56.8386 45.2521Z" fill="#F26606"/>
<path d="M57.7623 46.4068C58.0825 46.7205 58.4376 46.9849 58.8119 47.2286C58.4376 46.9849 58.0825 46.7205 57.7623 46.4068Z" fill="#F26606"/>
<path d="M60.5256 48.036C60.9842 48.1826 61.4652 48.294 61.9669 48.3657C61.4652 48.294 60.9842 48.1826 60.5256 48.036Z" fill="#F26606"/>
<path d="M63.5819 48.4597C63.1439 48.4629 62.7218 48.4406 62.3077 48.3976C62.7218 48.4406 63.1455 48.4629 63.5819 48.4597Z" fill="#F26606"/>
<path d="M59.1989 47.4515C59.5111 47.6283 59.8423 47.778 60.1847 47.9054C59.8423 47.778 59.5111 47.6283 59.1989 47.4515Z" fill="#F26606"/>
<path d="M71.5992 33.2085C76.4632 28.3398 82.2174 25.5909 86.8472 25.4539C86.7086 30.0822 83.9566 35.8348 79.091 40.6987C74.2255 45.5675 68.4713 48.3164 63.8446 48.4533C63.9816 43.8251 66.7321 38.0725 71.5992 33.2085Z" fill="#277C2F"/>
<path d="M81.6122 26.5704C80.3731 29.9149 78.1227 33.4363 74.9756 36.5833C71.8238 39.732 68.3056 41.9776 64.9595 43.2215C66.2033 39.8737 68.4474 36.3556 71.5992 33.2085C74.7479 30.0567 78.2644 27.811 81.6122 26.5704Z" fill="#14521B"/>
<path d="M63.5006 49.6749C60.774 49.6749 58.4822 48.8244 56.8704 47.2158C51.9826 42.3264 54.464 32.1845 62.5196 24.1273C67.6112 19.0388 73.7636 16.0016 78.9779 16.0016C81.6934 16.0016 83.9852 16.8584 85.6065 18.4782C87.29 20.1616 88.1388 22.5856 88.0608 25.4858C88.0433 26.1197 87.5336 26.6293 86.8998 26.6468C82.4212 26.7742 76.882 29.6107 72.4433 34.0526C68.0014 38.4929 65.1649 44.0321 65.0359 48.5091C65.0184 49.1413 64.5088 49.651 63.8749 49.6685L63.5006 49.6749ZM78.9795 18.3906C74.4532 18.3906 68.793 21.2366 64.2094 25.8171C57.3387 32.6893 54.7522 41.7148 58.5602 45.526C59.5684 46.5326 61.0002 47.1235 62.733 47.2572C63.2681 42.3965 66.2018 36.9178 70.7567 32.3644C75.3085 27.8095 80.7872 24.8758 85.6495 24.3423C85.5173 22.6031 84.9265 21.1745 83.9199 20.1664C82.7541 19.0037 81.0468 18.3906 78.9795 18.3906Z" fill="black"/>
<path d="M83.6444 19.6424C83.423 19.6424 83.2001 19.5803 82.9994 19.4528L82.7461 19.3015C82.743 19.3 82.7382 19.2968 82.7334 19.2952L82.6809 19.2649V19.2633C82.1553 18.9225 81.9419 18.2106 82.2492 17.6595C82.571 17.0862 83.2526 16.8584 83.8275 17.1706L83.8467 17.1817L84.0234 17.2821C84.0314 17.2868 84.041 17.2916 84.0489 17.2964C84.076 17.3123 84.1031 17.3283 84.1286 17.3442C84.5634 17.5226 84.8691 17.951 84.8691 18.4495C84.8691 19.1088 84.334 19.644 83.6747 19.644C83.6651 19.6424 83.6571 19.6424 83.6444 19.6424Z" fill="black"/>
<path d="M86.852 26.384C86.8488 26.384 86.8456 26.384 86.8408 26.384C86.1815 26.3777 85.6527 25.8394 85.6575 25.1816C85.6607 24.793 85.6416 24.4171 85.6002 24.0476C85.5954 24.0046 85.5938 23.9616 85.5938 23.9186C85.5938 23.3166 86.0461 22.7974 86.6593 22.7305C87.3123 22.6636 87.9047 23.1319 87.9764 23.7896C88.0258 24.2499 88.0528 24.7197 88.0465 25.2039C88.0401 25.8569 87.5066 26.384 86.852 26.384Z" fill="black"/>
<path d="M86.2978 22.9901C85.8136 22.9901 85.3581 22.6939 85.1781 22.2129C85.0698 21.9246 84.9424 21.6459 84.7975 21.3784C84.6987 21.1968 84.6525 21.0025 84.6525 20.8098C84.6525 20.3861 84.8787 19.9768 85.2769 19.7586C85.8566 19.4433 86.5828 19.6583 86.8966 20.2364C87.0957 20.6027 87.2709 20.9834 87.4174 21.38C87.4684 21.5169 87.4922 21.6587 87.4922 21.7972C87.4922 22.2814 87.1944 22.7369 86.715 22.9169C86.5781 22.9662 86.4363 22.9901 86.2978 22.9901Z" fill="black"/>
<path d="M85.6177 21.614C85.2227 21.614 84.8373 21.4182 84.6095 21.0614C84.4009 20.7317 84.1811 20.4514 83.9406 20.2014C83.4836 19.7284 83.4947 18.9734 83.9677 18.5148C84.4391 18.0561 85.1925 18.064 85.6543 18.5355C86.0031 18.8906 86.3201 19.2983 86.6274 19.7777C86.7548 19.9768 86.8138 20.1998 86.8138 20.418C86.8138 20.8129 86.6179 21.1984 86.2611 21.4261C86.0604 21.5551 85.8391 21.614 85.6177 21.614Z" fill="black"/>
<path d="M86.7564 24.7723C86.1703 24.7723 85.6607 24.3423 85.5747 23.745C85.5412 23.5125 85.4998 23.2831 85.4457 23.0602C85.4011 22.8707 85.3501 22.6843 85.2896 22.498C85.2896 22.498 85.288 22.4964 85.2896 22.4948C85.0889 21.8657 85.4361 21.1952 86.0636 20.9945C86.6943 20.7938 87.3632 21.1394 87.5655 21.7669C87.7056 22.2033 87.8171 22.6604 87.8968 23.1271C87.9541 23.2656 87.9844 23.4185 87.9844 23.5778C87.9844 24.2419 87.4779 24.7372 86.7787 24.7723C86.7708 24.7723 86.7628 24.7723 86.7564 24.7723Z" fill="black"/>
<path d="M82.2445 18.9575C82.1107 18.9575 81.9721 18.932 81.8352 18.8795C81.8272 18.8763 81.7014 18.8253 81.6934 18.8206C81.1758 18.6533 80.8095 18.1485 80.8095 17.6261C80.8095 17.5146 80.827 17.4015 80.862 17.2916C81.0659 16.6641 81.6775 16.2946 82.3034 16.4985C82.4085 16.5319 82.5104 16.5733 82.6108 16.6147C83.0822 16.8106 83.396 17.2884 83.3976 17.7758C83.3976 17.9143 83.3721 18.0529 83.3179 18.1867C83.1284 18.6597 82.7079 18.9575 82.2445 18.9575Z" fill="black"/>
<path d="M55.6059 41.675C54.9529 41.675 54.4226 41.151 54.4114 40.5012C54.4082 40.4375 54.3955 40.2241 54.3971 40.1811C54.4178 39.5934 54.8605 39.1172 55.4259 39.0392C55.8257 38.9866 56.2047 39.1141 56.4691 39.3896C56.6952 39.6221 56.8147 39.9374 56.8035 40.2623L56.8004 40.4805C56.8004 41.1399 56.2652 41.675 55.6059 41.675Z" fill="black"/>
<path d="M78.6132 18.4113C78.3043 18.4113 78.0064 18.2918 77.7835 18.0768C77.5494 17.8522 77.4188 17.5417 77.4188 17.2168V17.2008C77.4188 16.5717 77.9061 16.051 78.532 16.0095C78.5957 16.0048 78.8091 16.0111 78.8728 16.0175C78.8792 16.0175 78.884 16.0175 78.8904 16.0191C79.5418 16.0287 80.0673 16.559 80.0673 17.2136C80.0673 17.8698 79.5386 18.4017 78.884 18.4081C78.8824 18.4081 78.8792 18.4081 78.8792 18.4081C78.876 18.4081 78.876 18.4081 78.8728 18.4081L78.6547 18.4097C78.6419 18.4113 78.626 18.4113 78.6132 18.4113Z" fill="black"/>
<path d="M84.8182 20.5342C84.5267 20.5342 84.2337 20.4307 83.998 20.2412C83.8722 20.1409 83.767 20.0135 83.6906 19.8685C83.6906 19.8685 83.6906 19.8669 83.689 19.8669C83.6747 19.8383 83.6603 19.8096 83.6476 19.7809C83.6444 19.773 83.6412 19.7634 83.638 19.7554C83.4421 19.2681 83.5871 18.7027 84.0059 18.3714C84.4583 18.0131 85.1017 18.0306 85.5349 18.4128C85.6766 18.5387 85.7849 18.6916 85.8534 18.8604C86.1194 19.3684 85.9617 19.9434 85.511 20.3001C85.3103 20.4594 85.065 20.5342 84.8182 20.5342Z" fill="black"/>
<path d="M80.4878 18.5004C80.4336 18.5004 80.3779 18.4973 80.3221 18.4893L80.1772 18.475C80.1692 18.475 80.0227 18.4606 80.0148 18.459C79.4032 18.3921 78.9493 17.8745 78.9493 17.2725C78.9493 17.2295 78.9509 17.1865 78.9557 17.1419C79.0257 16.4858 79.6086 16.0111 80.2712 16.0828L80.6502 16.121C81.2475 16.2039 81.6791 16.7151 81.6807 17.3012C81.6807 17.3569 81.6775 17.4127 81.6695 17.4684C81.5867 18.0688 81.0755 18.5004 80.4878 18.5004Z" fill="black"/>
<path d="M55.7317 43.29C55.4004 43.29 55.0994 43.1562 54.8812 42.938C54.6965 42.7803 54.5675 42.5621 54.5213 42.293C54.5038 42.1879 54.4942 42.0811 54.4863 41.9728C54.4863 41.9601 54.4847 41.9474 54.4847 41.9362C54.4831 41.9028 54.4815 41.8709 54.4815 41.8391C54.4815 41.4791 54.6407 41.1574 54.8908 40.9392C55.0723 40.7688 55.3049 40.6525 55.5645 40.6287C56.2111 40.5697 56.786 40.9774 56.8561 41.6272C56.8561 41.6272 56.8561 41.6272 56.8561 41.6288C56.8561 41.6384 56.8593 41.6639 56.8625 41.6941C56.8625 41.6989 56.8625 41.7037 56.8641 41.7085C56.9055 41.8311 56.9294 41.9601 56.9294 42.0971C56.9262 42.7548 56.3911 43.29 55.7317 43.29Z" fill="black"/>
<path d="M56.1569 45.0721C55.668 45.0721 55.2093 44.7695 55.0325 44.2838L56.1569 43.8777L54.9943 44.185C54.9593 44.0958 54.9226 44.0051 54.8924 43.9111C54.8526 43.7869 54.8319 43.6626 54.8319 43.5384C54.8319 43.0367 55.1504 42.5685 55.6537 42.4029C56.2796 42.199 56.9549 42.5366 57.1619 43.1641C57.1683 43.1785 57.2766 43.4556 57.2814 43.4699C57.3291 43.6037 57.353 43.7423 57.3514 43.8777C57.3514 44.3666 57.0488 44.8237 56.5631 45.0005C56.4277 45.0498 56.2907 45.0721 56.1569 45.0721Z" fill="black"/>
<path d="M57.7735 47.5726C57.5187 47.5726 57.2622 47.4993 57.044 47.3544C57.0026 47.3257 56.9612 47.2939 56.9214 47.2604C56.8816 47.2254 56.8418 47.1887 56.8067 47.1489C56.7749 47.1155 56.7399 47.0693 56.708 47.0247C56.7048 47.0199 56.7016 47.0151 56.7 47.0135C56.3433 46.5198 56.4118 45.8302 56.8641 45.4209C57.3036 45.0243 57.9598 45.0036 58.4153 45.3763C58.5841 45.4926 58.7227 45.6534 58.8135 45.8414C59.0587 46.2539 58.9998 46.7699 58.6749 47.168C58.4503 47.4388 58.1143 47.5726 57.7735 47.5726Z" fill="black"/>
<path d="M56.8386 46.4466C56.4516 46.4466 56.0725 46.2586 55.8432 45.9114C55.7429 45.7585 55.6505 45.5993 55.5613 45.4368C55.4626 45.2553 55.4148 45.0578 55.4148 44.8651C55.4148 44.4414 55.6393 44.0337 56.0359 43.8155C56.614 43.4986 57.3403 43.712 57.6572 44.2901C57.6827 44.3363 57.7082 44.3825 57.7337 44.4271C57.9375 44.6405 58.0649 44.932 58.0649 45.2521C58.0649 45.9114 57.5298 46.4466 56.8704 46.4466C56.8577 46.445 56.8482 46.4466 56.8386 46.4466Z" fill="black"/>
<path d="M58.8103 48.4215C58.5873 48.4215 58.3628 48.3593 58.1621 48.2288C57.6668 47.9086 57.2734 47.5997 56.9262 47.2588C56.6873 47.0247 56.5678 46.7157 56.5678 46.4068C56.5678 46.1058 56.6809 45.8032 56.9087 45.5706C57.3705 45.0992 58.127 45.0928 58.5985 45.5531C58.831 45.7809 59.1033 45.9927 59.4617 46.2252C59.8153 46.4546 60.008 46.8384 60.0064 47.2302C60.0064 47.4515 59.9443 47.6761 59.8137 47.8768C59.5859 48.2303 59.2021 48.4215 58.8103 48.4215Z" fill="black"/>
<path d="M61.9685 49.5602C61.9128 49.5602 61.8554 49.557 61.7981 49.5491C61.2439 49.4694 60.6944 49.3436 60.1624 49.1748C59.6544 49.0123 59.3295 48.5425 59.3311 48.036C59.3311 47.9166 59.3486 47.794 59.3868 47.6745C59.5875 47.0454 60.2564 46.6982 60.8871 46.8989C61.2916 47.0295 61.7121 47.125 62.1357 47.184C62.7314 47.2684 63.1614 47.7796 63.1614 48.3641C63.1614 48.4199 63.1582 48.4772 63.1502 48.5345C63.0642 49.1302 62.5546 49.5602 61.9685 49.5602Z" fill="black"/>
<path d="M63.499 49.6542C63.0467 49.6542 62.6103 49.6303 62.1819 49.5857C61.5688 49.5204 61.1117 49.0012 61.1133 48.3976C61.1133 48.3561 61.1148 48.3147 61.1196 48.2717C61.1897 47.6156 61.7806 47.1521 62.4336 47.2094C62.4479 47.211 62.4622 47.2126 62.4766 47.2142C62.8094 47.2477 63.1503 47.2652 63.5006 47.2652V47.5041V47.2652C63.5261 47.2652 63.55 47.2652 63.5739 47.2668V47.2652C63.5771 47.2652 63.5803 47.2652 63.5819 47.2652C64.238 47.2652 64.7716 47.7939 64.7763 48.4517C64.7811 49.1111 64.2492 49.6494 63.5898 49.6542V49.651C63.5596 49.6526 63.5293 49.6542 63.499 49.6542Z" fill="black"/>
<path d="M60.1847 49.0999C60.0462 49.0999 59.9044 49.076 59.7675 49.025C59.3661 48.8753 58.9759 48.6986 58.608 48.4915C58.221 48.2717 58.0028 47.8672 58.0028 47.4515C58.0028 47.2524 58.0522 47.0502 58.1589 46.8638C58.4854 46.2905 59.2132 46.0898 59.7866 46.4147C60.0446 46.5612 60.3169 46.6823 60.6004 46.789C61.0814 46.9674 61.3776 47.4228 61.3776 47.9086C61.3776 48.0472 61.3537 48.1873 61.3028 48.3259C61.126 48.8037 60.6689 49.0999 60.1847 49.0999Z" fill="black"/>
<path d="M63.8446 49.6478C63.5277 49.6478 63.2235 49.522 63.0005 49.2974C62.768 49.0649 62.6406 48.7464 62.6518 48.4183C62.8031 43.2852 65.8339 37.2825 70.7551 32.3628C75.6732 27.44 81.6759 24.4107 86.8138 24.2594C87.145 24.2579 87.462 24.3757 87.6929 24.6082C87.9254 24.8408 88.0528 25.1593 88.0417 25.489C87.8888 30.6189 84.858 36.6216 79.9367 41.5428C75.017 46.4657 69.0144 49.4949 63.8797 49.6478C63.8685 49.6478 63.8558 49.6478 63.8446 49.6478ZM85.5381 26.7631C81.3335 27.3508 76.4409 30.0519 72.4449 34.0526C68.4442 38.0502 65.7431 42.9428 65.1554 47.1426C69.3584 46.5549 74.2494 43.8538 78.2469 39.853C82.2461 35.8539 84.9472 30.9629 85.5381 26.7631Z" fill="black"/>
<path d="M66.3371 45.1119C66.3371 48.6142 63.499 51.4491 60 51.4491C56.501 51.4523 53.6645 48.6158 53.6645 45.1119V25.9843C53.6645 22.4884 56.4994 19.6503 60 19.6503C63.499 19.6503 66.3371 22.4868 66.3355 25.9875L66.3371 45.1119Z" fill="#93E29B"/>
<path d="M60 26.1961C56.501 26.1929 53.6645 29.0294 53.6645 32.5301V45.112C53.6645 48.6142 56.4994 51.4507 60 51.4491C63.499 51.4491 66.3371 48.6158 66.3371 45.112L66.3339 32.5301C66.3371 29.031 63.499 26.1929 60 26.1961Z" fill="#449D4D"/>
<path d="M60 52.6436H59.9952C55.8464 52.6436 52.4716 49.2656 52.4716 45.112V25.9843C52.4716 21.8339 55.8496 18.4559 60.0016 18.4559C62.0131 18.4559 63.9052 19.2395 65.3274 20.6617C66.7512 22.0855 67.5332 23.976 67.5316 25.9875L67.5348 45.1104C67.5316 49.2656 64.1536 52.6436 60 52.6436ZM60 20.8464C57.1651 20.8464 54.8589 23.151 54.8589 25.9859V45.1136C54.8589 47.9485 57.1619 50.2562 59.9936 50.2562V51.4507L59.9984 50.2562C62.8349 50.2562 65.1426 47.9501 65.1426 45.1136L65.1395 25.9891C65.1411 24.6146 64.6075 23.3246 63.636 22.3531C62.6645 21.3816 61.3729 20.8464 60 20.8464Z" fill="black"/>
<path d="M66.3371 35.7249C65.6778 35.7249 65.1426 35.1898 65.1426 34.5304C65.1426 31.6955 62.8349 29.3878 60 29.3878C57.1651 29.3878 54.8589 31.6939 54.8589 34.5304C54.8589 35.1898 54.3238 35.7249 53.6644 35.7249C53.0051 35.7249 52.47 35.1898 52.47 34.5304C52.47 30.3784 55.848 26.9988 60 26.9988C64.1536 26.9988 67.5316 30.3768 67.5316 34.5304C67.5316 35.1898 66.9981 35.7249 66.3371 35.7249Z" fill="black"/>
<path d="M66.3371 46.4753C65.6778 46.4753 65.1426 45.9417 65.1426 45.2808C65.1411 42.4475 62.8333 40.1413 60 40.1413C57.1683 40.1413 54.8621 42.4475 54.8589 45.2808C54.8589 45.9401 54.3238 46.4753 53.6644 46.4753C53.0035 46.4753 52.47 45.9401 52.47 45.2808C52.4731 41.1303 55.8512 37.7539 60 37.7539C64.1488 37.7539 67.5284 41.1303 67.5316 45.2808C67.5332 45.9385 66.9997 46.4737 66.3371 46.4753Z" fill="#093260"/>
<path d="M102.116 37.2491H17.8857V54.7124H102.116V37.2491Z" fill="#E83862"/>
<path d="M102.116 43.3616H17.8857V54.7124H102.116V43.3616Z" fill="#F5064B"/>
<path d="M70.4063 37.2491H49.5937V54.7124H70.4063V37.2491Z" fill="#69C172"/>
<path d="M70.4063 43.2215H49.5937V54.7124H70.4063V43.2215Z" fill="#449D4D"/>
<path d="M70.4063 55.9069H49.5937C48.9343 55.9069 48.3992 55.3718 48.3992 54.7124V37.2491C48.3992 36.5897 48.9343 36.0546 49.5937 36.0546H70.4063C71.0657 36.0546 71.6008 36.5897 71.6008 37.2491V54.7124C71.6008 55.3718 71.0657 55.9069 70.4063 55.9069ZM50.7881 53.5179H69.2119V38.4436H50.7881V53.5179Z" fill="black"/>
<path d="M102.114 55.9069H17.8857C17.2263 55.9069 16.6912 55.3718 16.6912 54.7124V37.2491C16.6912 36.5897 17.2263 36.0546 17.8857 36.0546H102.116C102.775 36.0546 103.31 36.5897 103.31 37.2491V54.7124C103.309 55.3718 102.774 55.9069 102.114 55.9069ZM19.0802 53.5179H100.921V38.4436H19.0802V53.5179Z" fill="black"/>
<path d="M93.9886 54.7124H26.0114V102.806H93.9886V54.7124Z" fill="#F5064B"/>
<path d="M26.0114 54.7124L93.9886 102.806V54.7124H26.0114Z" fill="#D70843"/>
<path d="M93.9886 104H26.0114C25.352 104 24.8169 103.465 24.8169 102.806V54.7124C24.8169 54.0531 25.352 53.5179 26.0114 53.5179H93.9886C94.648 53.5179 95.1831 54.0531 95.1831 54.7124V102.806C95.1831 103.465 94.648 104 93.9886 104ZM27.2058 101.611H92.7941V55.9069H27.2058V101.611Z" fill="black"/>
<path d="M37.703 68.4808C39.595 68.4808 41.1287 66.9471 41.1287 65.0551C41.1287 63.163 39.595 61.6293 37.703 61.6293C35.811 61.6293 34.2772 63.163 34.2772 65.0551C34.2772 66.9471 35.811 68.4808 37.703 68.4808Z" fill="#E99CAE"/>
<path d="M52.5671 68.4808C54.4591 68.4808 55.9929 66.9471 55.9929 65.0551C55.9929 63.163 54.4591 61.6293 52.5671 61.6293C50.6751 61.6293 49.1413 63.163 49.1413 65.0551C49.1413 66.9471 50.6751 68.4808 52.5671 68.4808Z" fill="#E99CAE"/>
<path d="M67.4329 68.4808C69.3249 68.4808 70.8586 66.9471 70.8586 65.0551C70.8586 63.163 69.3249 61.6293 67.4329 61.6293C65.5409 61.6293 64.0071 63.163 64.0071 65.0551C64.0071 66.9471 65.5409 68.4808 67.4329 68.4808Z" fill="#E99CAE"/>
<path d="M82.297 68.4808C84.189 68.4808 85.7228 66.9471 85.7228 65.0551C85.7228 63.163 84.189 61.6293 82.297 61.6293C80.405 61.6293 78.8712 63.163 78.8712 65.0551C78.8712 66.9471 80.405 68.4808 82.297 68.4808Z" fill="#E99CAE"/>
<path d="M45.1358 81.042C47.0278 81.042 48.5616 79.5082 48.5616 77.6162C48.5616 75.7242 47.0278 74.1905 45.1358 74.1905C43.2438 74.1905 41.7101 75.7242 41.7101 77.6162C41.7101 79.5082 43.2438 81.042 45.1358 81.042Z" fill="#99233F"/>
<path d="M60 81.042C61.892 81.042 63.4258 79.5082 63.4258 77.6162C63.4258 75.7242 61.892 74.1905 60 74.1905C58.108 74.1905 56.5742 75.7242 56.5742 77.6162C56.5742 79.5082 58.108 81.042 60 81.042Z" fill="#99233F"/>
<path d="M74.8641 81.042C76.7562 81.042 78.2899 79.5082 78.2899 77.6162C78.2899 75.7242 76.7562 74.1905 74.8641 74.1905C72.9721 74.1905 71.4384 75.7242 71.4384 77.6162C71.4384 79.5082 72.9721 81.042 74.8641 81.042Z" fill="#99233F"/>
<path d="M37.703 93.6016C39.595 93.6016 41.1287 92.0678 41.1287 90.1758C41.1287 88.2838 39.595 86.7501 37.703 86.7501C35.811 86.7501 34.2772 88.2838 34.2772 90.1758C34.2772 92.0678 35.811 93.6016 37.703 93.6016Z" fill="#E99CAE"/>
<path d="M52.5671 93.6016C54.4591 93.6016 55.9929 92.0678 55.9929 90.1758C55.9929 88.2838 54.4591 86.7501 52.5671 86.7501C50.6751 86.7501 49.1413 88.2838 49.1413 90.1758C49.1413 92.0678 50.6751 93.6016 52.5671 93.6016Z" fill="#E99CAE"/>
<path d="M67.4329 93.6016C69.3249 93.6016 70.8586 92.0678 70.8586 90.1758C70.8586 88.2838 69.3249 86.7501 67.4329 86.7501C65.5409 86.7501 64.0071 88.2838 64.0071 90.1758C64.0071 92.0678 65.5409 93.6016 67.4329 93.6016Z" fill="#E99CAE"/>
<path d="M82.297 93.6016C84.189 93.6016 85.7228 92.0678 85.7228 90.1758C85.7228 88.2838 84.189 86.7501 82.297 86.7501C80.405 86.7501 78.8712 88.2838 78.8712 90.1758C78.8712 92.0678 80.405 93.6016 82.297 93.6016Z" fill="#E99CAE"/>
<path d="M66.5028 54.7124H53.4972V102.805H66.5028V54.7124Z" fill="#449D4D"/>
<path d="M66.5028 83.3577V54.7124H53.4972V74.157L66.5028 83.3577Z" fill="#69C172"/>
<path d="M66.5028 104H53.4972C52.8379 104 52.3027 103.465 52.3027 102.806V54.7124C52.3027 54.0531 52.8379 53.5179 53.4972 53.5179H66.5028C67.1621 53.5179 67.6973 54.0531 67.6973 54.7124V102.806C67.6973 103.465 67.1621 104 66.5028 104ZM54.6917 101.611H65.3083V55.9069H54.6917V101.611Z" fill="black"/>
<defs>
<filter id="filter0_d" x="3.6912" y="3" width="112.619" height="114" filterUnits="userSpaceOnUse" color-interpolation-filters="sRGB">
<feFlood flood-opacity="0" result="BackgroundImageFix"/>
<feColorMatrix in="SourceAlpha" type="matrix" values="0 0 0 0 0 0 0 0 0 0 0 0 0 0 0 0 0 0 127 0"/>
<feOffset/>
<feGaussianBlur stdDeviation="5"/>
<feColorMatrix type="matrix" values="0 0 0 0 0 0 0 0 0 0 0 0 0 0 0 0 0 0 0.25 0"/>
<feBlend mode="normal" in2="BackgroundImageFix" result="effect1_dropShadow"/>
<feBlend mode="normal" in="SourceGraphic" in2="effect1_dropShadow" result="shape"/>
</filter>
</defs>
</svg>
