<svg width="120" height="120" viewBox="0 0 120 120" fill="none" xmlns="http://www.w3.org/2000/svg">
<g filter="url(#filter0_d)">
<path d="M60 105.5C71.3792 105.5 79.6758 100.195 85.0108 91.7396C90.2638 83.4137 92.6 72.139 92.6 60C92.6 47.5097 87.9319 36.2344 81.6531 28.0703C75.4767 20.0393 67.3055 14.5 60 14.5C52.6945 14.5 44.5233 20.0393 38.3469 28.0703C32.0681 36.2344 27.4 47.5097 27.4 60C27.4 72.139 29.7362 83.4137 34.9892 91.7396C40.3242 100.195 48.6208 105.5 60 105.5Z" fill="#F5064B" stroke="white" stroke-width="5"/>
<mask id="mask0" mask-type="alpha" maskUnits="userSpaceOnUse" x="24" y="12" width="72" height="96">
<path d="M60 105.5C71.3792 105.5 79.6758 100.195 85.0108 91.7396C90.2638 83.4137 92.6 72.139 92.6 60C92.6 47.5097 87.9319 36.2344 81.6531 28.0703C75.4767 20.0393 67.3055 14.5 60 14.5C52.6945 14.5 44.5233 20.0393 38.3469 28.0703C32.0681 36.2344 27.4 47.5097 27.4 60C27.4 72.139 29.7362 83.4137 34.9892 91.7396C40.3242 100.195 48.6208 105.5 60 105.5Z" fill="white" stroke="white" stroke-width="5"/>
</mask>
<g mask="url(#mask0)">
<mask id="path-3-outside-1" maskUnits="userSpaceOnUse" x="-18.3366" y="15.6967" width="140" height="89" fill="black">
<rect fill="white" x="-18.3366" y="15.6967" width="140" height="89"/>
<path fill-rule="evenodd" clip-rule="evenodd" d="M26.1501 23.6967L-10.3366 60.1834L26.1501 96.6701L34.7501 88.0701L43.3501 96.6701L51.9501 88.0701L60.5501 96.6701L69.1501 88.0701L77.7501 96.6701L114.237 60.1834L77.7501 23.6967L69.1501 32.2967L60.5501 23.6967L51.9501 32.2967L43.3501 23.6967L34.7501 32.2967L26.1501 23.6967Z"/>
</mask>
<path d="M-10.3366 60.1834L-13.8722 56.6478L-17.4077 60.1834L-13.8722 63.7189L-10.3366 60.1834ZM26.1501 23.6967L29.6856 20.1611L26.1501 16.6256L22.6145 20.1611L26.1501 23.6967ZM26.1501 96.6701L22.6145 100.206L26.1501 103.741L29.6856 100.206L26.1501 96.6701ZM34.7501 88.0701L38.2856 84.5345L34.7501 80.999L31.2145 84.5345L34.7501 88.0701ZM43.3501 96.6701L39.8145 100.206L43.3501 103.741L46.8856 100.206L43.3501 96.6701ZM51.9501 88.0701L55.4856 84.5345L51.9501 80.999L48.4145 84.5345L51.9501 88.0701ZM60.5501 96.6701L57.0145 100.206L60.5501 103.741L64.0856 100.206L60.5501 96.6701ZM69.1501 88.0701L72.6856 84.5345L69.1501 80.999L65.6145 84.5345L69.1501 88.0701ZM77.7501 96.6701L74.2145 100.206L77.7501 103.741L81.2856 100.206L77.7501 96.6701ZM114.237 60.1834L117.772 63.7189L121.308 60.1834L117.772 56.6478L114.237 60.1834ZM77.7501 23.6967L81.2856 20.1611L77.7501 16.6256L74.2145 20.1611L77.7501 23.6967ZM69.1501 32.2967L65.6145 35.8322L69.1501 39.3677L72.6856 35.8322L69.1501 32.2967ZM60.5501 23.6967L64.0856 20.1611L60.5501 16.6256L57.0145 20.1611L60.5501 23.6967ZM51.9501 32.2967L48.4145 35.8322L51.9501 39.3677L55.4856 35.8322L51.9501 32.2967ZM43.3501 23.6967L46.8856 20.1611L43.3501 16.6256L39.8145 20.1611L43.3501 23.6967ZM34.7501 32.2967L31.2145 35.8322L34.7501 39.3677L38.2856 35.8322L34.7501 32.2967ZM-6.8011 63.7189L29.6856 27.2322L22.6145 20.1611L-13.8722 56.6478L-6.8011 63.7189ZM29.6856 93.1345L-6.8011 56.6478L-13.8722 63.7189L22.6145 100.206L29.6856 93.1345ZM31.2145 84.5345L22.6145 93.1345L29.6856 100.206L38.2856 91.6056L31.2145 84.5345ZM46.8856 93.1345L38.2856 84.5345L31.2145 91.6056L39.8145 100.206L46.8856 93.1345ZM48.4145 84.5345L39.8145 93.1345L46.8856 100.206L55.4856 91.6056L48.4145 84.5345ZM64.0856 93.1345L55.4856 84.5345L48.4145 91.6056L57.0145 100.206L64.0856 93.1345ZM65.6145 84.5345L57.0145 93.1345L64.0856 100.206L72.6856 91.6056L65.6145 84.5345ZM81.2856 93.1345L72.6856 84.5345L65.6145 91.6056L74.2145 100.206L81.2856 93.1345ZM110.701 56.6478L74.2145 93.1345L81.2856 100.206L117.772 63.7189L110.701 56.6478ZM74.2145 27.2322L110.701 63.7189L117.772 56.6478L81.2856 20.1611L74.2145 27.2322ZM72.6856 35.8322L81.2856 27.2322L74.2145 20.1611L65.6145 28.7611L72.6856 35.8322ZM57.0145 27.2322L65.6145 35.8322L72.6856 28.7611L64.0856 20.1611L57.0145 27.2322ZM55.4856 35.8322L64.0856 27.2322L57.0145 20.1611L48.4145 28.7611L55.4856 35.8322ZM39.8145 27.2322L48.4145 35.8322L55.4856 28.7611L46.8856 20.1611L39.8145 27.2322ZM38.2856 35.8322L46.8856 27.2322L39.8145 20.1611L31.2145 28.7611L38.2856 35.8322ZM22.6145 27.2322L31.2145 35.8322L38.2856 28.7611L29.6856 20.1611L22.6145 27.2322Z" fill="white" mask="url(#path-3-outside-1)"/>
<mask id="path-5-outside-2" maskUnits="userSpaceOnUse" x="-10.9634" y="23.4366" width="125" height="73" fill="black">
<rect fill="white" x="-10.9634" y="23.4366" width="125" height="73"/>
<path fill-rule="evenodd" clip-rule="evenodd" d="M25.7834 31.4366L-2.96335 60.1834L25.7834 88.9301L34.3834 80.3301L42.9834 88.9301L51.5834 80.3301L60.1834 88.9301L68.7834 80.3301L77.3834 88.9301L106.13 60.1834L77.3834 31.4366L68.7834 40.0366L60.1834 31.4366L51.5834 40.0366L42.9834 31.4366L34.3834 40.0366L25.7834 31.4366Z"/>
</mask>
<path d="M-2.96335 60.1834L-6.49888 56.6478L-10.0344 60.1834L-6.49888 63.7189L-2.96335 60.1834ZM25.7834 31.4366L29.3189 27.9011L25.7834 24.3656L22.2478 27.9011L25.7834 31.4366ZM25.7834 88.9301L22.2478 92.4656L25.7834 96.0011L29.3189 92.4656L25.7834 88.9301ZM34.3834 80.3301L37.9189 76.7945L34.3834 73.259L30.8478 76.7945L34.3834 80.3301ZM42.9834 88.9301L39.4478 92.4656L42.9834 96.0011L46.5189 92.4656L42.9834 88.9301ZM51.5834 80.3301L55.1189 76.7945L51.5834 73.259L48.0478 76.7945L51.5834 80.3301ZM60.1834 88.9301L56.6478 92.4656L60.1834 96.0011L63.7189 92.4656L60.1834 88.9301ZM68.7834 80.3301L72.3189 76.7945L68.7834 73.259L65.2478 76.7945L68.7834 80.3301ZM77.3834 88.9301L73.8478 92.4656L77.3834 96.0011L80.9189 92.4656L77.3834 88.9301ZM106.13 60.1834L109.666 63.7189L113.201 60.1834L109.666 56.6478L106.13 60.1834ZM77.3834 31.4366L80.9189 27.9011L77.3834 24.3656L73.8478 27.9011L77.3834 31.4366ZM68.7834 40.0366L65.2478 43.5722L68.7834 47.1077L72.3189 43.5722L68.7834 40.0366ZM60.1834 31.4366L63.7189 27.9011L60.1834 24.3656L56.6478 27.9011L60.1834 31.4366ZM51.5834 40.0366L48.0478 43.5722L51.5834 47.1077L55.1189 43.5722L51.5834 40.0366ZM42.9834 31.4366L46.5189 27.9011L42.9834 24.3656L39.4478 27.9011L42.9834 31.4366ZM34.3834 40.0366L30.8478 43.5722L34.3834 47.1077L37.9189 43.5722L34.3834 40.0366ZM0.572184 63.7189L29.3189 34.9722L22.2478 27.9011L-6.49888 56.6478L0.572184 63.7189ZM29.3189 85.3945L0.572184 56.6478L-6.49888 63.7189L22.2478 92.4656L29.3189 85.3945ZM30.8478 76.7945L22.2478 85.3945L29.3189 92.4656L37.9189 83.8656L30.8478 76.7945ZM46.5189 85.3945L37.9189 76.7945L30.8478 83.8656L39.4478 92.4656L46.5189 85.3945ZM48.0478 76.7945L39.4478 85.3945L46.5189 92.4656L55.1189 83.8656L48.0478 76.7945ZM63.7189 85.3945L55.1189 76.7945L48.0478 83.8656L56.6478 92.4656L63.7189 85.3945ZM65.2478 76.7945L56.6478 85.3945L63.7189 92.4656L72.3189 83.8656L65.2478 76.7945ZM80.9189 85.3945L72.3189 76.7945L65.2478 83.8656L73.8478 92.4656L80.9189 85.3945ZM102.595 56.6478L73.8478 85.3945L80.9189 92.4656L109.666 63.7189L102.595 56.6478ZM73.8478 34.9722L102.595 63.7189L109.666 56.6478L80.9189 27.9011L73.8478 34.9722ZM72.3189 43.5722L80.9189 34.9722L73.8478 27.9011L65.2478 36.5011L72.3189 43.5722ZM56.6478 34.9722L65.2478 43.5722L72.3189 36.5011L63.7189 27.9011L56.6478 34.9722ZM55.1189 43.5722L63.7189 34.9722L56.6478 27.9011L48.0478 36.5011L55.1189 43.5722ZM39.4478 34.9722L48.0478 43.5722L55.1189 36.5011L46.5189 27.9011L39.4478 34.9722ZM37.9189 43.5722L46.5189 34.9722L39.4478 27.9011L30.8478 36.5011L37.9189 43.5722ZM22.2478 34.9722L30.8478 43.5722L37.9189 36.5011L29.3189 27.9011L22.2478 34.9722Z" fill="white" mask="url(#path-5-outside-2)"/>
<mask id="path-7-outside-3" maskUnits="userSpaceOnUse" x="-5.43664" y="28.9634" width="131" height="62" fill="black">
<rect fill="white" x="-5.43664" y="28.9634" width="131" height="62"/>
<path fill-rule="evenodd" clip-rule="evenodd" d="M25.7834 36.9634L2.56336 60.1834L25.7834 83.4034L34.3834 74.8034L42.9834 83.4034L51.5834 74.8034L60.1834 83.4034L68.7834 74.8034L77.3834 83.4034L85.9834 74.8034L94.5834 83.4034L117.803 60.1834L94.5834 36.9634L85.9834 45.5634L77.3834 36.9634L68.7834 45.5634L60.1834 36.9634L51.5834 45.5634L42.9834 36.9634L34.3834 45.5634L25.7834 36.9634Z"/>
</mask>
<path fill-rule="evenodd" clip-rule="evenodd" d="M25.7834 36.9634L2.56336 60.1834L25.7834 83.4034L34.3834 74.8034L42.9834 83.4034L51.5834 74.8034L60.1834 83.4034L68.7834 74.8034L77.3834 83.4034L85.9834 74.8034L94.5834 83.4034L117.803 60.1834L94.5834 36.9634L85.9834 45.5634L77.3834 36.9634L68.7834 45.5634L60.1834 36.9634L51.5834 45.5634L42.9834 36.9634L34.3834 45.5634L25.7834 36.9634Z" fill="white"/>
<path d="M2.56336 60.1834L-0.972172 56.6478L-4.50771 60.1834L-0.972172 63.7189L2.56336 60.1834ZM25.7834 36.9634L29.3189 33.4278L25.7834 29.8923L22.2478 33.4278L25.7834 36.9634ZM25.7834 83.4034L22.2478 86.9389L25.7834 90.4744L29.3189 86.9389L25.7834 83.4034ZM34.3834 74.8034L37.9189 71.2678L34.3834 67.7323L30.8478 71.2678L34.3834 74.8034ZM42.9834 83.4034L39.4478 86.9389L42.9834 90.4744L46.5189 86.9389L42.9834 83.4034ZM51.5834 74.8034L55.1189 71.2678L51.5834 67.7323L48.0478 71.2678L51.5834 74.8034ZM60.1834 83.4034L56.6478 86.9389L60.1834 90.4744L63.7189 86.9389L60.1834 83.4034ZM68.7834 74.8034L72.3189 71.2678L68.7834 67.7323L65.2478 71.2678L68.7834 74.8034ZM77.3834 83.4034L73.8478 86.9389L77.3834 90.4744L80.9189 86.9389L77.3834 83.4034ZM85.9834 74.8034L89.5189 71.2678L85.9834 67.7323L82.4478 71.2678L85.9834 74.8034ZM94.5834 83.4034L91.0478 86.9389L94.5834 90.4744L98.1189 86.9389L94.5834 83.4034ZM117.803 60.1834L121.339 63.7189L124.874 60.1834L121.339 56.6478L117.803 60.1834ZM94.5834 36.9634L98.1189 33.4278L94.5834 29.8923L91.0478 33.4278L94.5834 36.9634ZM85.9834 45.5634L82.4478 49.0989L85.9834 52.6344L89.5189 49.0989L85.9834 45.5634ZM77.3834 36.9634L80.9189 33.4278L77.3834 29.8923L73.8478 33.4278L77.3834 36.9634ZM68.7834 45.5634L65.2478 49.0989L68.7834 52.6344L72.3189 49.0989L68.7834 45.5634ZM60.1834 36.9634L63.7189 33.4278L60.1834 29.8923L56.6478 33.4278L60.1834 36.9634ZM51.5834 45.5634L48.0478 49.0989L51.5834 52.6344L55.1189 49.0989L51.5834 45.5634ZM42.9834 36.9634L46.5189 33.4278L42.9834 29.8923L39.4478 33.4278L42.9834 36.9634ZM34.3834 45.5634L30.8478 49.0989L34.3834 52.6344L37.9189 49.0989L34.3834 45.5634ZM6.0989 63.7189L29.3189 40.4989L22.2478 33.4278L-0.972172 56.6478L6.0989 63.7189ZM29.3189 79.8678L6.0989 56.6478L-0.972172 63.7189L22.2478 86.9389L29.3189 79.8678ZM30.8478 71.2678L22.2478 79.8678L29.3189 86.9389L37.9189 78.3389L30.8478 71.2678ZM30.8478 78.3389L39.4478 86.9389L46.5189 79.8678L37.9189 71.2678L30.8478 78.3389ZM46.5189 86.9389L55.1189 78.3389L48.0478 71.2678L39.4478 79.8678L46.5189 86.9389ZM48.0478 78.3389L56.6478 86.9389L63.7189 79.8678L55.1189 71.2678L48.0478 78.3389ZM63.7189 86.9389L72.3189 78.3389L65.2478 71.2678L56.6478 79.8678L63.7189 86.9389ZM65.2478 78.3389L73.8478 86.9389L80.9189 79.8678L72.3189 71.2678L65.2478 78.3389ZM80.9189 86.9389L89.5189 78.3389L82.4478 71.2678L73.8478 79.8678L80.9189 86.9389ZM82.4478 78.3389L91.0478 86.9389L98.1189 79.8678L89.5189 71.2678L82.4478 78.3389ZM98.1189 86.9389L121.339 63.7189L114.268 56.6478L91.0478 79.8678L98.1189 86.9389ZM121.339 56.6478L98.1189 33.4278L91.0478 40.4989L114.268 63.7189L121.339 56.6478ZM91.0478 33.4278L82.4478 42.0278L89.5189 49.0989L98.1189 40.4989L91.0478 33.4278ZM89.5189 42.0278L80.9189 33.4278L73.8478 40.4989L82.4478 49.0989L89.5189 42.0278ZM73.8478 33.4278L65.2478 42.0278L72.3189 49.0989L80.9189 40.4989L73.8478 33.4278ZM72.3189 42.0278L63.7189 33.4278L56.6478 40.4989L65.2478 49.0989L72.3189 42.0278ZM56.6478 33.4278L48.0478 42.0278L55.1189 49.0989L63.7189 40.4989L56.6478 33.4278ZM55.1189 42.0278L46.5189 33.4278L39.4478 40.4989L48.0478 49.0989L55.1189 42.0278ZM39.4478 33.4278L30.8478 42.0278L37.9189 49.0989L46.5189 40.4989L39.4478 33.4278ZM22.2478 40.4989L30.8478 49.0989L37.9189 42.0278L29.3189 33.4278L22.2478 40.4989Z" fill="white" mask="url(#path-7-outside-3)"/>
<mask id="path-9-outside-4" maskUnits="userSpaceOnUse" x="-0.459999" y="33.94" width="121" height="52" fill="black">
<rect fill="white" x="-0.459999" y="33.94" width="121" height="52"/>
<path fill-rule="evenodd" clip-rule="evenodd" d="M7.54 60.1834L25.7834 41.94L34.3834 50.54L42.9834 41.94L51.5834 50.54L60.1834 41.94L68.7834 50.54L77.3834 41.94L85.9834 50.54L94.5834 41.94L112.827 60.1834L94.5834 78.4267L85.9834 69.8267L77.3834 78.4267L68.7834 69.8267L60.1834 78.4267L51.5834 69.8267L42.9834 78.4267L34.3834 69.8267L25.7834 78.4267L7.54 60.1834Z"/>
</mask>
<path fill-rule="evenodd" clip-rule="evenodd" d="M7.54 60.1834L25.7834 41.94L34.3834 50.54L42.9834 41.94L51.5834 50.54L60.1834 41.94L68.7834 50.54L77.3834 41.94L85.9834 50.54L94.5834 41.94L112.827 60.1834L94.5834 78.4267L85.9834 69.8267L77.3834 78.4267L68.7834 69.8267L60.1834 78.4267L51.5834 69.8267L42.9834 78.4267L34.3834 69.8267L25.7834 78.4267L7.54 60.1834Z" fill="#F5064B"/>
<path d="M25.7834 41.94L29.3189 38.4045L25.7834 34.8689L22.2478 38.4045L25.7834 41.94ZM7.54 60.1834L4.00447 56.6478L0.468933 60.1834L4.00447 63.7189L7.54 60.1834ZM34.3834 50.54L30.8478 54.0755L34.3834 57.6111L37.9189 54.0755L34.3834 50.54ZM42.9834 41.94L46.5189 38.4045L42.9834 34.8689L39.4478 38.4045L42.9834 41.94ZM51.5834 50.54L48.0478 54.0755L51.5834 57.6111L55.1189 54.0755L51.5834 50.54ZM60.1834 41.94L63.7189 38.4045L60.1834 34.8689L56.6478 38.4045L60.1834 41.94ZM68.7834 50.54L65.2478 54.0755L68.7834 57.6111L72.3189 54.0755L68.7834 50.54ZM77.3834 41.94L80.9189 38.4045L77.3834 34.8689L73.8478 38.4045L77.3834 41.94ZM85.9834 50.54L82.4478 54.0755L85.9834 57.6111L89.5189 54.0755L85.9834 50.54ZM94.5834 41.94L98.1189 38.4045L94.5834 34.8689L91.0478 38.4045L94.5834 41.94ZM112.827 60.1834L116.362 63.7189L119.898 60.1834L116.362 56.6478L112.827 60.1834ZM94.5834 78.4267L91.0478 81.9622L94.5834 85.4978L98.1189 81.9622L94.5834 78.4267ZM85.9834 69.8267L89.5189 66.2912L85.9834 62.7556L82.4478 66.2912L85.9834 69.8267ZM77.3834 78.4267L73.8478 81.9622L77.3834 85.4978L80.9189 81.9622L77.3834 78.4267ZM68.7834 69.8267L72.3189 66.2912L68.7834 62.7556L65.2478 66.2912L68.7834 69.8267ZM60.1834 78.4267L56.6478 81.9622L60.1834 85.4978L63.7189 81.9622L60.1834 78.4267ZM51.5834 69.8267L55.1189 66.2912L51.5834 62.7556L48.0478 66.2912L51.5834 69.8267ZM42.9834 78.4267L39.4478 81.9622L42.9834 85.4978L46.5189 81.9622L42.9834 78.4267ZM34.3834 69.8267L37.9189 66.2912L34.3834 62.7556L30.8478 66.2912L34.3834 69.8267ZM25.7834 78.4267L22.2478 81.9622L25.7834 85.4978L29.3189 81.9622L25.7834 78.4267ZM22.2478 38.4045L4.00447 56.6478L11.0755 63.7189L29.3189 45.4755L22.2478 38.4045ZM37.9189 47.0045L29.3189 38.4045L22.2478 45.4755L30.8478 54.0755L37.9189 47.0045ZM39.4478 38.4045L30.8478 47.0045L37.9189 54.0755L46.5189 45.4755L39.4478 38.4045ZM55.1189 47.0045L46.5189 38.4045L39.4478 45.4755L48.0478 54.0755L55.1189 47.0045ZM56.6478 38.4045L48.0478 47.0045L55.1189 54.0755L63.7189 45.4755L56.6478 38.4045ZM72.3189 47.0045L63.7189 38.4045L56.6478 45.4755L65.2478 54.0755L72.3189 47.0045ZM73.8478 38.4045L65.2478 47.0045L72.3189 54.0755L80.9189 45.4755L73.8478 38.4045ZM89.5189 47.0045L80.9189 38.4045L73.8478 45.4755L82.4478 54.0755L89.5189 47.0045ZM89.5189 54.0755L98.1189 45.4755L91.0478 38.4045L82.4478 47.0045L89.5189 54.0755ZM91.0478 45.4755L109.291 63.7189L116.362 56.6478L98.1189 38.4045L91.0478 45.4755ZM109.291 56.6478L91.0478 74.8912L98.1189 81.9622L116.362 63.7189L109.291 56.6478ZM98.1189 74.8912L89.5189 66.2912L82.4478 73.3622L91.0478 81.9622L98.1189 74.8912ZM80.9189 81.9622L89.5189 73.3622L82.4478 66.2912L73.8478 74.8912L80.9189 81.9622ZM65.2478 73.3622L73.8478 81.9622L80.9189 74.8912L72.3189 66.2912L65.2478 73.3622ZM63.7189 81.9622L72.3189 73.3622L65.2478 66.2912L56.6478 74.8912L63.7189 81.9622ZM48.0478 73.3622L56.6478 81.9622L63.7189 74.8912L55.1189 66.2912L48.0478 73.3622ZM46.5189 81.9622L55.1189 73.3622L48.0478 66.2912L39.4478 74.8912L46.5189 81.9622ZM30.8478 73.3622L39.4478 81.9622L46.5189 74.8912L37.9189 66.2912L30.8478 73.3622ZM29.3189 81.9622L37.9189 73.3622L30.8478 66.2912L22.2478 74.8912L29.3189 81.9622ZM4.00447 63.7189L22.2478 81.9622L29.3189 74.8912L11.0755 56.6478L4.00447 63.7189Z" fill="white" mask="url(#path-9-outside-4)"/>
<path d="M37.48 55.85C35.248 55.85 33.79 57.362 33.79 59.702C33.79 62.06 35.248 63.59 37.48 63.59C39.712 63.59 41.152 62.06 41.152 59.702C41.152 57.362 39.712 55.85 37.48 55.85ZM36.688 68.54H40.45L49.216 55.922H45.454L36.688 68.54ZM37.48 57.974C38.182 57.974 38.632 58.658 38.632 59.702C38.632 60.764 38.182 61.448 37.48 61.448C36.778 61.448 36.328 60.764 36.328 59.702C36.328 58.658 36.778 57.974 37.48 57.974ZM48.442 60.89C46.21 60.89 44.752 62.402 44.752 64.742C44.752 67.1 46.21 68.63 48.442 68.63C50.674 68.63 52.114 67.1 52.114 64.742C52.114 62.402 50.674 60.89 48.442 60.89ZM48.442 63.014C49.144 63.014 49.594 63.698 49.594 64.742C49.594 65.804 49.144 66.488 48.442 66.488C47.74 66.488 47.29 65.804 47.29 64.742C47.29 63.698 47.74 63.014 48.442 63.014ZM59.0322 55.85C56.8002 55.85 55.3422 57.362 55.3422 59.702C55.3422 62.06 56.8002 63.59 59.0322 63.59C61.2642 63.59 62.7042 62.06 62.7042 59.702C62.7042 57.362 61.2642 55.85 59.0322 55.85ZM58.2402 68.54H62.0022L70.7682 55.922H67.0062L58.2402 68.54ZM59.0322 57.974C59.7342 57.974 60.1842 58.658 60.1842 59.702C60.1842 60.764 59.7342 61.448 59.0322 61.448C58.3302 61.448 57.8802 60.764 57.8802 59.702C57.8802 58.658 58.3302 57.974 59.0322 57.974ZM69.9942 60.89C67.7622 60.89 66.3042 62.402 66.3042 64.742C66.3042 67.1 67.7622 68.63 69.9942 68.63C72.2262 68.63 73.6662 67.1 73.6662 64.742C73.6662 62.402 72.2262 60.89 69.9942 60.89ZM69.9942 63.014C70.6962 63.014 71.1462 63.698 71.1462 64.742C71.1462 65.804 70.6962 66.488 69.9942 66.488C69.2922 66.488 68.8422 65.804 68.8422 64.742C68.8422 63.698 69.2922 63.014 69.9942 63.014ZM37.48 77.85C35.248 77.85 33.79 79.362 33.79 81.702C33.79 84.06 35.248 85.59 37.48 85.59C39.712 85.59 41.152 84.06 41.152 81.702C41.152 79.362 39.712 77.85 37.48 77.85ZM36.688 90.54H40.45L49.216 77.922H45.454L36.688 90.54ZM37.48 79.974C38.182 79.974 38.632 80.658 38.632 81.702C38.632 82.764 38.182 83.448 37.48 83.448C36.778 83.448 36.328 82.764 36.328 81.702C36.328 80.658 36.778 79.974 37.48 79.974ZM48.442 82.89C46.21 82.89 44.752 84.402 44.752 86.742C44.752 89.1 46.21 90.63 48.442 90.63C50.674 90.63 52.114 89.1 52.114 86.742C52.114 84.402 50.674 82.89 48.442 82.89ZM48.442 85.014C49.144 85.014 49.594 85.698 49.594 86.742C49.594 87.804 49.144 88.488 48.442 88.488C47.74 88.488 47.29 87.804 47.29 86.742C47.29 85.698 47.74 85.014 48.442 85.014Z" fill="white"/>
<path d="M36.688 68.54L32.5817 65.6872L27.1262 73.54H36.688V68.54ZM40.45 68.54V73.54H43.0646L44.5563 71.3927L40.45 68.54ZM49.216 55.922L53.3223 58.7747L58.7778 50.922H49.216V55.922ZM45.454 55.922V50.922H42.8394L41.3477 53.0692L45.454 55.922ZM37.48 50.85C35.1974 50.85 32.9041 51.6509 31.1906 53.4363C29.4961 55.2019 28.79 57.4881 28.79 59.702H38.79C38.79 59.5758 38.8129 59.9361 38.4054 60.3606C38.2161 60.5579 37.9997 60.6936 37.8017 60.7719C37.6098 60.8479 37.4878 60.85 37.48 60.85V50.85ZM28.79 59.702C28.79 61.9136 29.4889 64.2015 31.1733 65.9743C32.8814 67.7719 35.1792 68.59 37.48 68.59V58.59C37.495 58.59 37.6231 58.5934 37.8193 58.6719C38.0213 58.7527 38.2368 58.8906 38.4227 59.0862C38.8201 59.5044 38.79 59.8484 38.79 59.702H28.79ZM37.48 68.59C39.7833 68.59 42.0837 67.7698 43.7897 65.9616C45.4678 64.1831 46.152 61.8968 46.152 59.702H36.152C36.152 59.8652 36.1162 59.5229 36.5163 59.0989C36.7045 58.8994 36.9243 58.7577 37.1319 58.6743C37.3333 58.5934 37.4649 58.59 37.48 58.59V68.59ZM46.152 59.702C46.152 57.5051 45.4607 55.2204 43.7725 53.449C42.061 51.653 39.7649 50.85 37.48 50.85V60.85C37.4722 60.85 37.3466 60.8479 37.1495 60.7696C36.9459 60.6887 36.7252 60.5491 36.5335 60.348C36.1233 59.9175 36.152 59.5589 36.152 59.702H46.152ZM36.688 73.54H40.45V63.54H36.688V73.54ZM44.5563 71.3927L53.3223 58.7747L45.1097 53.0692L36.3437 65.6872L44.5563 71.3927ZM49.216 50.922H45.454V60.922H49.216V50.922ZM41.3477 53.0692L32.5817 65.6872L40.7943 71.3927L49.5603 58.7747L41.3477 53.0692ZM37.48 62.974C36.8146 62.974 36.1159 62.804 35.4773 62.4394C34.8535 62.0833 34.4262 61.6223 34.1542 61.2128C33.6454 60.4467 33.632 59.8173 33.632 59.702H43.632C43.632 58.5427 43.3936 57.0493 42.4843 55.6802C41.4709 54.1543 39.701 52.974 37.48 52.974V62.974ZM33.632 59.702C33.632 59.6103 33.6394 58.9877 34.1448 58.2212C34.4156 57.8103 34.8435 57.3453 35.4708 56.986C36.1129 56.6182 36.8144 56.448 37.48 56.448V66.448C39.7058 66.448 41.4803 65.2624 42.4937 63.7253C43.3996 62.3512 43.632 60.8557 43.632 59.702H33.632ZM37.48 56.448C38.1456 56.448 38.8471 56.6182 39.4892 56.986C40.1165 57.3453 40.5444 57.8103 40.8152 58.2212C41.3206 58.9877 41.328 59.6103 41.328 59.702H31.328C31.328 60.8557 31.5604 62.3512 32.4663 63.7253C33.4797 65.2624 35.2542 66.448 37.48 66.448V56.448ZM41.328 59.702C41.328 59.8173 41.3146 60.4467 40.8058 61.2128C40.5338 61.6223 40.1065 62.0833 39.4827 62.4394C38.8441 62.804 38.1454 62.974 37.48 62.974V52.974C35.259 52.974 33.4891 54.1543 32.4757 55.6802C31.5664 57.0493 31.328 58.5427 31.328 59.702H41.328ZM48.442 55.89C46.1594 55.89 43.8661 56.6909 42.1526 58.4763C40.4581 60.2419 39.752 62.5281 39.752 64.742H49.752C49.752 64.6158 49.7749 64.9761 49.3674 65.4006C49.1781 65.5979 48.9617 65.7336 48.7637 65.8119C48.5718 65.8879 48.4498 65.89 48.442 65.89V55.89ZM39.752 64.742C39.752 66.9536 40.4509 69.2415 42.1353 71.0143C43.8434 72.8119 46.1412 73.63 48.442 73.63V63.63C48.457 63.63 48.5851 63.6334 48.7813 63.7119C48.9833 63.7927 49.1988 63.9306 49.3847 64.1262C49.7821 64.5444 49.752 64.8884 49.752 64.742H39.752ZM48.442 73.63C50.7453 73.63 53.0457 72.8098 54.7517 71.0016C56.4298 69.2231 57.114 66.9368 57.114 64.742H47.114C47.114 64.9052 47.0782 64.5629 47.4783 64.1389C47.6665 63.9394 47.8863 63.7977 48.0939 63.7143C48.2953 63.6334 48.4269 63.63 48.442 63.63V73.63ZM57.114 64.742C57.114 62.5451 56.4227 60.2604 54.7345 58.489C53.023 56.693 50.7269 55.89 48.442 55.89V65.89C48.4342 65.89 48.3086 65.8879 48.1115 65.8096C47.9079 65.7287 47.6872 65.5891 47.4955 65.388C47.0853 64.9575 47.114 64.5989 47.114 64.742H57.114ZM48.442 68.014C47.7766 68.014 47.0779 67.844 46.4393 67.4794C45.8155 67.1233 45.3882 66.6623 45.1162 66.2528C44.6074 65.4867 44.594 64.8573 44.594 64.742H54.594C54.594 63.5827 54.3556 62.0893 53.4463 60.7202C52.4329 59.1943 50.663 58.014 48.442 58.014V68.014ZM44.594 64.742C44.594 64.6503 44.6014 64.0277 45.1068 63.2612C45.3776 62.8503 45.8055 62.3853 46.4328 62.026C47.0749 61.6582 47.7764 61.488 48.442 61.488V71.488C50.6678 71.488 52.4423 70.3024 53.4557 68.7653C54.3616 67.3912 54.594 65.8957 54.594 64.742H44.594ZM48.442 61.488C49.1076 61.488 49.8091 61.6582 50.4512 62.026C51.0785 62.3853 51.5064 62.8503 51.7772 63.2612C52.2826 64.0277 52.29 64.6503 52.29 64.742H42.29C42.29 65.8957 42.5224 67.3912 43.4283 68.7653C44.4417 70.3024 46.2162 71.488 48.442 71.488V61.488ZM52.29 64.742C52.29 64.8573 52.2766 65.4867 51.7678 66.2528C51.4958 66.6623 51.0685 67.1233 50.4447 67.4794C49.8061 67.844 49.1074 68.014 48.442 68.014V58.014C46.221 58.014 44.4511 59.1943 43.4377 60.7202C42.5284 62.0893 42.29 63.5827 42.29 64.742H52.29ZM58.2402 68.54L54.1339 65.6872L48.6784 73.54H58.2402V68.54ZM62.0022 68.54V73.54H64.6168L66.1085 71.3927L62.0022 68.54ZM70.7682 55.922L74.8745 58.7747L80.33 50.922H70.7682V55.922ZM67.0062 55.922V50.922H64.3916L62.8999 53.0692L67.0062 55.922ZM59.0322 50.85C56.7496 50.85 54.4563 51.6509 52.7428 53.4363C51.0483 55.2019 50.3422 57.4881 50.3422 59.702H60.3422C60.3422 59.5758 60.3651 59.9361 59.9576 60.3606C59.7683 60.5579 59.5519 60.6936 59.3539 60.7719C59.1619 60.8479 59.04 60.85 59.0322 60.85V50.85ZM50.3422 59.702C50.3422 61.9136 51.0411 64.2015 52.7255 65.9743C54.4336 67.7719 56.7313 68.59 59.0322 68.59V58.59C59.0472 58.59 59.1753 58.5934 59.3715 58.6719C59.5735 58.7527 59.789 58.8906 59.9749 59.0862C60.3723 59.5044 60.3422 59.8484 60.3422 59.702H50.3422ZM59.0322 68.59C61.3355 68.59 63.6359 67.7698 65.3419 65.9616C67.02 64.1831 67.7042 61.8968 67.7042 59.702H57.7042C57.7042 59.8652 57.6684 59.5229 58.0684 59.0989C58.2567 58.8994 58.4765 58.7577 58.6841 58.6743C58.8855 58.5934 59.0171 58.59 59.0322 58.59V68.59ZM67.7042 59.702C67.7042 57.5051 67.0129 55.2204 65.3247 53.449C63.6131 51.653 61.3171 50.85 59.0322 50.85V60.85C59.0244 60.85 58.8988 60.8479 58.7017 60.7696C58.4981 60.6887 58.2774 60.5491 58.0857 60.348C57.6755 59.9175 57.7042 59.5589 57.7042 59.702H67.7042ZM58.2402 73.54H62.0022V63.54H58.2402V73.54ZM66.1085 71.3927L74.8745 58.7747L66.6619 53.0692L57.8959 65.6872L66.1085 71.3927ZM70.7682 50.922H67.0062V60.922H70.7682V50.922ZM62.8999 53.0692L54.1339 65.6872L62.3465 71.3927L71.1125 58.7747L62.8999 53.0692ZM59.0322 62.974C58.3668 62.974 57.668 62.804 57.0295 62.4394C56.4057 62.0833 55.9784 61.6223 55.7064 61.2128C55.1976 60.4467 55.1842 59.8173 55.1842 59.702H65.1842C65.1842 58.5427 64.9458 57.0493 64.0365 55.6802C63.023 54.1543 61.2532 52.974 59.0322 52.974V62.974ZM55.1842 59.702C55.1842 59.6103 55.1916 58.9877 55.697 58.2212C55.9678 57.8103 56.3957 57.3453 57.023 56.986C57.6651 56.6182 58.3666 56.448 59.0322 56.448V66.448C61.258 66.448 63.0325 65.2624 64.0459 63.7253C64.9518 62.3512 65.1842 60.8557 65.1842 59.702H55.1842ZM59.0322 56.448C59.6977 56.448 60.3993 56.6182 61.0414 56.986C61.6687 57.3453 62.0965 57.8103 62.3674 58.2212C62.8728 58.9877 62.8802 59.6103 62.8802 59.702H52.8802C52.8802 60.8557 53.1126 62.3512 54.0185 63.7253C55.0318 65.2624 56.8064 66.448 59.0322 66.448V56.448ZM62.8802 59.702C62.8802 59.8173 62.8668 60.4467 62.358 61.2128C62.086 61.6223 61.6587 62.0833 61.0349 62.4394C60.3963 62.804 59.6976 62.974 59.0322 62.974V52.974C56.8112 52.974 55.0413 54.1543 54.0279 55.6802C53.1186 57.0493 52.8802 58.5427 52.8802 59.702H62.8802ZM69.9942 55.89C67.7116 55.89 65.4183 56.6909 63.7048 58.4763C62.0103 60.2419 61.3042 62.5281 61.3042 64.742H71.3042C71.3042 64.6158 71.3271 64.9761 70.9196 65.4006C70.7303 65.5979 70.5139 65.7336 70.3159 65.8119C70.1239 65.8879 70.002 65.89 69.9942 65.89V55.89ZM61.3042 64.742C61.3042 66.9536 62.0031 69.2415 63.6875 71.0143C65.3956 72.8119 67.6933 73.63 69.9942 73.63V63.63C70.0092 63.63 70.1373 63.6334 70.3335 63.7119C70.5355 63.7927 70.751 63.9306 70.9369 64.1262C71.3343 64.5444 71.3042 64.8884 71.3042 64.742H61.3042ZM69.9942 73.63C72.2975 73.63 74.5979 72.8098 76.3039 71.0016C77.982 69.2231 78.6662 66.9368 78.6662 64.742H68.6662C68.6662 64.9052 68.6304 64.5629 69.0304 64.1389C69.2187 63.9394 69.4385 63.7977 69.6461 63.7143C69.8475 63.6334 69.9791 63.63 69.9942 63.63V73.63ZM78.6662 64.742C78.6662 62.5451 77.9749 60.2604 76.2867 58.489C74.5751 56.693 72.2791 55.89 69.9942 55.89V65.89C69.9864 65.89 69.8608 65.8879 69.6637 65.8096C69.4601 65.7287 69.2394 65.5891 69.0477 65.388C68.6375 64.9575 68.6662 64.5989 68.6662 64.742H78.6662ZM69.9942 68.014C69.3288 68.014 68.63 67.844 67.9915 67.4794C67.3677 67.1233 66.9404 66.6623 66.6684 66.2528C66.1596 65.4867 66.1462 64.8573 66.1462 64.742H76.1462C76.1462 63.5827 75.9078 62.0893 74.9985 60.7202C73.985 59.1943 72.2152 58.014 69.9942 58.014V68.014ZM66.1462 64.742C66.1462 64.6503 66.1536 64.0277 66.659 63.2612C66.9298 62.8503 67.3577 62.3853 67.985 62.026C68.6271 61.6582 69.3286 61.488 69.9942 61.488V71.488C72.22 71.488 73.9945 70.3024 75.0079 68.7653C75.9138 67.3912 76.1462 65.8957 76.1462 64.742H66.1462ZM69.9942 61.488C70.6597 61.488 71.3613 61.6582 72.0034 62.026C72.6307 62.3853 73.0585 62.8503 73.3294 63.2612C73.8348 64.0277 73.8422 64.6503 73.8422 64.742H63.8422C63.8422 65.8957 64.0746 67.3912 64.9805 68.7653C65.9938 70.3024 67.7684 71.488 69.9942 71.488V61.488ZM73.8422 64.742C73.8422 64.8573 73.8288 65.4867 73.32 66.2528C73.048 66.6623 72.6207 67.1233 71.9969 67.4794C71.3583 67.844 70.6596 68.014 69.9942 68.014V58.014C67.7732 58.014 66.0033 59.1943 64.9899 60.7202C64.0806 62.0893 63.8422 63.5827 63.8422 64.742H73.8422ZM36.688 90.54L32.5817 87.6872L27.1262 95.54H36.688V90.54ZM40.45 90.54V95.54H43.0646L44.5563 93.3927L40.45 90.54ZM49.216 77.922L53.3223 80.7747L58.7778 72.922H49.216V77.922ZM45.454 77.922V72.922H42.8394L41.3477 75.0692L45.454 77.922ZM37.48 72.85C35.1974 72.85 32.9041 73.6509 31.1906 75.4363C29.4961 77.2019 28.79 79.4881 28.79 81.702H38.79C38.79 81.5758 38.8129 81.9361 38.4054 82.3606C38.2161 82.5579 37.9997 82.6936 37.8017 82.7719C37.6098 82.8479 37.4878 82.85 37.48 82.85V72.85ZM28.79 81.702C28.79 83.9136 29.4889 86.2015 31.1733 87.9743C32.8814 89.7719 35.1792 90.59 37.48 90.59V80.59C37.495 80.59 37.6231 80.5934 37.8193 80.6719C38.0213 80.7527 38.2368 80.8906 38.4227 81.0862C38.8201 81.5044 38.79 81.8484 38.79 81.702H28.79ZM37.48 90.59C39.7833 90.59 42.0837 89.7698 43.7897 87.9616C45.4678 86.1831 46.152 83.8968 46.152 81.702H36.152C36.152 81.8652 36.1162 81.5229 36.5163 81.0989C36.7045 80.8994 36.9243 80.7577 37.1319 80.6743C37.3333 80.5934 37.4649 80.59 37.48 80.59V90.59ZM46.152 81.702C46.152 79.5051 45.4607 77.2204 43.7725 75.449C42.061 73.653 39.7649 72.85 37.48 72.85V82.85C37.4722 82.85 37.3466 82.8479 37.1495 82.7696C36.9459 82.6887 36.7252 82.5491 36.5335 82.348C36.1233 81.9175 36.152 81.5589 36.152 81.702H46.152ZM36.688 95.54H40.45V85.54H36.688V95.54ZM44.5563 93.3927L53.3223 80.7747L45.1097 75.0692L36.3437 87.6872L44.5563 93.3927ZM49.216 72.922H45.454V82.922H49.216V72.922ZM41.3477 75.0692L32.5817 87.6872L40.7943 93.3927L49.5603 80.7747L41.3477 75.0692ZM37.48 84.974C36.8146 84.974 36.1159 84.804 35.4773 84.4394C34.8535 84.0833 34.4262 83.6223 34.1542 83.2128C33.6454 82.4467 33.632 81.8173 33.632 81.702H43.632C43.632 80.5427 43.3936 79.0493 42.4843 77.6802C41.4709 76.1543 39.701 74.974 37.48 74.974V84.974ZM33.632 81.702C33.632 81.6103 33.6394 80.9877 34.1448 80.2212C34.4156 79.8103 34.8435 79.3453 35.4708 78.986C36.1129 78.6182 36.8144 78.448 37.48 78.448V88.448C39.7058 88.448 41.4803 87.2624 42.4937 85.7253C43.3996 84.3512 43.632 82.8557 43.632 81.702H33.632ZM37.48 78.448C38.1456 78.448 38.8471 78.6182 39.4892 78.986C40.1165 79.3453 40.5444 79.8103 40.8152 80.2212C41.3206 80.9877 41.328 81.6103 41.328 81.702H31.328C31.328 82.8557 31.5604 84.3512 32.4663 85.7253C33.4797 87.2624 35.2542 88.448 37.48 88.448V78.448ZM41.328 81.702C41.328 81.8173 41.3146 82.4467 40.8058 83.2128C40.5338 83.6223 40.1065 84.0833 39.4827 84.4394C38.8441 84.804 38.1454 84.974 37.48 84.974V74.974C35.259 74.974 33.4891 76.1543 32.4757 77.6802C31.5664 79.0493 31.328 80.5427 31.328 81.702H41.328ZM48.442 77.89C46.1594 77.89 43.8661 78.6909 42.1526 80.4763C40.4581 82.2419 39.752 84.5281 39.752 86.742H49.752C49.752 86.6158 49.7749 86.9761 49.3674 87.4006C49.1781 87.5979 48.9617 87.7336 48.7637 87.8119C48.5718 87.8879 48.4498 87.89 48.442 87.89V77.89ZM39.752 86.742C39.752 88.9536 40.4509 91.2415 42.1353 93.0143C43.8434 94.8119 46.1412 95.63 48.442 95.63V85.63C48.457 85.63 48.5851 85.6334 48.7813 85.7119C48.9833 85.7927 49.1988 85.9306 49.3847 86.1262C49.7821 86.5444 49.752 86.8884 49.752 86.742H39.752ZM48.442 95.63C50.7453 95.63 53.0457 94.8098 54.7517 93.0016C56.4298 91.2231 57.114 88.9368 57.114 86.742H47.114C47.114 86.9052 47.0782 86.5629 47.4783 86.1389C47.6665 85.9394 47.8863 85.7977 48.0939 85.7143C48.2953 85.6334 48.4269 85.63 48.442 85.63V95.63ZM57.114 86.742C57.114 84.5451 56.4227 82.2604 54.7345 80.489C53.023 78.693 50.7269 77.89 48.442 77.89V87.89C48.4342 87.89 48.3086 87.8879 48.1115 87.8096C47.9079 87.7287 47.6872 87.5891 47.4955 87.388C47.0853 86.9575 47.114 86.5989 47.114 86.742H57.114ZM48.442 90.014C47.7766 90.014 47.0779 89.844 46.4393 89.4794C45.8155 89.1233 45.3882 88.6623 45.1162 88.2528C44.6074 87.4867 44.594 86.8573 44.594 86.742H54.594C54.594 85.5827 54.3556 84.0893 53.4463 82.7202C52.4329 81.1943 50.663 80.014 48.442 80.014V90.014ZM44.594 86.742C44.594 86.6503 44.6014 86.0277 45.1068 85.2612C45.3776 84.8503 45.8055 84.3853 46.4328 84.026C47.0749 83.6582 47.7764 83.488 48.442 83.488V93.488C50.6678 93.488 52.4423 92.3024 53.4557 90.7653C54.3616 89.3912 54.594 87.8957 54.594 86.742H44.594ZM48.442 83.488C49.1076 83.488 49.8091 83.6582 50.4512 84.026C51.0785 84.3853 51.5064 84.8503 51.7772 85.2612C52.2826 86.0277 52.29 86.6503 52.29 86.742H42.29C42.29 87.8957 42.5224 89.3912 43.4283 90.7653C44.4417 92.3024 46.2162 93.488 48.442 93.488V83.488ZM52.29 86.742C52.29 86.8573 52.2766 87.4867 51.7678 88.2528C51.4958 88.6623 51.0685 89.1233 50.4447 89.4794C49.8061 89.844 49.1074 90.014 48.442 90.014V80.014C46.221 80.014 44.4511 81.1943 43.4377 82.7202C42.5284 84.0893 42.29 85.5827 42.29 86.742H52.29Z" fill="white"/>
</g>
<path d="M60 105.5C71.3792 105.5 79.6758 100.195 85.0108 91.7396C90.2638 83.4137 92.6 72.139 92.6 60C92.6 47.5097 87.9319 36.2344 81.6531 28.0703C75.4767 20.0393 67.3055 14.5 60 14.5C52.6945 14.5 44.5233 20.0393 38.3469 28.0703C32.0681 36.2344 27.4 47.5097 27.4 60C27.4 72.139 29.7362 83.4137 34.9892 91.7396C40.3242 100.195 48.6208 105.5 60 105.5Z" stroke="white" stroke-width="5"/>
</g>
<path d="M90.1 60C90.1 83.7482 80.9238 103 60 103C39.0762 103 29.9 83.7482 29.9 60C29.9 36.2518 47.6762 17 60 17C72.3238 17 90.1 36.2518 90.1 60Z" fill="#F5064B" stroke="black" stroke-width="3"/>
<mask id="mask1" mask-type="alpha" maskUnits="userSpaceOnUse" x="28" y="15" width="64" height="90">
<path d="M90.1 60C90.1 83.7482 80.9238 103 60 103C39.0762 103 29.9 83.7482 29.9 60C29.9 36.2518 47.6762 17 60 17C72.3238 17 90.1 36.2518 90.1 60Z" fill="white" stroke="black" stroke-width="3"/>
</mask>
<g mask="url(#mask1)">
<mask id="path-16-inside-5" fill="white">
<path fill-rule="evenodd" clip-rule="evenodd" d="M26.1501 23.6967L-10.3366 60.1834L26.1501 96.6701L34.7501 88.0701L43.3501 96.6701L51.9501 88.0701L60.5501 96.6701L69.1501 88.0701L77.7501 96.6701L114.237 60.1834L77.7501 23.6967L69.1501 32.2967L60.5501 23.6967L51.9501 32.2967L43.3501 23.6967L34.7501 32.2967L26.1501 23.6967Z"/>
</mask>
<path d="M-10.3366 60.1834L-11.0437 59.4763L-11.7509 60.1834L-11.0437 60.8905L-10.3366 60.1834ZM26.1501 23.6967L26.8572 22.9895L26.1501 22.2824L25.443 22.9895L26.1501 23.6967ZM26.1501 96.6701L25.443 97.3772L26.1501 98.0843L26.8572 97.3772L26.1501 96.6701ZM34.7501 88.0701L35.4572 87.363L34.7501 86.6559L34.043 87.363L34.7501 88.0701ZM43.3501 96.6701L42.643 97.3772L43.3501 98.0843L44.0572 97.3772L43.3501 96.6701ZM51.9501 88.0701L52.6572 87.363L51.9501 86.6559L51.243 87.363L51.9501 88.0701ZM60.5501 96.6701L59.843 97.3772L60.5501 98.0843L61.2572 97.3772L60.5501 96.6701ZM69.1501 88.0701L69.8572 87.363L69.1501 86.6559L68.443 87.363L69.1501 88.0701ZM77.7501 96.6701L77.043 97.3772L77.7501 98.0843L78.4572 97.3772L77.7501 96.6701ZM114.237 60.1834L114.944 60.8905L115.651 60.1834L114.944 59.4763L114.237 60.1834ZM77.7501 23.6967L78.4572 22.9895L77.7501 22.2824L77.043 22.9895L77.7501 23.6967ZM69.1501 32.2967L68.443 33.0038L69.1501 33.7109L69.8572 33.0038L69.1501 32.2967ZM60.5501 23.6967L61.2572 22.9895L60.5501 22.2824L59.843 22.9895L60.5501 23.6967ZM51.9501 32.2967L51.243 33.0038L51.9501 33.7109L52.6572 33.0038L51.9501 32.2967ZM43.3501 23.6967L44.0572 22.9895L43.3501 22.2824L42.643 22.9895L43.3501 23.6967ZM34.7501 32.2967L34.043 33.0038L34.7501 33.7109L35.4572 33.0038L34.7501 32.2967ZM-9.62953 60.8905L26.8572 24.4038L25.443 22.9895L-11.0437 59.4763L-9.62953 60.8905ZM26.8572 95.963L-9.62953 59.4763L-11.0437 60.8905L25.443 97.3772L26.8572 95.963ZM34.043 87.363L25.443 95.963L26.8572 97.3772L35.4572 88.7772L34.043 87.363ZM44.0572 95.963L35.4572 87.363L34.043 88.7772L42.643 97.3772L44.0572 95.963ZM51.243 87.363L42.643 95.963L44.0572 97.3772L52.6572 88.7772L51.243 87.363ZM61.2572 95.963L52.6572 87.363L51.243 88.7772L59.843 97.3772L61.2572 95.963ZM68.443 87.363L59.843 95.963L61.2572 97.3772L69.8572 88.7772L68.443 87.363ZM78.4572 95.963L69.8572 87.363L68.443 88.7772L77.043 97.3772L78.4572 95.963ZM113.53 59.4763L77.043 95.963L78.4572 97.3772L114.944 60.8905L113.53 59.4763ZM77.043 24.4038L113.53 60.8905L114.944 59.4763L78.4572 22.9895L77.043 24.4038ZM69.8572 33.0038L78.4572 24.4038L77.043 22.9895L68.443 31.5896L69.8572 33.0038ZM59.843 24.4038L68.443 33.0038L69.8572 31.5896L61.2572 22.9895L59.843 24.4038ZM52.6572 33.0038L61.2572 24.4038L59.843 22.9895L51.243 31.5895L52.6572 33.0038ZM42.643 24.4038L51.243 33.0038L52.6572 31.5895L44.0572 22.9895L42.643 24.4038ZM35.4572 33.0038L44.0572 24.4038L42.643 22.9895L34.043 31.5895L35.4572 33.0038ZM25.443 24.4038L34.043 33.0038L35.4572 31.5895L26.8572 22.9895L25.443 24.4038Z" fill="white" mask="url(#path-16-inside-5)"/>
<mask id="path-18-inside-6" fill="white">
<path fill-rule="evenodd" clip-rule="evenodd" d="M25.7834 31.4366L-2.96335 60.1834L25.7834 88.9301L34.3834 80.3301L42.9834 88.9301L51.5834 80.3301L60.1834 88.9301L68.7834 80.3301L77.3834 88.9301L106.13 60.1834L77.3834 31.4366L68.7834 40.0366L60.1834 31.4366L51.5834 40.0366L42.9834 31.4366L34.3834 40.0366L25.7834 31.4366Z"/>
</mask>
<path d="M-2.96335 60.1834L-3.67046 59.4762L-4.37756 60.1834L-3.67046 60.8905L-2.96335 60.1834ZM25.7834 31.4366L26.4905 30.7295L25.7834 30.0224L25.0762 30.7295L25.7834 31.4366ZM25.7834 88.9301L25.0762 89.6372L25.7834 90.3443L26.4905 89.6372L25.7834 88.9301ZM34.3834 80.3301L35.0905 79.6229L34.3834 78.9158L33.6762 79.6229L34.3834 80.3301ZM42.9834 88.9301L42.2762 89.6372L42.9834 90.3443L43.6905 89.6372L42.9834 88.9301ZM51.5834 80.3301L52.2905 79.623L51.5834 78.9158L50.8762 79.623L51.5834 80.3301ZM60.1834 88.9301L59.4762 89.6372L60.1834 90.3443L60.8905 89.6372L60.1834 88.9301ZM68.7834 80.3301L69.4905 79.6229L68.7834 78.9158L68.0762 79.6229L68.7834 80.3301ZM77.3834 88.9301L76.6763 89.6372L77.3834 90.3443L78.0905 89.6372L77.3834 88.9301ZM106.13 60.1834L106.837 60.8905L107.544 60.1834L106.837 59.4762L106.13 60.1834ZM77.3834 31.4366L78.0905 30.7295L77.3834 30.0224L76.6763 30.7295L77.3834 31.4366ZM68.7834 40.0366L68.0762 40.7438L68.7834 41.4509L69.4905 40.7438L68.7834 40.0366ZM60.1834 31.4366L60.8905 30.7295L60.1834 30.0224L59.4762 30.7295L60.1834 31.4366ZM51.5834 40.0366L50.8762 40.7438L51.5834 41.4509L52.2905 40.7438L51.5834 40.0366ZM42.9834 31.4366L43.6905 30.7295L42.9834 30.0224L42.2762 30.7295L42.9834 31.4366ZM34.3834 40.0366L33.6762 40.7438L34.3834 41.4509L35.0905 40.7438L34.3834 40.0366ZM-2.25624 60.8905L26.4905 32.1438L25.0762 30.7295L-3.67046 59.4762L-2.25624 60.8905ZM26.4905 88.2229L-2.25624 59.4762L-3.67046 60.8905L25.0762 89.6372L26.4905 88.2229ZM33.6762 79.6229L25.0762 88.2229L26.4905 89.6372L35.0905 81.0372L33.6762 79.6229ZM43.6905 88.2229L35.0905 79.6229L33.6762 81.0372L42.2762 89.6372L43.6905 88.2229ZM50.8762 79.623L42.2762 88.2229L43.6905 89.6372L52.2905 81.0372L50.8762 79.623ZM60.8905 88.2229L52.2905 79.623L50.8762 81.0372L59.4762 89.6372L60.8905 88.2229ZM68.0762 79.6229L59.4762 88.2229L60.8905 89.6372L69.4905 81.0372L68.0762 79.6229ZM78.0905 88.2229L69.4905 79.6229L68.0762 81.0372L76.6763 89.6372L78.0905 88.2229ZM105.423 59.4762L76.6763 88.2229L78.0905 89.6372L106.837 60.8905L105.423 59.4762ZM76.6763 32.1438L105.423 60.8905L106.837 59.4762L78.0905 30.7295L76.6763 32.1438ZM69.4905 40.7438L78.0905 32.1438L76.6763 30.7295L68.0762 39.3295L69.4905 40.7438ZM59.4762 32.1438L68.0762 40.7438L69.4905 39.3295L60.8905 30.7295L59.4762 32.1438ZM52.2905 40.7438L60.8905 32.1438L59.4762 30.7295L50.8762 39.3295L52.2905 40.7438ZM42.2762 32.1438L50.8762 40.7438L52.2905 39.3295L43.6905 30.7295L42.2762 32.1438ZM35.0905 40.7438L43.6905 32.1438L42.2762 30.7295L33.6762 39.3295L35.0905 40.7438ZM25.0762 32.1438L33.6762 40.7438L35.0905 39.3295L26.4905 30.7295L25.0762 32.1438Z" fill="white" mask="url(#path-18-inside-6)"/>
<path fill-rule="evenodd" clip-rule="evenodd" d="M25.7834 36.9634L2.56336 60.1834L25.7834 83.4034L34.3834 74.8034L42.9834 83.4034L51.5834 74.8034L60.1834 83.4034L68.7834 74.8034L77.3834 83.4034L85.9834 74.8034L94.5834 83.4034L117.803 60.1834L94.5834 36.9634L85.9834 45.5634L77.3834 36.9634L68.7834 45.5634L60.1834 36.9634L51.5834 45.5634L42.9834 36.9634L34.3834 45.5634L25.7834 36.9634Z" fill="white"/>
<path fill-rule="evenodd" clip-rule="evenodd" d="M7.54 60.1834L25.7834 41.94L34.3834 50.54L42.9834 41.94L51.5834 50.54L60.1834 41.94L68.7834 50.54L77.3834 41.94L85.9834 50.54L94.5834 41.94L112.827 60.1834L94.5834 78.4267L85.9834 69.8267L77.3834 78.4267L68.7834 69.8267L60.1834 78.4267L51.5834 69.8267L42.9834 78.4267L34.3834 69.8267L25.7834 78.4267L7.54 60.1834Z" fill="#F5064B"/>
<path d="M39.4087 55.67C37.6727 55.67 36.5387 56.846 36.5387 58.666C36.5387 60.5 37.6727 61.69 39.4087 61.69C41.1447 61.69 42.2647 60.5 42.2647 58.666C42.2647 56.846 41.1447 55.67 39.4087 55.67ZM38.7927 65.54H41.7187L48.5367 55.726H45.6107L38.7927 65.54ZM39.4087 57.322C39.9547 57.322 40.3047 57.854 40.3047 58.666C40.3047 59.492 39.9547 60.024 39.4087 60.024C38.8627 60.024 38.5127 59.492 38.5127 58.666C38.5127 57.854 38.8627 57.322 39.4087 57.322ZM47.9347 59.59C46.1987 59.59 45.0647 60.766 45.0647 62.586C45.0647 64.42 46.1987 65.61 47.9347 65.61C49.6707 65.61 50.7907 64.42 50.7907 62.586C50.7907 60.766 49.6707 59.59 47.9347 59.59ZM47.9347 61.242C48.4807 61.242 48.8307 61.774 48.8307 62.586C48.8307 63.412 48.4807 63.944 47.9347 63.944C47.3887 63.944 47.0387 63.412 47.0387 62.586C47.0387 61.774 47.3887 61.242 47.9347 61.242ZM56.1715 55.67C54.4355 55.67 53.3015 56.846 53.3015 58.666C53.3015 60.5 54.4355 61.69 56.1715 61.69C57.9075 61.69 59.0275 60.5 59.0275 58.666C59.0275 56.846 57.9075 55.67 56.1715 55.67ZM55.5555 65.54H58.4815L65.2995 55.726H62.3735L55.5555 65.54ZM56.1715 57.322C56.7175 57.322 57.0675 57.854 57.0675 58.666C57.0675 59.492 56.7175 60.024 56.1715 60.024C55.6255 60.024 55.2755 59.492 55.2755 58.666C55.2755 57.854 55.6255 57.322 56.1715 57.322ZM64.6975 59.59C62.9615 59.59 61.8275 60.766 61.8275 62.586C61.8275 64.42 62.9615 65.61 64.6975 65.61C66.4335 65.61 67.5535 64.42 67.5535 62.586C67.5535 60.766 66.4335 59.59 64.6975 59.59ZM64.6975 61.242C65.2435 61.242 65.5935 61.774 65.5935 62.586C65.5935 63.412 65.2435 63.944 64.6975 63.944C64.1515 63.944 63.8015 63.412 63.8015 62.586C63.8015 61.774 64.1515 61.242 64.6975 61.242ZM72.9343 55.67C71.1983 55.67 70.0643 56.846 70.0643 58.666C70.0643 60.5 71.1983 61.69 72.9343 61.69C74.6703 61.69 75.7903 60.5 75.7903 58.666C75.7903 56.846 74.6703 55.67 72.9343 55.67ZM72.3183 65.54H75.2443L82.0623 55.726H79.1363L72.3183 65.54ZM72.9343 57.322C73.4803 57.322 73.8303 57.854 73.8303 58.666C73.8303 59.492 73.4803 60.024 72.9343 60.024C72.3883 60.024 72.0383 59.492 72.0383 58.666C72.0383 57.854 72.3883 57.322 72.9343 57.322ZM81.4603 59.59C79.7243 59.59 78.5903 60.766 78.5903 62.586C78.5903 64.42 79.7243 65.61 81.4603 65.61C83.1963 65.61 84.3163 64.42 84.3163 62.586C84.3163 60.766 83.1963 59.59 81.4603 59.59ZM81.4603 61.242C82.0063 61.242 82.3563 61.774 82.3563 62.586C82.3563 63.412 82.0063 63.944 81.4603 63.944C80.9143 63.944 80.5643 63.412 80.5643 62.586C80.5643 61.774 80.9143 61.242 81.4603 61.242Z" fill="white"/>
</g>
<path d="M90.1 60C90.1 83.7482 80.9238 103 60 103C39.0762 103 29.9 83.7482 29.9 60C29.9 36.2518 47.6762 17 60 17C72.3238 17 90.1 36.2518 90.1 60Z" stroke="black" stroke-width="3"/>
<defs>
<filter id="filter0_d" x="14.9" y="2" width="90.2" height="116" filterUnits="userSpaceOnUse" color-interpolation-filters="sRGB">
<feFlood flood-opacity="0" result="BackgroundImageFix"/>
<feColorMatrix in="SourceAlpha" type="matrix" values="0 0 0 0 0 0 0 0 0 0 0 0 0 0 0 0 0 0 127 0"/>
<feOffset/>
<feGaussianBlur stdDeviation="5"/>
<feColorMatrix type="matrix" values="0 0 0 0 0 0 0 0 0 0 0 0 0 0 0 0 0 0 0.25 0"/>
<feBlend mode="normal" in2="BackgroundImageFix" result="effect1_dropShadow"/>
<feBlend mode="normal" in="SourceGraphic" in2="effect1_dropShadow" result="shape"/>
</filter>
</defs>
</svg>
