<svg width="120" height="120" viewBox="0 0 120 120" fill="none" xmlns="http://www.w3.org/2000/svg">
<g filter="url(#filter0_d)">
<mask id="path-1-outside-1" maskUnits="userSpaceOnUse" x="10.1008" y="11" width="100" height="97" fill="black">
<rect fill="white" x="10.1008" y="11" width="100" height="97"/>
<path fill-rule="evenodd" clip-rule="evenodd" d="M45.1553 48.3926C47.0177 39.6684 44.3754 26.3701 24.0373 18C20.9541 25.832 20.4385 43.7357 42.7033 53.2407C42.2441 54.728 41.998 56.2999 41.998 57.9255C41.998 58.2828 42.0099 58.6376 42.0334 58.9894C38.172 63.0264 35.6155 68.3579 35.0554 74.2816L16.5017 71.7796L16.1008 74.7527L34.9451 77.2939C34.9558 77.8154 34.982 78.3329 35.0232 78.8462H17.9584V81.8462H35.4415C35.5514 82.3963 35.6788 82.9399 35.823 83.4765L21.2173 86.6547L21.8552 89.5861L36.7766 86.3392C40.5076 95.6634 49.5162 102.238 60.0367 102.238C70.5777 102.238 79.601 95.6377 83.3186 86.2845L98.4915 89.5861L99.1294 86.6547L84.2654 83.4203C84.4035 82.902 84.5258 82.3771 84.6319 81.8462H102.388V78.8462H85.0501C85.0903 78.3451 85.1163 77.8398 85.1275 77.3309L104.246 74.7527L103.845 71.7796L85.0213 74.318C84.4683 68.3798 81.9093 63.0347 78.04 58.9894C78.0634 58.6376 78.0753 58.2828 78.0753 57.9255C78.0753 56.2898 77.8262 54.7085 77.3614 53.213C99.5605 43.7009 99.0429 25.8244 95.9626 18C75.7315 26.3261 73.0105 39.5288 74.8158 48.2548C71.5533 43.9061 66.1501 41.0632 60.0367 41.0632C53.8589 41.0632 48.4064 43.9663 45.1553 48.3926Z"/>
</mask>
<path fill-rule="evenodd" clip-rule="evenodd" d="M45.1553 48.3926C47.0177 39.6684 44.3754 26.3701 24.0373 18C20.9541 25.832 20.4385 43.7357 42.7033 53.2407C42.2441 54.728 41.998 56.2999 41.998 57.9255C41.998 58.2828 42.0099 58.6376 42.0334 58.9894C38.172 63.0264 35.6155 68.3579 35.0554 74.2816L16.5017 71.7796L16.1008 74.7527L34.9451 77.2939C34.9558 77.8154 34.982 78.3329 35.0232 78.8462H17.9584V81.8462H35.4415C35.5514 82.3963 35.6788 82.9399 35.823 83.4765L21.2173 86.6547L21.8552 89.5861L36.7766 86.3392C40.5076 95.6634 49.5162 102.238 60.0367 102.238C70.5777 102.238 79.601 95.6377 83.3186 86.2845L98.4915 89.5861L99.1294 86.6547L84.2654 83.4203C84.4035 82.902 84.5258 82.3771 84.6319 81.8462H102.388V78.8462H85.0501C85.0903 78.3451 85.1163 77.8398 85.1275 77.3309L104.246 74.7527L103.845 71.7796L85.0213 74.318C84.4683 68.3798 81.9093 63.0347 78.04 58.9894C78.0634 58.6376 78.0753 58.2828 78.0753 57.9255C78.0753 56.2898 77.8262 54.7085 77.3614 53.213C99.5605 43.7009 99.0429 25.8244 95.9626 18C75.7315 26.3261 73.0105 39.5288 74.8158 48.2548C71.5533 43.9061 66.1501 41.0632 60.0367 41.0632C53.8589 41.0632 48.4064 43.9663 45.1553 48.3926Z" fill="#F5064B"/>
<path d="M24.0373 18L25.9402 13.3763L21.2448 11.4439L19.3849 16.1685L24.0373 18ZM45.1553 48.3926L40.2654 47.3487L49.185 51.3525L45.1553 48.3926ZM42.7033 53.2407L47.4808 54.7157L48.8099 50.411L44.6665 48.6422L42.7033 53.2407ZM42.0334 58.9894L45.6466 62.4454L47.1686 60.8542L47.0223 58.6571L42.0334 58.9894ZM35.0554 74.2816L34.3872 79.2368L39.5435 79.9321L40.0332 74.7523L35.0554 74.2816ZM16.5017 71.7796L17.1699 66.8244L12.2148 66.1562L11.5465 71.1114L16.5017 71.7796ZM16.1008 74.7527L11.1456 74.0844L10.4774 79.0396L15.4325 79.7078L16.1008 74.7527ZM34.9451 77.2939L39.944 77.1906L39.8555 72.9109L35.6133 72.3388L34.9451 77.2939ZM35.0232 78.8462V83.8462H40.4403L40.0072 78.4465L35.0232 78.8462ZM17.9584 78.8462V73.8462H12.9584V78.8462H17.9584ZM17.9584 81.8462H12.9584V86.8462H17.9584V81.8462ZM35.4415 81.8462L40.3445 80.8663L39.541 76.8462H35.4415V81.8462ZM35.823 83.4765L36.8861 88.3622L42.0136 87.2465L40.6516 82.1788L35.823 83.4765ZM21.2173 86.6547L20.1542 81.769L15.2686 82.8321L16.3317 87.7178L21.2173 86.6547ZM21.8552 89.5861L16.9695 90.6492L18.0327 95.5348L22.9183 94.4717L21.8552 89.5861ZM36.7766 86.3392L41.4188 84.4817L39.8472 80.554L35.7135 81.4535L36.7766 86.3392ZM83.3186 86.2845L84.3817 81.3988L80.2383 80.4972L78.6721 84.4377L83.3186 86.2845ZM98.4915 89.5861L97.4284 94.4717L102.314 95.5348L103.377 90.6492L98.4915 89.5861ZM99.1294 86.6547L104.015 87.7178L105.078 82.8321L100.193 81.769L99.1294 86.6547ZM84.2654 83.4203L79.4338 82.1335L78.0864 87.1928L83.2023 88.306L84.2654 83.4203ZM84.6319 81.8462V76.8462H80.5323L79.7289 80.8663L84.6319 81.8462ZM102.388 81.8462V86.8462H107.388V81.8462H102.388ZM102.388 78.8462H107.388V73.8462H102.388V78.8462ZM85.0501 78.8462L80.0661 78.4465L79.633 83.8462H85.0501V78.8462ZM85.1275 77.3309L84.4593 72.3757L80.2231 72.947L80.1287 77.2205L85.1275 77.3309ZM104.246 74.7527L104.914 79.7078L109.869 79.0396L109.201 74.0844L104.246 74.7527ZM103.845 71.7796L108.8 71.1114L108.132 66.1562L103.177 66.8244L103.845 71.7796ZM85.0213 74.318L80.0429 74.7817L80.526 79.9695L85.6895 79.2732L85.0213 74.318ZM78.04 58.9894L73.0511 58.6571L72.9047 60.8542L74.4267 62.4455L78.04 58.9894ZM77.3614 53.213L75.3922 48.6171L71.2491 50.3924L72.5867 54.6967L77.3614 53.213ZM95.9626 18L100.615 16.1685L98.7552 11.4439L94.0597 13.3763L95.9626 18ZM74.8158 48.2548L70.8162 51.2553L79.7121 47.2418L74.8158 48.2548ZM22.1345 22.6237C31.5025 26.4792 36.2287 31.2224 38.529 35.4523C40.838 39.6982 40.9904 43.9528 40.2654 47.3487L50.0451 49.4365C51.1826 44.1082 50.945 37.3516 47.314 30.6748C43.6742 23.9819 36.9102 17.8909 25.9402 13.3763L22.1345 22.6237ZM44.6665 48.6422C34.6972 44.3863 30.3598 38.54 28.5965 33.377C26.7616 28.0045 27.5215 22.7993 28.6898 19.8315L19.3849 16.1685C17.4699 21.0328 16.4304 28.6954 19.1331 36.609C21.9074 44.7321 28.4446 52.5901 40.7402 57.8392L44.6665 48.6422ZM46.998 57.9255C46.998 56.8078 47.1668 55.7329 47.4808 54.7157L37.9259 51.7656C37.3215 53.7232 36.998 55.792 36.998 57.9255H46.998ZM47.0223 58.6571C47.0062 58.4158 46.998 58.1718 46.998 57.9255H36.998C36.998 58.3938 37.0136 58.8594 37.0444 59.3217L47.0223 58.6571ZM40.0332 74.7523C40.4846 69.9791 42.5419 65.6914 45.6466 62.4454L38.4201 55.5334C33.8021 60.3615 30.7465 66.7368 30.0776 73.811L40.0332 74.7523ZM15.8335 76.7347L34.3872 79.2368L35.7237 69.3265L17.1699 66.8244L15.8335 76.7347ZM21.0559 75.4209L21.4568 72.4478L11.5465 71.1114L11.1456 74.0844L21.0559 75.4209ZM35.6133 72.3388L16.769 69.7975L15.4325 79.7078L34.2768 82.2491L35.6133 72.3388ZM40.0072 78.4465C39.9739 78.0317 39.9527 77.613 39.944 77.1906L29.9461 77.3973C29.959 78.0177 29.9901 78.6342 30.0392 79.246L40.0072 78.4465ZM17.9584 83.8462H35.0232V73.8462H17.9584V83.8462ZM22.9584 81.8462V78.8462H12.9584V81.8462H22.9584ZM35.4415 76.8462H17.9584V86.8462H35.4415V76.8462ZM40.6516 82.1788C40.5356 81.747 40.433 81.3093 40.3445 80.8663L30.5384 82.8262C30.6697 83.4833 30.822 84.1329 30.9943 84.7742L40.6516 82.1788ZM22.2805 91.5403L36.8861 88.3622L34.7599 78.5908L20.1542 81.769L22.2805 91.5403ZM26.7409 88.523L26.103 85.5915L16.3317 87.7178L16.9695 90.6492L26.7409 88.523ZM35.7135 81.4535L20.7921 84.7004L22.9183 94.4717L37.8397 91.2249L35.7135 81.4535ZM60.0367 97.2378C51.6661 97.2378 44.4303 92.0079 41.4188 84.4817L32.1345 88.1967C36.5849 99.319 47.3663 107.238 60.0367 107.238V97.2378ZM78.6721 84.4377C75.6714 91.9873 68.4236 97.2378 60.0367 97.2378V107.238C72.7319 107.238 83.5305 99.2881 87.965 88.1313L78.6721 84.4377ZM99.5546 84.7004L84.3817 81.3988L82.2554 91.1701L97.4284 94.4717L99.5546 84.7004ZM94.2437 85.5915L93.6059 88.5229L103.377 90.6492L104.015 87.7178L94.2437 85.5915ZM83.2023 88.306L98.0663 91.5403L100.193 81.769L85.3285 78.5346L83.2023 88.306ZM79.7289 80.8663C79.6434 81.2939 79.5449 81.7165 79.4338 82.1335L89.097 84.707C89.262 84.0875 89.4082 83.4603 89.5349 82.8262L79.7289 80.8663ZM102.388 76.8462H84.6319V86.8462H102.388V76.8462ZM97.3883 78.8462V81.8462H107.388V78.8462H97.3883ZM85.0501 83.8462H102.388V73.8462H85.0501V83.8462ZM80.1287 77.2205C80.1196 77.6328 80.0986 78.0416 80.0661 78.4465L90.0341 79.246C90.0821 78.6486 90.1129 78.0468 90.1263 77.4413L80.1287 77.2205ZM103.578 69.7975L84.4593 72.3757L85.7957 82.286L104.914 79.7078L103.578 69.7975ZM98.8899 72.4478L99.2908 75.4209L109.201 74.0844L108.8 71.1114L98.8899 72.4478ZM85.6895 79.2732L104.513 76.7347L103.177 66.8244L84.3531 69.3629L85.6895 79.2732ZM74.4267 62.4455C77.5378 65.6981 79.5972 69.9966 80.0429 74.7817L89.9998 73.8544C89.3393 66.7629 86.2808 60.3714 81.6533 55.5334L74.4267 62.4455ZM73.0753 57.9255C73.0753 58.1718 73.0671 58.4158 73.0511 58.6571L83.0289 59.3217C83.0597 58.8594 83.0753 58.3938 83.0753 57.9255H73.0753ZM72.5867 54.6967C72.9045 55.7195 73.0753 56.8009 73.0753 57.9255H83.0753C83.0753 55.7787 82.7479 53.6975 82.1362 51.7292L72.5867 54.6967ZM91.3102 19.8315C92.4773 22.7962 93.237 27.9943 91.4088 33.3615C89.6519 38.5195 85.3285 44.3595 75.3922 48.6171L79.3307 57.8088C91.5934 52.5544 98.1108 44.7002 100.875 36.5858C103.567 28.6806 102.528 21.0282 100.615 16.1685L91.3102 19.8315ZM79.7121 47.2418C79.0095 43.8457 79.1875 39.6096 81.5081 35.3844C83.821 31.1731 88.5462 26.4591 97.8655 22.6237L94.0597 13.3763C83.1479 17.867 76.397 23.9174 72.743 30.5705C69.0966 37.2097 68.8168 43.9379 69.9194 49.2677L79.7121 47.2418ZM60.0367 46.0632C64.5929 46.0632 68.5077 48.1783 70.8162 51.2553L78.8153 45.2542C74.5988 39.6339 67.7074 36.0632 60.0367 36.0632V46.0632ZM49.185 51.3525C51.4834 48.2233 55.4321 46.0632 60.0367 46.0632V36.0632C52.2856 36.0632 45.3293 39.7093 41.1255 45.4328L49.185 51.3525Z" fill="white" mask="url(#path-1-outside-1)"/>
</g>
<path d="M76.6526 53.5106C72.6937 45.952 71.0134 28.2678 95.9626 18C99.0753 25.9068 99.5711 44.0785 76.6526 53.5106Z" fill="white" stroke="black" stroke-width="3"/>
<path d="M77.2122 52.0614C74.4518 46.791 73.2801 34.4602 90.6767 27.3006C92.8471 32.8139 93.1928 45.4846 77.2122 52.0614Z" fill="#F2D1C9"/>
<path d="M43.3474 53.5106C47.3063 45.952 48.9866 28.2678 24.0373 18C20.9246 25.9068 20.4289 44.0785 43.3474 53.5106Z" fill="white" stroke="black" stroke-width="3"/>
<path d="M42.7878 52.0614C45.5482 46.791 46.7199 34.4602 29.3233 27.3006C27.1528 32.8139 26.8072 45.4846 42.7878 52.0614Z" fill="#F2D1C9"/>
<path fill-rule="evenodd" clip-rule="evenodd" d="M78.04 58.9894C78.0634 58.6376 78.0753 58.2828 78.0753 57.9254C78.0753 48.6127 69.9991 41.0632 60.0367 41.0632C50.0742 41.0632 41.998 48.6127 41.998 57.9254C41.998 58.2828 42.0099 58.6376 42.0334 58.9894C37.6428 63.5796 34.9394 69.8434 34.9394 76.7484C34.9394 90.8258 46.1758 102.238 60.0367 102.238C73.8975 102.238 85.1339 90.8258 85.1339 76.7484C85.1339 69.8434 82.4305 63.5796 78.04 58.9894Z" fill="white"/>
<path d="M78.04 58.9894L76.5433 58.8897L76.4994 59.5488L76.956 60.0262L78.04 58.9894ZM42.0334 58.9894L43.1173 60.0262L43.5739 59.5488L43.53 58.8897L42.0334 58.9894ZM76.5753 57.9254C76.5753 58.2495 76.5645 58.571 76.5433 58.8897L79.5367 59.0891C79.5623 58.7041 79.5753 58.3161 79.5753 57.9254H76.5753ZM60.0367 42.5632C69.2676 42.5632 76.5753 49.5348 76.5753 57.9254H79.5753C79.5753 47.6906 70.7307 39.5632 60.0367 39.5632V42.5632ZM43.498 57.9254C43.498 49.5348 50.8057 42.5632 60.0367 42.5632V39.5632C49.3427 39.5632 40.498 47.6906 40.498 57.9254H43.498ZM43.53 58.8897C43.5088 58.571 43.498 58.2495 43.498 57.9254H40.498C40.498 58.3161 40.511 58.7041 40.5367 59.0891L43.53 58.8897ZM36.4394 76.7484C36.4394 70.2418 38.9853 64.3462 43.1173 60.0262L40.9494 57.9526C36.3004 62.8131 33.4394 69.445 33.4394 76.7484H36.4394ZM60.0367 100.738C47.0261 100.738 36.4394 90.0194 36.4394 76.7484H33.4394C33.4394 91.6322 45.3256 103.738 60.0367 103.738V100.738ZM83.6339 76.7484C83.6339 90.0194 73.0472 100.738 60.0367 100.738V103.738C74.7478 103.738 86.6339 91.6322 86.6339 76.7484H83.6339ZM76.956 60.0262C81.088 64.3462 83.6339 70.2418 83.6339 76.7484H86.6339C86.6339 69.445 83.773 62.8131 79.124 57.9526L76.956 60.0262Z" fill="black"/>
<path d="M54.5467 63.0234C54.5467 62.4054 54.4249 61.7935 54.1885 61.2226C53.952 60.6516 53.6054 60.1329 53.1684 59.6959C52.7314 59.2589 52.2127 58.9123 51.6417 58.6758C51.0708 58.4393 50.4589 58.3176 49.8409 58.3176C49.223 58.3176 48.611 58.4393 48.0401 58.6758C47.4692 58.9123 46.9504 59.2589 46.5135 59.6959C46.0765 60.1329 45.7299 60.6516 45.4934 61.2226C45.2569 61.7935 45.1352 62.4054 45.1352 63.0234L47.0175 63.0234C47.0175 62.6526 47.0905 62.2854 47.2324 61.9429C47.3743 61.6003 47.5823 61.2891 47.8445 61.0269C48.1066 60.7647 48.4179 60.5567 48.7604 60.4148C49.103 60.273 49.4701 60.1999 49.8409 60.1999C50.2117 60.1999 50.5789 60.273 50.9214 60.4148C51.264 60.5567 51.5752 60.7647 51.8374 61.0269C52.0996 61.2891 52.3076 61.6003 52.4494 61.9429C52.5913 62.2854 52.6644 62.6526 52.6644 63.0234H54.5467Z" fill="black"/>
<path d="M74.9382 63.0234C74.9382 62.4054 74.8165 61.7935 74.58 61.2226C74.3435 60.6516 73.9969 60.1329 73.5599 59.6959C73.1229 59.2589 72.6042 58.9123 72.0332 58.6758C71.4623 58.4393 70.8504 58.3176 70.2324 58.3176C69.6145 58.3176 69.0026 58.4393 68.4316 58.6758C67.8607 58.9123 67.3419 59.2589 66.905 59.6959C66.468 60.1329 66.1214 60.6516 65.8849 61.2226C65.6484 61.7935 65.5267 62.4054 65.5267 63.0234L67.409 63.0234C67.409 62.6526 67.482 62.2854 67.6239 61.9429C67.7658 61.6003 67.9738 61.2891 68.236 61.0269C68.4981 60.7647 68.8094 60.5567 69.152 60.4148C69.4945 60.273 69.8617 60.1999 70.2324 60.1999C70.6032 60.1999 70.9704 60.273 71.3129 60.4148C71.6555 60.5567 71.9667 60.7647 72.2289 61.0269C72.4911 61.2891 72.6991 61.6003 72.841 61.9429C72.9828 62.2854 73.0559 62.6526 73.0559 63.0234H74.9382Z" fill="black"/>
<rect x="53.7624" y="85.7677" width="6.27431" height="10.98" fill="white" stroke="black" stroke-width="3"/>
<rect x="60.0367" y="85.7677" width="6.27431" height="10.98" fill="white" stroke="black" stroke-width="3"/>
<path fill-rule="evenodd" clip-rule="evenodd" d="M60.0367 86.199C58.4638 87.8651 56.2345 88.9049 53.7624 88.9049C48.9977 88.9049 45.1352 85.0424 45.1352 80.2777C45.1352 75.513 48.9977 71.6505 53.7624 71.6505C56.2345 71.6505 58.4638 72.6903 60.0367 74.3564C61.6096 72.6903 63.8389 71.6505 66.311 71.6505C71.0757 71.6505 74.9382 75.513 74.9382 80.2777C74.9382 85.0424 71.0757 88.9049 66.311 88.9049C63.8389 88.9049 61.6096 87.8651 60.0367 86.199Z" fill="#F2D1C9"/>
<path d="M60.0367 86.199L61.1274 85.1693L60.0367 84.0139L58.946 85.1693L60.0367 86.199ZM60.0367 74.3564L58.946 75.3861L60.0367 76.5415L61.1274 75.3861L60.0367 74.3564ZM58.946 85.1693C57.6446 86.5477 55.8048 87.4049 53.7624 87.4049V90.4049C56.6642 90.4049 59.2829 89.1824 61.1274 87.2287L58.946 85.1693ZM53.7624 87.4049C49.8261 87.4049 46.6352 84.2139 46.6352 80.2777H43.6352C43.6352 85.8708 48.1693 90.4049 53.7624 90.4049V87.4049ZM46.6352 80.2777C46.6352 76.3415 49.8261 73.1505 53.7624 73.1505V70.1505C48.1693 70.1505 43.6352 74.6846 43.6352 80.2777H46.6352ZM53.7624 73.1505C55.8048 73.1505 57.6446 74.0077 58.946 75.3861L61.1274 73.3267C59.2829 71.3729 56.6642 70.1505 53.7624 70.1505V73.1505ZM61.1274 75.3861C62.4288 74.0077 64.2686 73.1505 66.311 73.1505V70.1505C63.4092 70.1505 60.7904 71.3729 58.946 73.3267L61.1274 75.3861ZM66.311 73.1505C70.2472 73.1505 73.4382 76.3415 73.4382 80.2777H76.4382C76.4382 74.6846 71.9041 70.1505 66.311 70.1505V73.1505ZM73.4382 80.2777C73.4382 84.2139 70.2472 87.4049 66.311 87.4049V90.4049C71.9041 90.4049 76.4382 85.8708 76.4382 80.2777H73.4382ZM66.311 87.4049C64.2686 87.4049 62.4288 86.5477 61.1274 85.1693L58.946 87.2287C60.7904 89.1824 63.4092 90.4049 66.311 90.4049V87.4049Z" fill="black"/>
<path fill-rule="evenodd" clip-rule="evenodd" d="M104.246 74.7527L74.6491 78.744L74.2481 75.7709L103.845 71.7796L104.246 74.7527ZM77.0316 81.8463H102.388V78.8463H74.9382V81.3907L74.776 81.3554L74.1381 84.2868L98.4915 89.5861L99.1294 86.6547L77.0316 81.8463Z" fill="black"/>
<path fill-rule="evenodd" clip-rule="evenodd" d="M16.1007 74.7527L45.6977 78.744L46.0986 75.7709L16.5017 71.7796L16.1007 74.7527ZM43.3151 81.8463H17.9584V78.8463H45.4085V81.3907L45.5707 81.3554L46.2086 84.2868L21.8552 89.5861L21.2173 86.6547L43.3151 81.8463Z" fill="black"/>
<circle cx="60.0367" cy="72.4348" r="4.70573" fill="#F5064B" stroke="black" stroke-width="3"/>
<defs>
<filter id="filter0_d" x="0.477386" y="1.44385" width="119.392" height="115.794" filterUnits="userSpaceOnUse" color-interpolation-filters="sRGB">
<feFlood flood-opacity="0" result="BackgroundImageFix"/>
<feColorMatrix in="SourceAlpha" type="matrix" values="0 0 0 0 0 0 0 0 0 0 0 0 0 0 0 0 0 0 127 0"/>
<feOffset/>
<feGaussianBlur stdDeviation="5"/>
<feColorMatrix type="matrix" values="0 0 0 0 0 0 0 0 0 0 0 0 0 0 0 0 0 0 0.25 0"/>
<feBlend mode="normal" in2="BackgroundImageFix" result="effect1_dropShadow"/>
<feBlend mode="normal" in="SourceGraphic" in2="effect1_dropShadow" result="shape"/>
</filter>
</defs>
</svg>
