<svg width="120" height="120" viewBox="0 0 120 120" fill="none" xmlns="http://www.w3.org/2000/svg">
<g clip-path="url(#clip0)">
<g filter="url(#filter0_d)">
<mask id="path-1-outside-1" maskUnits="userSpaceOnUse" x="8.66667" y="10" width="103" height="98" fill="black">
<rect fill="white" x="8.66667" y="10" width="103" height="98"/>
<path fill-rule="evenodd" clip-rule="evenodd" d="M65.6281 25.2202C67.8121 24.7542 70.0695 24.5079 72.381 24.5079C92.8062 24.5079 108.333 43.0604 108.333 64.5873C108.333 86.1142 92.8062 104.667 72.381 104.667H72.355H72.3288H72.3024H72.2756H72.2487H72.2214H72.1939H72.1662H72.1382H72.1099H72.0814H72.0526H72.0236H71.9943H71.9648H71.935H71.905H71.8747H71.8442H71.8134H71.7824H71.7512H71.7197H71.6879H71.656H71.6238H71.5913H71.5586H71.5257H71.4926H71.4592H71.4256H71.3917H71.3576H71.3233H71.2888H71.254H71.219H71.1838H71.1484H71.1127H71.0768H71.0407H71.0044H70.9679H70.9311H70.8941H70.8569H70.8195H70.7819H70.7441H70.706H70.6678H70.6293H70.5906H70.5517H70.5126H70.4733H70.4338H70.3941H70.3542H70.3141H70.2738H70.2333H70.1926H70.1517H70.1106H70.0693H70.0278H69.9861H69.9442H69.9022H69.8599H69.8175H69.7748H69.732H69.689H69.6458H69.6025H69.5589H69.5152H69.4712H69.4271H69.3829H69.3384H69.2938H69.249H69.204H69.1588H69.1135H69.068H69.0223H68.9765H68.9305H68.8843H68.838H68.7915H68.7448H68.698H68.651H68.6038H68.5565H68.509H68.4614H68.4136H68.3656H68.3175H68.2693H68.2209H68.1723H68.1236H68.0747H68.0257H67.9766H67.9273H67.8778H67.8282H67.7785H67.7286H67.6786H67.6284H67.5781H67.5277H67.4771H67.4264H67.3755H67.3245H67.2734H67.2222H67.1708H67.1193H67.0676H67.0159H66.964H66.912H66.8598H66.8075H66.7552H66.7026H66.65H66.5972H66.5444H66.4914H66.4383H66.3851H66.3317H66.2783H66.2247H66.171H66.1172H66.0633H66.0093H65.9552H65.901H65.8467H65.7923H65.7377H65.6831H65.6283H65.5735H65.5186H65.4636H65.4084H65.3532H65.2979H65.2425H65.187H65.1314H65.0757H65.0199H64.964H64.9081H64.852H64.7959H64.7397H64.6834H64.627H64.5705H64.514H64.4574H64.4007H64.3439H64.287H64.2301H64.1731H64.116H64.0589H64.0017H63.9444H63.887H63.8296H63.7721H63.7145H63.6569H63.5992H63.5414H63.4836H63.4258H63.3678H63.3098H63.2518H63.1937H63.1355H63.0773H63.019H62.9607H62.9023H62.8439H62.7854H62.7269H62.6683H62.6097H62.551H62.4923H62.4335H62.3747H62.3159H62.257H62.1981H62.1391H62.0802H62.0211H61.9621H61.903H61.8438H61.7847H61.7255H61.6662H61.607H61.5477H61.4884H61.4291H61.3697H61.3103H61.2509H61.1915H61.1321H61.0726H61.0131H60.9536H60.8941H60.8345H60.775H60.7154H60.6559H60.5963H60.5367H60.4771H60.4174H60.3578H60.2982H60.2386H60.1789H60.1193H60.0596H60H59.9404H59.8807H59.8211H59.7614H59.7018H59.6422H59.5826H59.5229H59.4633H59.4037H59.3442H59.2846H59.225H59.1655H59.1059H59.0464H58.9869H58.9274H58.8679H58.8085H58.7491H58.6897H58.6303H58.5709H58.5116H58.4523H58.393H58.3338H58.2745H58.2153H58.1562H58.097H58.0379H57.9789H57.9198H57.8609H57.8019H57.743H57.6841H57.6253H57.5665H57.5077H57.449H57.3903H57.3317H57.2731H57.2146H57.1561H57.0977H57.0393H56.981H56.9227H56.8645H56.8063H56.7482H56.6902H56.6322H56.5742H56.5164H56.4586H56.4008H56.3431H56.2855H56.2279H56.1704H56.113H56.0556H55.9983H55.9411H55.884H55.8269H55.7699H55.713H55.6561H55.5993H55.5426H55.486H55.4295H55.373H55.3166H55.2603H55.2041H55.148H55.0919H55.036H54.9801H54.9243H54.8686H54.813H54.7575H54.7021H54.6468H54.5916H54.5365H54.4814H54.4265H54.3717H54.3169H54.2623H54.2078H54.1533H54.099H54.0448H53.9907H53.9367H53.8828H53.829H53.7753H53.7217H53.6683H53.615H53.5617H53.5086H53.4556H53.4028H53.35H53.2974H53.2448H53.1925H53.1402H53.088H53.036H52.9841H52.9324H52.8807H52.8292H52.7778H52.7266H52.6755H52.6245H52.5736H52.5229H52.4723H52.4219H52.3716H52.3214H52.2714H52.2215H52.1718H52.1222H52.0727H52.0234H51.9743H51.9253H51.8764H51.8277H51.7791H51.7307H51.6825H51.6344H51.5864H51.5386H51.491H51.4435H51.3962H51.349H51.3021H51.2552H51.2085H51.162H51.1157H51.0695H51.0235H50.9777H50.932H50.8865H50.8412H50.796H50.751H50.7062H50.6616H50.6171H50.5729H50.5288H50.4848H50.4411H50.3975H50.3542H50.311H50.268H50.2252H50.1825H50.1401H50.0978H50.0558H50.0139H49.9722H49.9307H49.8894H49.8483H49.8074H49.7667H49.7262H49.6859H49.6458H49.6059H49.5662H49.5267H49.4874H49.4483H49.4094H49.3707H49.3323H49.294H49.2559H49.2181H49.1805H49.1431H49.1059H49.0689H49.0321H48.9956H48.9593H48.9232H48.8873H48.8516H48.8162H48.781H48.746H48.7112H48.6767H48.6424H48.6083H48.5744H48.5408H48.5074H48.4743H48.4414H48.4087H48.3762H48.344H48.3121H48.2803H48.2488H48.2176H48.1866H48.1558H48.1253H48.095H48.065H48.0352H48.0057H47.9764H47.9474H47.9186H47.8901H47.8618H47.8338H47.8061H47.7786H47.7513H47.7244H47.6976H47.6712H47.645H47.619C27.1938 104.667 11.6667 86.1142 11.6667 64.5873C11.6667 43.0604 27.1938 24.5079 47.619 24.5079C50.9167 24.5079 54.1043 25.0091 57.1257 25.9346C55.7943 23.1648 52.9626 21.254 49.6825 21.254V13C57.316 13 63.74 18.1822 65.6281 25.2202Z"/>
</mask>
<path fill-rule="evenodd" clip-rule="evenodd" d="M65.6281 25.2202C67.8121 24.7542 70.0695 24.5079 72.381 24.5079C92.8062 24.5079 108.333 43.0604 108.333 64.5873C108.333 86.1142 92.8062 104.667 72.381 104.667H72.355H72.3288H72.3024H72.2756H72.2487H72.2214H72.1939H72.1662H72.1382H72.1099H72.0814H72.0526H72.0236H71.9943H71.9648H71.935H71.905H71.8747H71.8442H71.8134H71.7824H71.7512H71.7197H71.6879H71.656H71.6238H71.5913H71.5586H71.5257H71.4926H71.4592H71.4256H71.3917H71.3576H71.3233H71.2888H71.254H71.219H71.1838H71.1484H71.1127H71.0768H71.0407H71.0044H70.9679H70.9311H70.8941H70.8569H70.8195H70.7819H70.7441H70.706H70.6678H70.6293H70.5906H70.5517H70.5126H70.4733H70.4338H70.3941H70.3542H70.3141H70.2738H70.2333H70.1926H70.1517H70.1106H70.0693H70.0278H69.9861H69.9442H69.9022H69.8599H69.8175H69.7748H69.732H69.689H69.6458H69.6025H69.5589H69.5152H69.4712H69.4271H69.3829H69.3384H69.2938H69.249H69.204H69.1588H69.1135H69.068H69.0223H68.9765H68.9305H68.8843H68.838H68.7915H68.7448H68.698H68.651H68.6038H68.5565H68.509H68.4614H68.4136H68.3656H68.3175H68.2693H68.2209H68.1723H68.1236H68.0747H68.0257H67.9766H67.9273H67.8778H67.8282H67.7785H67.7286H67.6786H67.6284H67.5781H67.5277H67.4771H67.4264H67.3755H67.3245H67.2734H67.2222H67.1708H67.1193H67.0676H67.0159H66.964H66.912H66.8598H66.8075H66.7552H66.7026H66.65H66.5972H66.5444H66.4914H66.4383H66.3851H66.3317H66.2783H66.2247H66.171H66.1172H66.0633H66.0093H65.9552H65.901H65.8467H65.7923H65.7377H65.6831H65.6283H65.5735H65.5186H65.4636H65.4084H65.3532H65.2979H65.2425H65.187H65.1314H65.0757H65.0199H64.964H64.9081H64.852H64.7959H64.7397H64.6834H64.627H64.5705H64.514H64.4574H64.4007H64.3439H64.287H64.2301H64.1731H64.116H64.0589H64.0017H63.9444H63.887H63.8296H63.7721H63.7145H63.6569H63.5992H63.5414H63.4836H63.4258H63.3678H63.3098H63.2518H63.1937H63.1355H63.0773H63.019H62.9607H62.9023H62.8439H62.7854H62.7269H62.6683H62.6097H62.551H62.4923H62.4335H62.3747H62.3159H62.257H62.1981H62.1391H62.0802H62.0211H61.9621H61.903H61.8438H61.7847H61.7255H61.6662H61.607H61.5477H61.4884H61.4291H61.3697H61.3103H61.2509H61.1915H61.1321H61.0726H61.0131H60.9536H60.8941H60.8345H60.775H60.7154H60.6559H60.5963H60.5367H60.4771H60.4174H60.3578H60.2982H60.2386H60.1789H60.1193H60.0596H60H59.9404H59.8807H59.8211H59.7614H59.7018H59.6422H59.5826H59.5229H59.4633H59.4037H59.3442H59.2846H59.225H59.1655H59.1059H59.0464H58.9869H58.9274H58.8679H58.8085H58.7491H58.6897H58.6303H58.5709H58.5116H58.4523H58.393H58.3338H58.2745H58.2153H58.1562H58.097H58.0379H57.9789H57.9198H57.8609H57.8019H57.743H57.6841H57.6253H57.5665H57.5077H57.449H57.3903H57.3317H57.2731H57.2146H57.1561H57.0977H57.0393H56.981H56.9227H56.8645H56.8063H56.7482H56.6902H56.6322H56.5742H56.5164H56.4586H56.4008H56.3431H56.2855H56.2279H56.1704H56.113H56.0556H55.9983H55.9411H55.884H55.8269H55.7699H55.713H55.6561H55.5993H55.5426H55.486H55.4295H55.373H55.3166H55.2603H55.2041H55.148H55.0919H55.036H54.9801H54.9243H54.8686H54.813H54.7575H54.7021H54.6468H54.5916H54.5365H54.4814H54.4265H54.3717H54.3169H54.2623H54.2078H54.1533H54.099H54.0448H53.9907H53.9367H53.8828H53.829H53.7753H53.7217H53.6683H53.615H53.5617H53.5086H53.4556H53.4028H53.35H53.2974H53.2448H53.1925H53.1402H53.088H53.036H52.9841H52.9324H52.8807H52.8292H52.7778H52.7266H52.6755H52.6245H52.5736H52.5229H52.4723H52.4219H52.3716H52.3214H52.2714H52.2215H52.1718H52.1222H52.0727H52.0234H51.9743H51.9253H51.8764H51.8277H51.7791H51.7307H51.6825H51.6344H51.5864H51.5386H51.491H51.4435H51.3962H51.349H51.3021H51.2552H51.2085H51.162H51.1157H51.0695H51.0235H50.9777H50.932H50.8865H50.8412H50.796H50.751H50.7062H50.6616H50.6171H50.5729H50.5288H50.4848H50.4411H50.3975H50.3542H50.311H50.268H50.2252H50.1825H50.1401H50.0978H50.0558H50.0139H49.9722H49.9307H49.8894H49.8483H49.8074H49.7667H49.7262H49.6859H49.6458H49.6059H49.5662H49.5267H49.4874H49.4483H49.4094H49.3707H49.3323H49.294H49.2559H49.2181H49.1805H49.1431H49.1059H49.0689H49.0321H48.9956H48.9593H48.9232H48.8873H48.8516H48.8162H48.781H48.746H48.7112H48.6767H48.6424H48.6083H48.5744H48.5408H48.5074H48.4743H48.4414H48.4087H48.3762H48.344H48.3121H48.2803H48.2488H48.2176H48.1866H48.1558H48.1253H48.095H48.065H48.0352H48.0057H47.9764H47.9474H47.9186H47.8901H47.8618H47.8338H47.8061H47.7786H47.7513H47.7244H47.6976H47.6712H47.645H47.619C27.1938 104.667 11.6667 86.1142 11.6667 64.5873C11.6667 43.0604 27.1938 24.5079 47.619 24.5079C50.9167 24.5079 54.1043 25.0091 57.1257 25.9346C55.7943 23.1648 52.9626 21.254 49.6825 21.254V13C57.316 13 63.74 18.1822 65.6281 25.2202Z" fill="black"/>
<path d="M65.6281 25.2202L62.7305 25.9975L63.4685 28.7485L66.2541 28.1541L65.6281 25.2202ZM57.1257 25.9346L56.247 28.803L62.7978 30.8097L59.8295 24.6349L57.1257 25.9346ZM49.6825 21.254H46.6825V24.254H49.6825V21.254ZM49.6825 13V10H46.6825V13H49.6825ZM72.381 21.5079C69.8556 21.5079 67.3884 21.777 65.002 22.2862L66.2541 28.1541C68.2357 27.7313 70.2833 27.5079 72.381 27.5079V21.5079ZM111.333 64.5873C111.333 41.7821 94.8178 21.5079 72.381 21.5079V27.5079C90.7946 27.5079 105.333 44.3387 105.333 64.5873H111.333ZM72.381 107.667C94.8178 107.667 111.333 87.3925 111.333 64.5873H105.333C105.333 84.8359 90.7946 101.667 72.381 101.667V107.667ZM72.355 107.667H72.381V101.667H72.355V107.667ZM72.3288 107.667H72.355V101.667H72.3288V107.667ZM72.3024 107.667H72.3288V101.667H72.3024V107.667ZM72.2756 107.667H72.3024V101.667H72.2756V107.667ZM72.2487 107.667H72.2756V101.667H72.2487V107.667ZM72.2214 107.667H72.2487V101.667H72.2214V107.667ZM72.1939 107.667H72.2214V101.667H72.1939V107.667ZM72.1662 107.667H72.1939V101.667H72.1662V107.667ZM72.1382 107.667H72.1662V101.667H72.1382V107.667ZM72.1099 107.667H72.1382V101.667H72.1099V107.667ZM72.0814 107.667H72.1099V101.667H72.0814V107.667ZM72.0526 107.667H72.0814V101.667H72.0526V107.667ZM72.0236 107.667H72.0526V101.667H72.0236V107.667ZM71.9943 107.667H72.0236V101.667H71.9943V107.667ZM71.9648 107.667H71.9943V101.667H71.9648V107.667ZM71.935 107.667H71.9648V101.667H71.935V107.667ZM71.905 107.667H71.935V101.667H71.905V107.667ZM71.8747 107.667H71.905V101.667H71.8747V107.667ZM71.8442 107.667H71.8747V101.667H71.8442V107.667ZM71.8134 107.667H71.8442V101.667H71.8134V107.667ZM71.7824 107.667H71.8134V101.667H71.7824V107.667ZM71.7512 107.667H71.7824V101.667H71.7512V107.667ZM71.7197 107.667H71.7512V101.667H71.7197V107.667ZM71.6879 107.667H71.7197V101.667H71.6879V107.667ZM71.656 107.667H71.6879V101.667H71.656V107.667ZM71.6238 107.667H71.656V101.667H71.6238V107.667ZM71.5913 107.667H71.6238V101.667H71.5913V107.667ZM71.5586 107.667H71.5913V101.667H71.5586V107.667ZM71.5257 107.667H71.5586V101.667H71.5257V107.667ZM71.4926 107.667H71.5257V101.667H71.4926V107.667ZM71.4592 107.667H71.4926V101.667H71.4592V107.667ZM71.4256 107.667H71.4592V101.667H71.4256V107.667ZM71.3917 107.667H71.4256V101.667H71.3917V107.667ZM71.3576 107.667H71.3917V101.667H71.3576V107.667ZM71.3233 107.667H71.3576V101.667H71.3233V107.667ZM71.2888 107.667H71.3233V101.667H71.2888V107.667ZM71.254 107.667H71.2888V101.667H71.254V107.667ZM71.219 107.667H71.254V101.667H71.219V107.667ZM71.1838 107.667H71.219V101.667H71.1838V107.667ZM71.1484 107.667H71.1838V101.667H71.1484V107.667ZM71.1127 107.667H71.1484V101.667H71.1127V107.667ZM71.0768 107.667H71.1127V101.667H71.0768V107.667ZM71.0407 107.667H71.0768V101.667H71.0407V107.667ZM71.0044 107.667H71.0407V101.667H71.0044V107.667ZM70.9679 107.667H71.0044V101.667H70.9679V107.667ZM70.9311 107.667H70.9679V101.667H70.9311V107.667ZM70.8941 107.667H70.9311V101.667H70.8941V107.667ZM70.8569 107.667H70.8941V101.667H70.8569V107.667ZM70.8195 107.667H70.8569V101.667H70.8195V107.667ZM70.7819 107.667H70.8195V101.667H70.7819V107.667ZM70.7441 107.667H70.7819V101.667H70.7441V107.667ZM70.706 107.667H70.7441V101.667H70.706V107.667ZM70.6678 107.667H70.706V101.667H70.6678V107.667ZM70.6293 107.667H70.6678V101.667H70.6293V107.667ZM70.5906 107.667H70.6293V101.667H70.5906V107.667ZM70.5517 107.667H70.5906V101.667H70.5517V107.667ZM70.5126 107.667H70.5517V101.667H70.5126V107.667ZM70.4733 107.667H70.5126V101.667H70.4733V107.667ZM70.4338 107.667H70.4733V101.667H70.4338V107.667ZM70.3941 107.667H70.4338V101.667H70.3941V107.667ZM70.3542 107.667H70.3941V101.667H70.3542V107.667ZM70.3141 107.667H70.3542V101.667H70.3141V107.667ZM70.2738 107.667H70.3141V101.667H70.2738V107.667ZM70.2333 107.667H70.2738V101.667H70.2333V107.667ZM70.1926 107.667H70.2333V101.667H70.1926V107.667ZM70.1517 107.667H70.1926V101.667H70.1517V107.667ZM70.1106 107.667H70.1517V101.667H70.1106V107.667ZM70.0693 107.667H70.1106V101.667H70.0693V107.667ZM70.0278 107.667H70.0693V101.667H70.0278V107.667ZM69.9861 107.667H70.0278V101.667H69.9861V107.667ZM69.9442 107.667H69.9861V101.667H69.9442V107.667ZM69.9022 107.667H69.9442V101.667H69.9022V107.667ZM69.8599 107.667H69.9022V101.667H69.8599V107.667ZM69.8175 107.667H69.8599V101.667H69.8175V107.667ZM69.7748 107.667H69.8175V101.667H69.7748V107.667ZM69.732 107.667H69.7748V101.667H69.732V107.667ZM69.689 107.667H69.732V101.667H69.689V107.667ZM69.6458 107.667H69.689V101.667H69.6458V107.667ZM69.6025 107.667H69.6458V101.667H69.6025V107.667ZM69.5589 107.667H69.6025V101.667H69.5589V107.667ZM69.5152 107.667H69.5589V101.667H69.5152V107.667ZM69.4712 107.667H69.5152V101.667H69.4712V107.667ZM69.4271 107.667H69.4712V101.667H69.4271V107.667ZM69.3829 107.667H69.4271V101.667H69.3829V107.667ZM69.3384 107.667H69.3829V101.667H69.3384V107.667ZM69.2938 107.667H69.3384V101.667H69.2938V107.667ZM69.249 107.667H69.2938V101.667H69.249V107.667ZM69.204 107.667H69.249V101.667H69.204V107.667ZM69.1588 107.667H69.204V101.667H69.1588V107.667ZM69.1135 107.667H69.1588V101.667H69.1135V107.667ZM69.068 107.667H69.1135V101.667H69.068V107.667ZM69.0223 107.667H69.068V101.667H69.0223V107.667ZM68.9765 107.667H69.0223V101.667H68.9765V107.667ZM68.9305 107.667H68.9765V101.667H68.9305V107.667ZM68.8843 107.667H68.9305V101.667H68.8843V107.667ZM68.838 107.667H68.8843V101.667H68.838V107.667ZM68.7915 107.667H68.838V101.667H68.7915V107.667ZM68.7448 107.667H68.7915V101.667H68.7448V107.667ZM68.698 107.667H68.7448V101.667H68.698V107.667ZM68.651 107.667H68.698V101.667H68.651V107.667ZM68.6038 107.667H68.651V101.667H68.6038V107.667ZM68.5565 107.667H68.6038V101.667H68.5565V107.667ZM68.509 107.667H68.5565V101.667H68.509V107.667ZM68.4614 107.667H68.509V101.667H68.4614V107.667ZM68.4136 107.667H68.4614V101.667H68.4136V107.667ZM68.3656 107.667H68.4136V101.667H68.3656V107.667ZM68.3175 107.667H68.3656V101.667H68.3175V107.667ZM68.2693 107.667H68.3175V101.667H68.2693V107.667ZM68.2209 107.667H68.2693V101.667H68.2209V107.667ZM68.1723 107.667H68.2209V101.667H68.1723V107.667ZM68.1236 107.667H68.1723V101.667H68.1236V107.667ZM68.0747 107.667H68.1236V101.667H68.0747V107.667ZM68.0257 107.667H68.0747V101.667H68.0257V107.667ZM67.9766 107.667H68.0257V101.667H67.9766V107.667ZM67.9273 107.667H67.9766V101.667H67.9273V107.667ZM67.8778 107.667H67.9273V101.667H67.8778V107.667ZM67.8282 107.667H67.8778V101.667H67.8282V107.667ZM67.7785 107.667H67.8282V101.667H67.7785V107.667ZM67.7286 107.667H67.7785V101.667H67.7286V107.667ZM67.6786 107.667H67.7286V101.667H67.6786V107.667ZM67.6284 107.667H67.6786V101.667H67.6284V107.667ZM67.5781 107.667H67.6284V101.667H67.5781V107.667ZM67.5277 107.667H67.5781V101.667H67.5277V107.667ZM67.4771 107.667H67.5277V101.667H67.4771V107.667ZM67.4264 107.667H67.4771V101.667H67.4264V107.667ZM67.3755 107.667H67.4264V101.667H67.3755V107.667ZM67.3245 107.667H67.3755V101.667H67.3245V107.667ZM67.2734 107.667H67.3245V101.667H67.2734V107.667ZM67.2222 107.667H67.2734V101.667H67.2222V107.667ZM67.1708 107.667H67.2222V101.667H67.1708V107.667ZM67.1193 107.667H67.1708V101.667H67.1193V107.667ZM67.0676 107.667H67.1193V101.667H67.0676V107.667ZM67.0159 107.667H67.0676V101.667H67.0159V107.667ZM66.964 107.667H67.0159V101.667H66.964V107.667ZM66.912 107.667H66.964V101.667H66.912V107.667ZM66.8598 107.667H66.912V101.667H66.8598V107.667ZM66.8075 107.667H66.8598V101.667H66.8075V107.667ZM66.7552 107.667H66.8075V101.667H66.7552V107.667ZM66.7026 107.667H66.7552V101.667H66.7026V107.667ZM66.65 107.667H66.7026V101.667H66.65V107.667ZM66.5972 107.667H66.65V101.667H66.5972V107.667ZM66.5444 107.667H66.5972V101.667H66.5444V107.667ZM66.4914 107.667H66.5444V101.667H66.4914V107.667ZM66.4383 107.667H66.4914V101.667H66.4383V107.667ZM66.3851 107.667H66.4383V101.667H66.3851V107.667ZM66.3317 107.667H66.3851V101.667H66.3317V107.667ZM66.2783 107.667H66.3317V101.667H66.2783V107.667ZM66.2247 107.667H66.2783V101.667H66.2247V107.667ZM66.171 107.667H66.2247V101.667H66.171V107.667ZM66.1172 107.667H66.171V101.667H66.1172V107.667ZM66.0633 107.667H66.1172V101.667H66.0633V107.667ZM66.0093 107.667H66.0633V101.667H66.0093V107.667ZM65.9552 107.667H66.0093V101.667H65.9552V107.667ZM65.901 107.667H65.9552V101.667H65.901V107.667ZM65.8467 107.667H65.901V101.667H65.8467V107.667ZM65.7923 107.667H65.8467V101.667H65.7923V107.667ZM65.7377 107.667H65.7923V101.667H65.7377V107.667ZM65.6831 107.667H65.7377V101.667H65.6831V107.667ZM65.6283 107.667H65.6831V101.667H65.6283V107.667ZM65.5735 107.667H65.6283V101.667H65.5735V107.667ZM65.5186 107.667H65.5735V101.667H65.5186V107.667ZM65.4636 107.667H65.5186V101.667H65.4636V107.667ZM65.4084 107.667H65.4636V101.667H65.4084V107.667ZM65.3532 107.667H65.4084V101.667H65.3532V107.667ZM65.2979 107.667H65.3532V101.667H65.2979V107.667ZM65.2425 107.667H65.2979V101.667H65.2425V107.667ZM65.187 107.667H65.2425V101.667H65.187V107.667ZM65.1314 107.667H65.187V101.667H65.1314V107.667ZM65.0757 107.667H65.1314V101.667H65.0757V107.667ZM65.0199 107.667H65.0757V101.667H65.0199V107.667ZM64.964 107.667H65.0199V101.667H64.964V107.667ZM64.9081 107.667H64.964V101.667H64.9081V107.667ZM64.852 107.667H64.9081V101.667H64.852V107.667ZM64.7959 107.667H64.852V101.667H64.7959V107.667ZM64.7397 107.667H64.7959V101.667H64.7397V107.667ZM64.6834 107.667H64.7397V101.667H64.6834V107.667ZM64.627 107.667H64.6834V101.667H64.627V107.667ZM64.5705 107.667H64.627V101.667H64.5705V107.667ZM64.514 107.667H64.5705V101.667H64.514V107.667ZM64.4574 107.667H64.514V101.667H64.4574V107.667ZM64.4007 107.667H64.4574V101.667H64.4007V107.667ZM64.3439 107.667H64.4007V101.667H64.3439V107.667ZM64.287 107.667H64.3439V101.667H64.287V107.667ZM64.2301 107.667H64.287V101.667H64.2301V107.667ZM64.1731 107.667H64.2301V101.667H64.1731V107.667ZM64.116 107.667H64.1731V101.667H64.116V107.667ZM64.0589 107.667H64.116V101.667H64.0589V107.667ZM64.0017 107.667H64.0589V101.667H64.0017V107.667ZM63.9444 107.667H64.0017V101.667H63.9444V107.667ZM63.887 107.667H63.9444V101.667H63.887V107.667ZM63.8296 107.667H63.887V101.667H63.8296V107.667ZM63.7721 107.667H63.8296V101.667H63.7721V107.667ZM63.7145 107.667H63.7721V101.667H63.7145V107.667ZM63.6569 107.667H63.7145V101.667H63.6569V107.667ZM63.5992 107.667H63.6569V101.667H63.5992V107.667ZM63.5414 107.667H63.5992V101.667H63.5414V107.667ZM63.4836 107.667H63.5414V101.667H63.4836V107.667ZM63.4258 107.667H63.4836V101.667H63.4258V107.667ZM63.3678 107.667H63.4258V101.667H63.3678V107.667ZM63.3098 107.667H63.3678V101.667H63.3098V107.667ZM63.2518 107.667H63.3098V101.667H63.2518V107.667ZM63.1937 107.667H63.2518V101.667H63.1937V107.667ZM63.1355 107.667H63.1937V101.667H63.1355V107.667ZM63.0773 107.667H63.1355V101.667H63.0773V107.667ZM63.019 107.667H63.0773V101.667H63.019V107.667ZM62.9607 107.667H63.019V101.667H62.9607V107.667ZM62.9023 107.667H62.9607V101.667H62.9023V107.667ZM62.8439 107.667H62.9023V101.667H62.8439V107.667ZM62.7854 107.667H62.8439V101.667H62.7854V107.667ZM62.7269 107.667H62.7854V101.667H62.7269V107.667ZM62.6683 107.667H62.7269V101.667H62.6683V107.667ZM62.6097 107.667H62.6683V101.667H62.6097V107.667ZM62.551 107.667H62.6097V101.667H62.551V107.667ZM62.4923 107.667H62.551V101.667H62.4923V107.667ZM62.4335 107.667H62.4923V101.667H62.4335V107.667ZM62.3747 107.667H62.4335V101.667H62.3747V107.667ZM62.3159 107.667H62.3747V101.667H62.3159V107.667ZM62.257 107.667H62.3159V101.667H62.257V107.667ZM62.1981 107.667H62.257V101.667H62.1981V107.667ZM62.1391 107.667H62.1981V101.667H62.1391V107.667ZM62.0802 107.667H62.1391V101.667H62.0802V107.667ZM62.0211 107.667H62.0802V101.667H62.0211V107.667ZM61.9621 107.667H62.0211V101.667H61.9621V107.667ZM61.903 107.667H61.9621V101.667H61.903V107.667ZM61.8438 107.667H61.903V101.667H61.8438V107.667ZM61.7847 107.667H61.8438V101.667H61.7847V107.667ZM61.7255 107.667H61.7847V101.667H61.7255V107.667ZM61.6662 107.667H61.7255V101.667H61.6662V107.667ZM61.607 107.667H61.6662V101.667H61.607V107.667ZM61.5477 107.667H61.607V101.667H61.5477V107.667ZM61.4884 107.667H61.5477V101.667H61.4884V107.667ZM61.4291 107.667H61.4884V101.667H61.4291V107.667ZM61.3697 107.667H61.4291V101.667H61.3697V107.667ZM61.3103 107.667H61.3697V101.667H61.3103V107.667ZM61.2509 107.667H61.3103V101.667H61.2509V107.667ZM61.1915 107.667H61.2509V101.667H61.1915V107.667ZM61.1321 107.667H61.1915V101.667H61.1321V107.667ZM61.0726 107.667H61.1321V101.667H61.0726V107.667ZM61.0131 107.667H61.0726V101.667H61.0131V107.667ZM60.9536 107.667H61.0131V101.667H60.9536V107.667ZM60.8941 107.667H60.9536V101.667H60.8941V107.667ZM60.8345 107.667H60.8941V101.667H60.8345V107.667ZM60.775 107.667H60.8345V101.667H60.775V107.667ZM60.7154 107.667H60.775V101.667H60.7154V107.667ZM60.6559 107.667H60.7154V101.667H60.6559V107.667ZM60.5963 107.667H60.6559V101.667H60.5963V107.667ZM60.5367 107.667H60.5963V101.667H60.5367V107.667ZM60.4771 107.667H60.5367V101.667H60.4771V107.667ZM60.4174 107.667H60.4771V101.667H60.4174V107.667ZM60.3578 107.667H60.4174V101.667H60.3578V107.667ZM60.2982 107.667H60.3578V101.667H60.2982V107.667ZM60.2386 107.667H60.2982V101.667H60.2386V107.667ZM60.1789 107.667H60.2386V101.667H60.1789V107.667ZM60.1193 107.667H60.1789V101.667H60.1193V107.667ZM60.0596 107.667H60.1193V101.667H60.0596V107.667ZM60 107.667H60.0596V101.667H60V107.667ZM59.9404 107.667H60V101.667H59.9404V107.667ZM59.8807 107.667H59.9404V101.667H59.8807V107.667ZM59.8211 107.667H59.8807V101.667H59.8211V107.667ZM59.7614 107.667H59.8211V101.667H59.7614V107.667ZM59.7018 107.667H59.7614V101.667H59.7018V107.667ZM59.6422 107.667H59.7018V101.667H59.6422V107.667ZM59.5826 107.667H59.6422V101.667H59.5826V107.667ZM59.5229 107.667H59.5826V101.667H59.5229V107.667ZM59.4633 107.667H59.5229V101.667H59.4633V107.667ZM59.4037 107.667H59.4633V101.667H59.4037V107.667ZM59.3442 107.667H59.4037V101.667H59.3442V107.667ZM59.2846 107.667H59.3442V101.667H59.2846V107.667ZM59.225 107.667H59.2846V101.667H59.225V107.667ZM59.1655 107.667H59.225V101.667H59.1655V107.667ZM59.1059 107.667H59.1655V101.667H59.1059V107.667ZM59.0464 107.667H59.1059V101.667H59.0464V107.667ZM58.9869 107.667H59.0464V101.667H58.9869V107.667ZM58.9274 107.667H58.9869V101.667H58.9274V107.667ZM58.8679 107.667H58.9274V101.667H58.8679V107.667ZM58.8085 107.667H58.8679V101.667H58.8085V107.667ZM58.7491 107.667H58.8085V101.667H58.7491V107.667ZM58.6897 107.667H58.7491V101.667H58.6897V107.667ZM58.6303 107.667H58.6897V101.667H58.6303V107.667ZM58.5709 107.667H58.6303V101.667H58.5709V107.667ZM58.5116 107.667H58.5709V101.667H58.5116V107.667ZM58.4523 107.667H58.5116V101.667H58.4523V107.667ZM58.393 107.667H58.4523V101.667H58.393V107.667ZM58.3338 107.667H58.393V101.667H58.3338V107.667ZM58.2745 107.667H58.3338V101.667H58.2745V107.667ZM58.2153 107.667H58.2745V101.667H58.2153V107.667ZM58.1562 107.667H58.2153V101.667H58.1562V107.667ZM58.097 107.667H58.1562V101.667H58.097V107.667ZM58.0379 107.667H58.097V101.667H58.0379V107.667ZM57.9789 107.667H58.0379V101.667H57.9789V107.667ZM57.9198 107.667H57.9789V101.667H57.9198V107.667ZM57.8609 107.667H57.9198V101.667H57.8609V107.667ZM57.8019 107.667H57.8609V101.667H57.8019V107.667ZM57.743 107.667H57.8019V101.667H57.743V107.667ZM57.6841 107.667H57.743V101.667H57.6841V107.667ZM57.6253 107.667H57.6841V101.667H57.6253V107.667ZM57.5665 107.667H57.6253V101.667H57.5665V107.667ZM57.5077 107.667H57.5665V101.667H57.5077V107.667ZM57.449 107.667H57.5077V101.667H57.449V107.667ZM57.3903 107.667H57.449V101.667H57.3903V107.667ZM57.3317 107.667H57.3903V101.667H57.3317V107.667ZM57.2731 107.667H57.3317V101.667H57.2731V107.667ZM57.2146 107.667H57.2731V101.667H57.2146V107.667ZM57.1561 107.667H57.2146V101.667H57.1561V107.667ZM57.0977 107.667H57.1561V101.667H57.0977V107.667ZM57.0393 107.667H57.0977V101.667H57.0393V107.667ZM56.981 107.667H57.0393V101.667H56.981V107.667ZM56.9227 107.667H56.981V101.667H56.9227V107.667ZM56.8645 107.667H56.9227V101.667H56.8645V107.667ZM56.8063 107.667H56.8645V101.667H56.8063V107.667ZM56.7482 107.667H56.8063V101.667H56.7482V107.667ZM56.6902 107.667H56.7482V101.667H56.6902V107.667ZM56.6322 107.667H56.6902V101.667H56.6322V107.667ZM56.5742 107.667H56.6322V101.667H56.5742V107.667ZM56.5164 107.667H56.5742V101.667H56.5164V107.667ZM56.4586 107.667H56.5164V101.667H56.4586V107.667ZM56.4008 107.667H56.4586V101.667H56.4008V107.667ZM56.3431 107.667H56.4008V101.667H56.3431V107.667ZM56.2855 107.667H56.3431V101.667H56.2855V107.667ZM56.2279 107.667H56.2855V101.667H56.2279V107.667ZM56.1704 107.667H56.2279V101.667H56.1704V107.667ZM56.113 107.667H56.1704V101.667H56.113V107.667ZM56.0556 107.667H56.113V101.667H56.0556V107.667ZM55.9983 107.667H56.0556V101.667H55.9983V107.667ZM55.9411 107.667H55.9983V101.667H55.9411V107.667ZM55.884 107.667H55.9411V101.667H55.884V107.667ZM55.8269 107.667H55.884V101.667H55.8269V107.667ZM55.7699 107.667H55.8269V101.667H55.7699V107.667ZM55.713 107.667H55.7699V101.667H55.713V107.667ZM55.6561 107.667H55.713V101.667H55.6561V107.667ZM55.5993 107.667H55.6561V101.667H55.5993V107.667ZM55.5426 107.667H55.5993V101.667H55.5426V107.667ZM55.486 107.667H55.5426V101.667H55.486V107.667ZM55.4295 107.667H55.486V101.667H55.4295V107.667ZM55.373 107.667H55.4295V101.667H55.373V107.667ZM55.3166 107.667H55.373V101.667H55.3166V107.667ZM55.2603 107.667H55.3166V101.667H55.2603V107.667ZM55.2041 107.667H55.2603V101.667H55.2041V107.667ZM55.148 107.667H55.2041V101.667H55.148V107.667ZM55.0919 107.667H55.148V101.667H55.0919V107.667ZM55.036 107.667H55.0919V101.667H55.036V107.667ZM54.9801 107.667H55.036V101.667H54.9801V107.667ZM54.9243 107.667H54.9801V101.667H54.9243V107.667ZM54.8686 107.667H54.9243V101.667H54.8686V107.667ZM54.813 107.667H54.8686V101.667H54.813V107.667ZM54.7575 107.667H54.813V101.667H54.7575V107.667ZM54.7021 107.667H54.7575V101.667H54.7021V107.667ZM54.6468 107.667H54.7021V101.667H54.6468V107.667ZM54.5916 107.667H54.6468V101.667H54.5916V107.667ZM54.5365 107.667H54.5916V101.667H54.5365V107.667ZM54.4814 107.667H54.5365V101.667H54.4814V107.667ZM54.4265 107.667H54.4814V101.667H54.4265V107.667ZM54.3717 107.667H54.4265V101.667H54.3717V107.667ZM54.3169 107.667H54.3717V101.667H54.3169V107.667ZM54.2623 107.667H54.3169V101.667H54.2623V107.667ZM54.2078 107.667H54.2623V101.667H54.2078V107.667ZM54.1533 107.667H54.2078V101.667H54.1533V107.667ZM54.099 107.667H54.1533V101.667H54.099V107.667ZM54.0448 107.667H54.099V101.667H54.0448V107.667ZM53.9907 107.667H54.0448V101.667H53.9907V107.667ZM53.9367 107.667H53.9907V101.667H53.9367V107.667ZM53.8828 107.667H53.9367V101.667H53.8828V107.667ZM53.829 107.667H53.8828V101.667H53.829V107.667ZM53.7753 107.667H53.829V101.667H53.7753V107.667ZM53.7217 107.667H53.7753V101.667H53.7217V107.667ZM53.6683 107.667H53.7217V101.667H53.6683V107.667ZM53.615 107.667H53.6683V101.667H53.615V107.667ZM53.5617 107.667H53.615V101.667H53.5617V107.667ZM53.5086 107.667H53.5617V101.667H53.5086V107.667ZM53.4556 107.667H53.5086V101.667H53.4556V107.667ZM53.4028 107.667H53.4556V101.667H53.4028V107.667ZM53.35 107.667H53.4028V101.667H53.35V107.667ZM53.2974 107.667H53.35V101.667H53.2974V107.667ZM53.2448 107.667H53.2974V101.667H53.2448V107.667ZM53.1925 107.667H53.2448V101.667H53.1925V107.667ZM53.1402 107.667H53.1925V101.667H53.1402V107.667ZM53.088 107.667H53.1402V101.667H53.088V107.667ZM53.036 107.667H53.088V101.667H53.036V107.667ZM52.9841 107.667H53.036V101.667H52.9841V107.667ZM52.9324 107.667H52.9841V101.667H52.9324V107.667ZM52.8807 107.667H52.9324V101.667H52.8807V107.667ZM52.8292 107.667H52.8807V101.667H52.8292V107.667ZM52.7778 107.667H52.8292V101.667H52.7778V107.667ZM52.7266 107.667H52.7778V101.667H52.7266V107.667ZM52.6755 107.667H52.7266V101.667H52.6755V107.667ZM52.6245 107.667H52.6755V101.667H52.6245V107.667ZM52.5736 107.667H52.6245V101.667H52.5736V107.667ZM52.5229 107.667H52.5736V101.667H52.5229V107.667ZM52.4723 107.667H52.5229V101.667H52.4723V107.667ZM52.4219 107.667H52.4723V101.667H52.4219V107.667ZM52.3716 107.667H52.4219V101.667H52.3716V107.667ZM52.3214 107.667H52.3716V101.667H52.3214V107.667ZM52.2714 107.667H52.3214V101.667H52.2714V107.667ZM52.2215 107.667H52.2714V101.667H52.2215V107.667ZM52.1718 107.667H52.2215V101.667H52.1718V107.667ZM52.1222 107.667H52.1718V101.667H52.1222V107.667ZM52.0727 107.667H52.1222V101.667H52.0727V107.667ZM52.0234 107.667H52.0727V101.667H52.0234V107.667ZM51.9743 107.667H52.0234V101.667H51.9743V107.667ZM51.9253 107.667H51.9743V101.667H51.9253V107.667ZM51.8764 107.667H51.9253V101.667H51.8764V107.667ZM51.8277 107.667H51.8764V101.667H51.8277V107.667ZM51.7791 107.667H51.8277V101.667H51.7791V107.667ZM51.7307 107.667H51.7791V101.667H51.7307V107.667ZM51.6825 107.667H51.7307V101.667H51.6825V107.667ZM51.6344 107.667H51.6825V101.667H51.6344V107.667ZM51.5864 107.667H51.6344V101.667H51.5864V107.667ZM51.5386 107.667H51.5864V101.667H51.5386V107.667ZM51.491 107.667H51.5386V101.667H51.491V107.667ZM51.4435 107.667H51.491V101.667H51.4435V107.667ZM51.3962 107.667H51.4435V101.667H51.3962V107.667ZM51.349 107.667H51.3962V101.667H51.349V107.667ZM51.3021 107.667H51.349V101.667H51.3021V107.667ZM51.2552 107.667H51.3021V101.667H51.2552V107.667ZM51.2085 107.667H51.2552V101.667H51.2085V107.667ZM51.162 107.667H51.2085V101.667H51.162V107.667ZM51.1157 107.667H51.162V101.667H51.1157V107.667ZM51.0695 107.667H51.1157V101.667H51.0695V107.667ZM51.0235 107.667H51.0695V101.667H51.0235V107.667ZM50.9777 107.667H51.0235V101.667H50.9777V107.667ZM50.932 107.667H50.9777V101.667H50.932V107.667ZM50.8865 107.667H50.932V101.667H50.8865V107.667ZM50.8412 107.667H50.8865V101.667H50.8412V107.667ZM50.796 107.667H50.8412V101.667H50.796V107.667ZM50.751 107.667H50.796V101.667H50.751V107.667ZM50.7062 107.667H50.751V101.667H50.7062V107.667ZM50.6616 107.667H50.7062V101.667H50.6616V107.667ZM50.6171 107.667H50.6616V101.667H50.6171V107.667ZM50.5729 107.667H50.6171V101.667H50.5729V107.667ZM50.5288 107.667H50.5729V101.667H50.5288V107.667ZM50.4848 107.667H50.5288V101.667H50.4848V107.667ZM50.4411 107.667H50.4848V101.667H50.4411V107.667ZM50.3975 107.667H50.4411V101.667H50.3975V107.667ZM50.3542 107.667H50.3975V101.667H50.3542V107.667ZM50.311 107.667H50.3542V101.667H50.311V107.667ZM50.268 107.667H50.311V101.667H50.268V107.667ZM50.2252 107.667H50.268V101.667H50.2252V107.667ZM50.1825 107.667H50.2252V101.667H50.1825V107.667ZM50.1401 107.667H50.1825V101.667H50.1401V107.667ZM50.0978 107.667H50.1401V101.667H50.0978V107.667ZM50.0558 107.667H50.0978V101.667H50.0558V107.667ZM50.0139 107.667H50.0558V101.667H50.0139V107.667ZM49.9722 107.667H50.0139V101.667H49.9722V107.667ZM49.9307 107.667H49.9722V101.667H49.9307V107.667ZM49.8894 107.667H49.9307V101.667H49.8894V107.667ZM49.8483 107.667H49.8894V101.667H49.8483V107.667ZM49.8074 107.667H49.8483V101.667H49.8074V107.667ZM49.7667 107.667H49.8074V101.667H49.7667V107.667ZM49.7262 107.667H49.7667V101.667H49.7262V107.667ZM49.6859 107.667H49.7262V101.667H49.6859V107.667ZM49.6458 107.667H49.6859V101.667H49.6458V107.667ZM49.6059 107.667H49.6458V101.667H49.6059V107.667ZM49.5662 107.667H49.6059V101.667H49.5662V107.667ZM49.5267 107.667H49.5662V101.667H49.5267V107.667ZM49.4874 107.667H49.5267V101.667H49.4874V107.667ZM49.4483 107.667H49.4874V101.667H49.4483V107.667ZM49.4094 107.667H49.4483V101.667H49.4094V107.667ZM49.3707 107.667H49.4094V101.667H49.3707V107.667ZM49.3323 107.667H49.3707V101.667H49.3323V107.667ZM49.294 107.667H49.3323V101.667H49.294V107.667ZM49.2559 107.667H49.294V101.667H49.2559V107.667ZM49.2181 107.667H49.2559V101.667H49.2181V107.667ZM49.1805 107.667H49.2181V101.667H49.1805V107.667ZM49.1431 107.667H49.1805V101.667H49.1431V107.667ZM49.1059 107.667H49.1431V101.667H49.1059V107.667ZM49.0689 107.667H49.1059V101.667H49.0689V107.667ZM49.0321 107.667H49.0689V101.667H49.0321V107.667ZM48.9956 107.667H49.0321V101.667H48.9956V107.667ZM48.9593 107.667H48.9956V101.667H48.9593V107.667ZM48.9232 107.667H48.9593V101.667H48.9232V107.667ZM48.8873 107.667H48.9232V101.667H48.8873V107.667ZM48.8516 107.667H48.8873V101.667H48.8516V107.667ZM48.8162 107.667H48.8516V101.667H48.8162V107.667ZM48.781 107.667H48.8162V101.667H48.781V107.667ZM48.746 107.667H48.781V101.667H48.746V107.667ZM48.7112 107.667H48.746V101.667H48.7112V107.667ZM48.6767 107.667H48.7112V101.667H48.6767V107.667ZM48.6424 107.667H48.6767V101.667H48.6424V107.667ZM48.6083 107.667H48.6424V101.667H48.6083V107.667ZM48.5744 107.667H48.6083V101.667H48.5744V107.667ZM48.5408 107.667H48.5744V101.667H48.5408V107.667ZM48.5074 107.667H48.5408V101.667H48.5074V107.667ZM48.4743 107.667H48.5074V101.667H48.4743V107.667ZM48.4414 107.667H48.4743V101.667H48.4414V107.667ZM48.4087 107.667H48.4414V101.667H48.4087V107.667ZM48.3762 107.667H48.4087V101.667H48.3762V107.667ZM48.344 107.667H48.3762V101.667H48.344V107.667ZM48.3121 107.667H48.344V101.667H48.3121V107.667ZM48.2803 107.667H48.3121V101.667H48.2803V107.667ZM48.2488 107.667H48.2803V101.667H48.2488V107.667ZM48.2176 107.667H48.2488V101.667H48.2176V107.667ZM48.1866 107.667H48.2176V101.667H48.1866V107.667ZM48.1558 107.667H48.1866V101.667H48.1558V107.667ZM48.1253 107.667H48.1558V101.667H48.1253V107.667ZM48.095 107.667H48.1253V101.667H48.095V107.667ZM48.065 107.667H48.095V101.667H48.065V107.667ZM48.0352 107.667H48.065V101.667H48.0352V107.667ZM48.0057 107.667H48.0352V101.667H48.0057V107.667ZM47.9764 107.667H48.0057V101.667H47.9764V107.667ZM47.9474 107.667H47.9764V101.667H47.9474V107.667ZM47.9186 107.667H47.9474V101.667H47.9186V107.667ZM47.8901 107.667H47.9186V101.667H47.8901V107.667ZM47.8618 107.667H47.8901V101.667H47.8618V107.667ZM47.8338 107.667H47.8618V101.667H47.8338V107.667ZM47.8061 107.667H47.8338V101.667H47.8061V107.667ZM47.7786 107.667H47.8061V101.667H47.7786V107.667ZM47.7513 107.667H47.7786V101.667H47.7513V107.667ZM47.7244 107.667H47.7513V101.667H47.7244V107.667ZM47.6976 107.667H47.7244V101.667H47.6976V107.667ZM47.6712 107.667H47.6976V101.667H47.6712V107.667ZM47.645 107.667H47.6712V101.667H47.645V107.667ZM47.619 107.667H47.645V101.667H47.619V107.667ZM8.66667 64.5873C8.66667 87.3925 25.1822 107.667 47.619 107.667V101.667C29.2054 101.667 14.6667 84.8359 14.6667 64.5873H8.66667ZM47.619 21.5079C25.1822 21.5079 8.66667 41.7821 8.66667 64.5873H14.6667C14.6667 44.3387 29.2054 27.5079 47.619 27.5079V21.5079ZM58.0044 23.0662C54.7064 22.0559 51.2229 21.5079 47.619 21.5079V27.5079C50.6105 27.5079 53.5023 27.9622 56.247 28.803L58.0044 23.0662ZM49.6825 24.254C51.7671 24.254 53.5714 25.4651 54.4219 27.2343L59.8295 24.6349C58.0171 20.8645 54.1581 18.254 49.6825 18.254V24.254ZM46.6825 13V21.254H52.6825V13H46.6825ZM68.5256 24.4428C66.2947 16.127 58.7076 10 49.6825 10V16C55.9244 16 61.1853 20.2374 62.7305 25.9975L68.5256 24.4428Z" fill="white" mask="url(#path-1-outside-1)"/>
</g>
<path d="M72.381 29.5079C67.9775 29.5079 63.7927 30.5644 60 32.4463C56.2073 30.5644 52.0225 29.5079 47.619 29.5079C30.5251 29.5079 16.6667 45.2152 16.6667 64.5873C16.6667 83.9594 30.5251 99.6667 47.619 99.6667C52.0225 99.6667 67.9775 99.6667 72.381 99.6667C89.4749 99.6667 103.333 83.9594 103.333 64.5873C103.333 45.2152 89.4749 29.5079 72.381 29.5079Z" fill="#E3720A"/>
<path d="M60 32.4463C60 32.4463 67.9775 29.5079 72.3809 29.5079C89.4749 29.5079 103.333 45.2152 103.333 64.5873C103.333 83.9594 89.4749 99.6667 72.3809 99.6667H58.5143L60 33.0571V32.4463Z" fill="#C74B06"/>
<path d="M31.1111 64.5873C31.1111 49.8663 36.5216 36.986 44.6394 29.6771C28.9444 31.3775 16.6667 46.3502 16.6667 64.5873C16.6667 82.8203 28.9444 97.7971 44.6394 99.4975C36.5216 92.1886 31.1111 79.3083 31.1111 64.5873Z" fill="#F18B2E"/>
<path d="M75.3606 29.6771C83.4784 36.9819 88.8888 49.8663 88.8888 64.5873C88.8888 79.3083 83.4784 92.1886 75.3606 99.4975C91.0555 97.7971 103.333 82.8244 103.333 64.5873C103.333 46.3543 91.0555 31.3775 75.3606 29.6771Z" fill="#AF3704"/>
<path d="M44.3711 85.6803C40.1451 82.0032 37.4584 76.4937 37.3429 70.7778V70.7737H46.1333V74.1619H53.0667V70.7737H62.9714V76.1429H68.9143V70.7737H82.6984C82.5416 78.6644 77.4696 85.7752 70.1978 89.1222L69.554 84.6816L61.3867 85.8702L62.1626 91.2187C61.4486 91.2806 60.7553 91.4127 60.0207 91.4127C56.9997 91.4127 54.1232 90.8597 51.4861 89.8816L53.7188 85.7298L46.4511 81.8175L44.3711 85.6803Z" fill="white" stroke="black" stroke-width="3"/>
<path d="M57.9365 29.5079V31.559C58.6298 31.8397 59.3273 32.1121 60 32.4463C61.9645 31.4724 64.0403 30.7295 66.1905 30.2302V29.5079C66.1905 20.3914 58.7991 13 49.6825 13V21.254C54.2429 21.254 57.9365 24.9476 57.9365 29.5079Z" fill="#449D4D" stroke="black" stroke-width="3"/>
<path d="M72.381 29.5079C67.9775 29.5079 63.7927 30.5644 60 32.4463C56.2073 30.5644 52.0225 29.5079 47.619 29.5079C30.5251 29.5079 16.6667 45.2152 16.6667 64.5873C16.6667 83.9594 30.5251 99.6667 47.619 99.6667C52.0225 99.6667 67.9775 99.6667 72.381 99.6667C89.4749 99.6667 103.333 83.9594 103.333 64.5873C103.333 45.2152 89.4749 29.5079 72.381 29.5079Z" stroke="black" stroke-width="3"/>
<path d="M38.2095 59.3048C38.2095 58.1341 38.4401 56.9749 38.8881 55.8934C39.3361 54.8119 39.9927 53.8292 40.8205 53.0014C41.6482 52.1736 42.6309 51.517 43.7125 51.069C44.794 50.6211 45.9532 50.3905 47.1238 50.3905C48.2945 50.3905 49.4536 50.6211 50.5352 51.069C51.6167 51.517 52.5994 52.1736 53.4272 53.0014C54.2549 53.8292 54.9116 54.8119 55.3595 55.8934C55.8075 56.975 56.0381 58.1341 56.0381 59.3048L52.4724 59.3048C52.4724 58.6024 52.334 57.9069 52.0652 57.258C51.7965 56.609 51.4025 56.0194 50.9058 55.5228C50.4092 55.0261 49.8195 54.6321 49.1706 54.3633C48.5217 54.0945 47.8262 53.9562 47.1238 53.9562C46.4214 53.9562 45.7259 54.0945 45.077 54.3633C44.4281 54.6321 43.8385 55.0261 43.3418 55.5228C42.8451 56.0194 42.4512 56.609 42.1824 57.258C41.9136 57.9069 41.7752 58.6024 41.7752 59.3048L38.2095 59.3048Z" fill="black"/>
<path d="M63.9619 59.3048C63.9619 58.1341 64.1925 56.9749 64.6405 55.8934C65.0885 54.8119 65.7451 53.8292 66.5728 53.0014C67.4006 52.1736 68.3833 51.517 69.4648 51.069C70.5464 50.6211 71.7056 50.3905 72.8762 50.3905C74.0468 50.3905 75.206 50.6211 76.2875 51.069C77.3691 51.517 78.3518 52.1736 79.1795 53.0014C80.0073 53.8292 80.6639 54.8119 81.1119 55.8934C81.5599 56.975 81.7905 58.1341 81.7905 59.3048L78.2248 59.3048C78.2248 58.6024 78.0864 57.9069 77.8176 57.258C77.5488 56.609 77.1549 56.0194 76.6582 55.5228C76.1615 55.0261 75.5719 54.6321 74.923 54.3633C74.2741 54.0945 73.5786 53.9562 72.8762 53.9562C72.1738 53.9562 71.4783 54.0945 70.8294 54.3633C70.1805 54.6321 69.5908 55.0261 69.0942 55.5228C68.5975 56.0194 68.2036 56.609 67.9348 57.258C67.666 57.9069 67.5276 58.6024 67.5276 59.3048L63.9619 59.3048Z" fill="black"/>
</g>
<defs>
<filter id="filter0_d" x="-1.33333" y="0" width="122.667" height="117.667" filterUnits="userSpaceOnUse" color-interpolation-filters="sRGB">
<feFlood flood-opacity="0" result="BackgroundImageFix"/>
<feColorMatrix in="SourceAlpha" type="matrix" values="0 0 0 0 0 0 0 0 0 0 0 0 0 0 0 0 0 0 127 0"/>
<feOffset/>
<feGaussianBlur stdDeviation="5"/>
<feColorMatrix type="matrix" values="0 0 0 0 0 0 0 0 0 0 0 0 0 0 0 0 0 0 0.25 0"/>
<feBlend mode="normal" in2="BackgroundImageFix" result="effect1_dropShadow"/>
<feBlend mode="normal" in="SourceGraphic" in2="effect1_dropShadow" result="shape"/>
</filter>
<clipPath id="clip0">
<rect width="120" height="120" fill="white"/>
</clipPath>
</defs>
</svg>
