<svg width="120" height="120" viewBox="0 0 120 120" fill="none" xmlns="http://www.w3.org/2000/svg">
<g clip-path="url(#clip0)">
<g filter="url(#filter0_d)">
<mask id="path-1-outside-1" maskUnits="userSpaceOnUse" x="6.5945" y="15" width="106" height="90" fill="black">
<rect fill="white" x="6.5945" y="15" width="106" height="90"/>
<path fill-rule="evenodd" clip-rule="evenodd" d="M96.3738 49.3737L94.4591 52.6902C93.9503 44.2282 90.3636 36.2148 84.3353 30.1865C77.813 23.6642 68.9669 20 59.7429 20C50.519 20 41.6729 23.6642 35.1506 30.1865C29.3015 36.0356 25.7509 43.7537 25.0803 51.9371L23.6004 49.3737C21.9718 46.553 18.365 45.5865 15.5442 47.2151C12.7235 48.8436 11.757 52.4505 13.3856 55.2712L23.638 73.0289C23.7855 73.2844 23.9492 73.5246 24.1271 73.7491C22.7112 88.1629 19.8796 94.4664 18.6666 97.1664C17.9399 98.7841 17.7943 99.1083 18.8823 99.1083C23.6342 99.1083 26.3304 97.7543 28.7134 96.5575C30.6003 95.6099 32.2908 94.761 34.6499 94.761C37.2322 94.761 38.9449 95.7781 40.7133 96.8285C42.6009 97.9495 44.552 99.1083 47.692 99.1083C50.8481 99.1083 52.5969 97.9375 54.2794 96.8111C55.839 95.767 57.3417 94.761 59.8556 94.761C62.3694 94.761 63.8721 95.767 65.4317 96.8111C67.1142 97.9375 68.863 99.1083 72.0192 99.1083C75.1786 99.1083 77.1709 97.9351 79.0855 96.8076C80.8565 95.7647 82.561 94.761 85.0612 94.761C87.3358 94.761 88.9862 95.5917 90.8441 96.5268C93.2365 97.731 95.9729 99.1083 100.829 99.1083C101.809 99.1083 101.668 98.8086 100.98 97.3477C99.7721 94.7821 96.8786 88.6353 95.4096 74.2417C95.7619 73.8873 96.0746 73.482 96.3362 73.0289L106.589 55.2712C108.217 52.4505 107.251 48.8436 104.43 47.2151C101.609 45.5865 98.0024 46.553 96.3738 49.3737Z"/>
</mask>
<path fill-rule="evenodd" clip-rule="evenodd" d="M96.3738 49.3737L94.4591 52.6902C93.9503 44.2282 90.3636 36.2148 84.3353 30.1865C77.813 23.6642 68.9669 20 59.7429 20C50.519 20 41.6729 23.6642 35.1506 30.1865C29.3015 36.0356 25.7509 43.7537 25.0803 51.9371L23.6004 49.3737C21.9718 46.553 18.365 45.5865 15.5442 47.2151C12.7235 48.8436 11.757 52.4505 13.3856 55.2712L23.638 73.0289C23.7855 73.2844 23.9492 73.5246 24.1271 73.7491C22.7112 88.1629 19.8796 94.4664 18.6666 97.1664C17.9399 98.7841 17.7943 99.1083 18.8823 99.1083C23.6342 99.1083 26.3304 97.7543 28.7134 96.5575C30.6003 95.6099 32.2908 94.761 34.6499 94.761C37.2322 94.761 38.9449 95.7781 40.7133 96.8285C42.6009 97.9495 44.552 99.1083 47.692 99.1083C50.8481 99.1083 52.5969 97.9375 54.2794 96.8111C55.839 95.767 57.3417 94.761 59.8556 94.761C62.3694 94.761 63.8721 95.767 65.4317 96.8111C67.1142 97.9375 68.863 99.1083 72.0192 99.1083C75.1786 99.1083 77.1709 97.9351 79.0855 96.8076C80.8565 95.7647 82.561 94.761 85.0612 94.761C87.3358 94.761 88.9862 95.5917 90.8441 96.5268C93.2365 97.731 95.9729 99.1083 100.829 99.1083C101.809 99.1083 101.668 98.8086 100.98 97.3477C99.7721 94.7821 96.8786 88.6353 95.4096 74.2417C95.7619 73.8873 96.0746 73.482 96.3362 73.0289L106.589 55.2712C108.217 52.4505 107.251 48.8436 104.43 47.2151C101.609 45.5865 98.0024 46.553 96.3738 49.3737Z" fill="white"/>
<path d="M94.4591 52.6902L89.4681 52.9903L90.467 69.6047L98.7892 55.1902L94.4591 52.6902ZM96.3738 49.3737L92.0437 46.8737L92.0437 46.8737L96.3738 49.3737ZM84.3353 30.1865L87.8708 26.651L87.8708 26.6509L84.3353 30.1865ZM35.1506 30.1865L38.6861 33.722L38.6861 33.722L35.1506 30.1865ZM25.0803 51.9371L20.7502 54.4371L28.756 68.3035L30.0636 52.3455L25.0803 51.9371ZM23.6004 49.3737L19.2702 51.8737L19.2702 51.8737L23.6004 49.3737ZM15.5442 47.2151L18.0442 51.5452L18.0442 51.5452L15.5442 47.2151ZM13.3856 55.2712L9.05547 57.7712L9.05547 57.7712L13.3856 55.2712ZM23.638 73.0289L27.9681 70.5289L27.9681 70.5289L23.638 73.0289ZM24.1271 73.7491L29.1031 74.2379L29.3006 72.2273L28.0459 70.6438L24.1271 73.7491ZM18.6666 97.1664L14.1057 95.1176L14.1057 95.1176L18.6666 97.1664ZM28.7134 96.5575L26.4695 92.0893L26.4695 92.0893L28.7134 96.5575ZM40.7133 96.8285L38.1601 101.127L38.1601 101.127L40.7133 96.8285ZM54.2794 96.8111L57.061 100.966L57.061 100.966L54.2794 96.8111ZM65.4317 96.8111L62.6501 100.966L62.6501 100.966L65.4317 96.8111ZM79.0855 96.8076L76.5483 92.4992L76.5483 92.4992L79.0855 96.8076ZM90.8441 96.5268L88.5961 100.993L88.5962 100.993L90.8441 96.5268ZM100.98 97.3477L105.504 95.2181L105.504 95.2181L100.98 97.3477ZM95.4096 74.2417L91.8636 70.7167L90.1952 72.395L90.4355 74.7493L95.4096 74.2417ZM96.3362 73.0289L100.666 75.5289L100.666 75.5289L96.3362 73.0289ZM106.589 55.2712L102.258 52.7712L102.258 52.7712L106.589 55.2712ZM104.43 47.2151L101.93 51.5452L101.93 51.5452L104.43 47.2151ZM98.7892 55.1902L100.704 51.8737L92.0437 46.8737L90.1289 50.1902L98.7892 55.1902ZM80.7998 33.722C85.9613 38.8836 89.0325 45.745 89.4681 52.9903L99.4501 52.3901C98.8681 42.7113 94.7658 33.5459 87.8708 26.651L80.7998 33.722ZM59.7429 25C67.6408 25 75.2151 28.1374 80.7998 33.722L87.8708 26.6509C80.4109 19.191 70.2929 15 59.7429 15V25ZM38.6861 33.722C44.2708 28.1374 51.8451 25 59.7429 25V15C49.1929 15 39.075 19.191 31.6151 26.651L38.6861 33.722ZM30.0636 52.3455C30.6378 45.3387 33.678 38.7302 38.6861 33.722L31.6151 26.651C24.9249 33.3411 20.864 42.1687 20.097 51.5288L30.0636 52.3455ZM19.2702 51.8737L20.7502 54.4371L29.4105 49.4371L27.9305 46.8737L19.2702 51.8737ZM18.0442 51.5452C18.4735 51.2974 19.0224 51.4445 19.2702 51.8737L27.9305 46.8737C24.9212 41.6615 18.2564 39.8757 13.0442 42.885L18.0442 51.5452ZM17.7157 52.7712C17.4679 52.342 17.615 51.7931 18.0442 51.5452L13.0442 42.885C7.83203 45.8942 6.04621 52.559 9.05547 57.7712L17.7157 52.7712ZM27.9681 70.5289L17.7157 52.7712L9.05547 57.7712L19.3079 75.5289L27.9681 70.5289ZM28.0459 70.6438C28.0192 70.6102 27.9931 70.5722 27.9681 70.5289L19.3079 75.5289C19.5779 75.9966 19.8791 76.439 20.2082 76.8543L28.0459 70.6438ZM23.2276 99.2153C24.628 96.0979 27.6267 89.2686 29.1031 74.2379L19.151 73.2603C17.7958 87.0572 15.1311 92.8348 14.1057 95.1176L23.2276 99.2153ZM18.8823 94.1083C18.8497 94.1083 18.955 94.1059 19.1354 94.1279C19.2935 94.1472 19.7363 94.2101 20.2817 94.4473C20.8783 94.7068 21.6784 95.2134 22.2966 96.135C22.9108 97.0506 23.0724 97.9689 23.0916 98.5895C23.1213 99.5513 22.8109 100.199 22.9095 99.9418C22.9464 99.8458 23.0227 99.6713 23.2276 99.2153L14.1057 95.1176C13.9472 95.4704 13.7329 95.9431 13.572 96.3628C13.4729 96.6213 13.0579 97.6535 13.0963 98.8985C13.1199 99.6608 13.3142 100.695 13.9921 101.706C14.6739 102.722 15.5685 103.302 16.2932 103.617C17.4682 104.129 18.6102 104.108 18.8823 104.108V94.1083ZM26.4695 92.0893C24.2956 93.1811 22.4492 94.1083 18.8823 94.1083V104.108C24.8192 104.108 28.3653 102.327 30.9574 101.026L26.4695 92.0893ZM34.6499 89.761C30.9675 89.761 28.3022 91.169 26.4695 92.0893L30.9573 101.026C32.8984 100.051 33.6142 99.761 34.6499 99.761V89.761ZM43.2665 92.5295C41.5062 91.484 38.7363 89.761 34.6499 89.761V99.761C35.7281 99.761 36.3835 100.072 38.1601 101.127L43.2665 92.5295ZM47.692 94.1083C46.0133 94.1083 45.0799 93.6065 43.2665 92.5295L38.1601 101.127C40.1219 102.293 43.0907 104.108 47.692 104.108V94.1083ZM51.4978 92.6563C50.6164 93.2464 50.1425 93.5474 49.6178 93.7657C49.1774 93.9489 48.6034 94.1083 47.692 94.1083V104.108C52.4162 104.108 55.2231 102.196 57.061 100.966L51.4978 92.6563ZM59.8556 89.761C55.7136 89.761 53.1093 91.5774 51.4978 92.6563L57.061 100.966C57.8945 100.408 58.2923 100.157 58.6915 99.9849C58.9907 99.8558 59.3227 99.761 59.8556 99.761V89.761ZM68.2133 92.6563C66.6018 91.5774 63.9975 89.761 59.8556 89.761V99.761C60.3885 99.761 60.7204 99.8558 61.0196 99.9849C61.4188 100.157 61.8166 100.408 62.6501 100.966L68.2133 92.6563ZM72.0192 94.1083C71.1078 94.1083 70.5337 93.9489 70.0933 93.7657C69.5687 93.5474 69.0948 93.2464 68.2133 92.6563L62.6501 100.966C64.4881 102.196 67.295 104.108 72.0192 104.108V94.1083ZM76.5483 92.4992C74.6982 93.5886 73.7227 94.1083 72.0192 94.1083V104.108C76.6345 104.108 79.6435 102.282 81.6227 101.116L76.5483 92.4992ZM85.0612 89.761C81.0554 89.761 78.2861 91.4758 76.5483 92.4992L81.6227 101.116C83.4268 100.054 84.0666 99.761 85.0612 99.761V89.761ZM93.0921 92.0607C91.3019 91.1596 88.6677 89.761 85.0612 89.761V99.761C86.0038 99.761 86.6705 100.024 88.5961 100.993L93.0921 92.0607ZM100.829 94.1083C97.1552 94.1083 95.2668 93.1553 93.0921 92.0607L88.5962 100.993C91.2061 102.307 94.7906 104.108 100.829 104.108V94.1083ZM96.4561 99.4772C96.6516 99.8925 96.7193 100.04 96.7502 100.117C96.8459 100.353 96.5252 99.7082 96.5298 98.7516C96.5328 98.1378 96.6663 97.2021 97.2691 96.2539C97.881 95.2914 98.6981 94.7531 99.3206 94.4746C99.887 94.2212 100.353 94.1527 100.526 94.131C100.633 94.1177 100.713 94.1126 100.757 94.1105C100.803 94.1083 100.829 94.1083 100.829 94.1083V104.108C101.072 104.108 102.221 104.132 103.404 103.603C104.141 103.273 105.041 102.668 105.708 101.619C106.366 100.584 106.526 99.5427 106.53 98.8001C106.536 97.586 106.112 96.5924 106.018 96.3614C105.86 95.9706 105.652 95.5333 105.504 95.2181L96.4561 99.4772ZM90.4355 74.7493C91.969 89.7756 95.0397 96.4686 96.4561 99.4773L105.504 95.2181C104.505 93.0956 101.788 87.4951 100.384 73.734L90.4355 74.7493ZM92.0061 70.5289C91.9623 70.6047 91.914 70.666 91.8636 70.7167L98.9557 77.7667C99.6098 77.1087 100.187 76.3594 100.666 75.5289L92.0061 70.5289ZM102.258 52.7712L92.006 70.5289L100.666 75.5289L110.919 57.7712L102.258 52.7712ZM101.93 51.5452C102.359 51.7931 102.506 52.342 102.258 52.7712L110.919 57.7712C113.928 52.559 112.142 45.8942 106.93 42.885L101.93 51.5452ZM100.704 51.8737C100.952 51.4445 101.501 51.2974 101.93 51.5452L106.93 42.885C101.718 39.8757 95.053 41.6615 92.0437 46.8737L100.704 51.8737Z" fill="white" mask="url(#path-1-outside-1)"/>
</g>
<path fill-rule="evenodd" clip-rule="evenodd" d="M94.4591 52.6902L96.3738 49.3737C98.0024 46.553 101.609 45.5865 104.43 47.2151C107.251 48.8436 108.217 52.4505 106.589 55.2712L96.3362 73.0289C96.0746 73.482 95.7619 73.8873 95.4096 74.2417C96.8786 88.6353 99.7721 94.7821 100.98 97.3477C101.668 98.8086 101.809 99.1083 100.829 99.1083C95.9729 99.1083 93.2365 97.731 90.8441 96.5268C88.9862 95.5917 87.3358 94.761 85.0612 94.761C82.561 94.761 80.8565 95.7647 79.0855 96.8076C77.1709 97.9351 75.1786 99.1083 72.0192 99.1083C68.863 99.1083 67.1142 97.9375 65.4317 96.8111C63.8721 95.767 62.3695 94.761 59.8556 94.761C57.3417 94.761 55.839 95.767 54.2794 96.8111C52.5969 97.9375 50.8481 99.1083 47.692 99.1083C44.552 99.1083 42.6009 97.9495 40.7133 96.8285C38.9449 95.7781 37.2322 94.761 34.6499 94.761C32.2908 94.761 30.6003 95.6099 28.7134 96.5575C26.3304 97.7543 23.6342 99.1083 18.8823 99.1083C17.7943 99.1083 17.9399 98.7841 18.6666 97.1664C19.8796 94.4664 22.7112 88.1629 24.1271 73.7491C23.9492 73.5246 23.7855 73.2844 23.638 73.0289L13.3856 55.2712C11.757 52.4505 12.7235 48.8436 15.5442 47.2151C18.365 45.5865 21.9718 46.553 23.6004 49.3737L25.0803 51.9371C25.7509 43.7537 29.3015 36.0356 35.1506 30.1865C41.6729 23.6642 50.519 20 59.7429 20C68.9669 20 77.813 23.6642 84.3353 30.1865C90.3636 36.2148 93.9503 44.2282 94.4591 52.6902Z" fill="white"/>
<path d="M96.3738 49.3737L95.0748 48.6237L95.0748 48.6237L96.3738 49.3737ZM94.4591 52.6902L92.9618 52.7802L93.2614 57.7646L95.7581 53.4402L94.4591 52.6902ZM104.43 47.2151L103.68 48.5141L103.68 48.5141L104.43 47.2151ZM106.589 55.2712L105.29 54.5212L105.29 54.5212L106.589 55.2712ZM96.3362 73.0289L97.6352 73.7789L97.6352 73.7789L96.3362 73.0289ZM95.4096 74.2417L94.3458 73.1842L93.8453 73.6877L93.9174 74.394L95.4096 74.2417ZM100.98 97.3477L102.337 96.7088L102.337 96.7088L100.98 97.3477ZM90.8441 96.5268L90.1697 97.8667L90.1697 97.8667L90.8441 96.5268ZM79.0855 96.8076L78.3244 95.5151L78.3243 95.5151L79.0855 96.8076ZM65.4317 96.8111L64.5972 98.0576L64.5972 98.0576L65.4317 96.8111ZM54.2794 96.8111L55.1139 98.0576L55.1139 98.0576L54.2794 96.8111ZM40.7133 96.8285L39.9474 98.1181L39.9474 98.1181L40.7133 96.8285ZM28.7134 96.5575L28.0402 95.2171L28.0402 95.2171L28.7134 96.5575ZM18.6666 97.1664L17.2984 96.5518L17.2984 96.5518L18.6666 97.1664ZM24.1271 73.7491L25.6199 73.8957L25.6791 73.2925L25.3027 72.8175L24.1271 73.7491ZM23.638 73.0289L24.9371 72.2789L24.9371 72.2789L23.638 73.0289ZM13.3856 55.2712L12.0866 56.0212L12.0866 56.0212L13.3856 55.2712ZM15.5442 47.2151L16.2942 48.5141L16.2942 48.5141L15.5442 47.2151ZM23.6004 49.3737L22.3013 50.1237L22.3013 50.1237L23.6004 49.3737ZM25.0803 51.9371L23.7813 52.6871L26.183 56.847L26.5753 52.0596L25.0803 51.9371ZM35.1506 30.1865L36.2113 31.2471L36.2113 31.2471L35.1506 30.1865ZM84.3353 30.1865L85.396 29.1258L85.396 29.1258L84.3353 30.1865ZM95.0748 48.6237L93.16 51.9402L95.7581 53.4402L97.6729 50.1237L95.0748 48.6237ZM105.18 45.916C101.642 43.8733 97.1176 45.0856 95.0748 48.6237L97.6729 50.1237C98.8872 48.0204 101.577 47.2998 103.68 48.5141L105.18 45.916ZM107.888 56.0212C109.93 52.483 108.718 47.9588 105.18 45.916L103.68 48.5141C105.783 49.7285 106.504 52.4179 105.29 54.5212L107.888 56.0212ZM97.6352 73.7789L107.888 56.0212L105.29 54.5212L95.0371 72.2789L97.6352 73.7789ZM96.4735 75.2992C96.9163 74.8537 97.3082 74.3453 97.6352 73.7789L95.0371 72.2789C94.8409 72.6188 94.6075 72.9209 94.3458 73.1842L96.4735 75.2992ZM102.337 96.7088C101.192 94.2761 98.3514 88.2933 96.9019 74.0894L93.9174 74.394C95.4057 88.9774 98.3524 95.288 99.6228 97.9865L102.337 96.7088ZM100.829 100.608C101.073 100.608 101.54 100.602 101.975 100.408C102.236 100.291 102.535 100.086 102.754 99.7412C102.971 99.4006 103.028 99.051 103.03 98.7831C103.032 98.3288 102.869 97.9086 102.774 97.6758C102.661 97.3951 102.502 97.059 102.337 96.7088L99.6228 97.9865C99.8018 98.3668 99.9185 98.616 99.994 98.8024C100.03 98.8919 100.044 98.9352 100.047 98.9472C100.052 98.9658 100.029 98.8944 100.03 98.7686C100.03 98.6295 100.061 98.3859 100.223 98.1317C100.387 97.8732 100.603 97.7352 100.75 97.6695C100.819 97.6384 100.875 97.6224 100.907 97.6145C100.939 97.6065 100.959 97.6042 100.959 97.6041C100.96 97.604 100.951 97.6052 100.927 97.6064C100.904 97.6075 100.872 97.6083 100.829 97.6083V100.608ZM90.1697 97.8667C92.6274 99.1037 95.6182 100.608 100.829 100.608V97.6083C96.3276 97.6083 93.8456 96.3583 91.5185 95.187L90.1697 97.8667ZM85.0612 96.261C86.9362 96.261 88.2915 96.9213 90.1697 97.8667L91.5185 95.187C89.6809 94.2621 87.7353 93.261 85.0612 93.261V96.261ZM79.8467 98.1001C81.6276 97.0514 83.0127 96.261 85.0612 96.261V93.261C82.1093 93.261 80.0854 94.4781 78.3244 95.5151L79.8467 98.1001ZM72.0192 100.608C75.6154 100.608 77.9127 99.239 79.8467 98.1001L78.3243 95.5151C76.4291 96.6312 74.7418 97.6083 72.0192 97.6083V100.608ZM64.5972 98.0576C66.3264 99.2152 68.3926 100.608 72.0192 100.608V97.6083C69.3334 97.6083 67.9021 96.6599 66.2662 95.5647L64.5972 98.0576ZM59.8556 96.261C61.881 96.261 63.0532 97.0239 64.5972 98.0576L66.2662 95.5647C64.691 94.5101 62.8579 93.261 59.8556 93.261V96.261ZM55.1139 98.0576C56.6579 97.0239 57.8301 96.261 59.8556 96.261V93.261C56.8533 93.261 55.0201 94.5101 53.4449 95.5647L55.1139 98.0576ZM47.692 100.608C51.3186 100.608 53.3848 99.2152 55.1139 98.0576L53.4449 95.5647C51.8091 96.6599 50.3777 97.6083 47.692 97.6083V100.608ZM39.9474 98.1181C41.8572 99.2524 44.1136 100.608 47.692 100.608V97.6083C44.9904 97.6083 43.3446 96.6466 41.4793 95.5388L39.9474 98.1181ZM34.6499 96.261C36.781 96.261 38.1765 97.0664 39.9474 98.1181L41.4793 95.5388C39.7133 94.4899 37.6834 93.261 34.6499 93.261V96.261ZM29.3866 97.898C31.2898 96.9422 32.6878 96.261 34.6499 96.261V93.261C31.8938 93.261 29.9109 94.2776 28.0402 95.2171L29.3866 97.898ZM18.8823 100.608C23.9897 100.608 26.9409 99.1262 29.3866 97.898L28.0402 95.2171C25.72 96.3823 23.2787 97.6083 18.8823 97.6083V100.608ZM17.2984 96.5518C17.1236 96.9407 16.9576 97.309 16.8401 97.6155C16.7412 97.8735 16.5801 98.3177 16.5947 98.7904C16.6033 99.0686 16.673 99.4197 16.8987 99.7561C17.1255 100.094 17.427 100.294 17.6892 100.408C18.1313 100.6 18.6103 100.608 18.8823 100.608V97.6083C18.7773 97.6083 18.7272 97.6041 18.7122 97.6022C18.6906 97.5996 18.7669 97.6052 18.8857 97.6569C19.0199 97.7152 19.2268 97.8415 19.39 98.0848C19.552 98.3263 19.589 98.561 19.5932 98.6977C19.597 98.8197 19.576 98.8865 19.5825 98.8611C19.5873 98.8422 19.6027 98.79 19.6414 98.6892C19.7216 98.4799 19.8463 98.201 20.0349 97.7811L17.2984 96.5518ZM22.6342 73.6024C21.2366 87.8312 18.455 93.9769 17.2984 96.5518L20.0349 97.7811C21.3041 94.9558 24.1858 88.4946 25.6199 73.8957L22.6342 73.6024ZM22.339 73.7789C22.5232 74.098 22.7282 74.3989 22.9514 74.6806L25.3027 72.8175C25.1702 72.6503 25.0478 72.4707 24.9371 72.2789L22.339 73.7789ZM12.0866 56.0212L22.339 73.7789L24.9371 72.2789L14.6846 54.5212L12.0866 56.0212ZM14.7942 45.9161C11.2561 47.9588 10.0438 52.4831 12.0866 56.0212L14.6846 54.5212C13.4703 52.4179 14.1909 49.7285 16.2942 48.5141L14.7942 45.9161ZM24.8994 48.6237C22.8566 45.0856 18.3324 43.8733 14.7942 45.9161L16.2942 48.5141C18.3975 47.2998 21.087 48.0204 22.3013 50.1237L24.8994 48.6237ZM26.3794 51.1871L24.8994 48.6237L22.3013 50.1237L23.7813 52.6871L26.3794 51.1871ZM34.0899 29.1258C27.9885 35.2273 24.2848 43.2782 23.5853 51.8146L26.5753 52.0596C27.217 44.2292 30.6144 36.844 36.2113 31.2471L34.0899 29.1258ZM59.7429 18.5C50.1212 18.5 40.8935 22.3222 34.0899 29.1258L36.2113 31.2471C42.4523 25.0062 50.9169 21.5 59.7429 21.5V18.5ZM85.396 29.1258C78.5924 22.3222 69.3647 18.5 59.7429 18.5V21.5C68.569 21.5 77.0336 25.0062 83.2746 31.2471L85.396 29.1258ZM95.9564 52.6002C95.4256 43.7731 91.6842 35.4141 85.396 29.1258L83.2746 31.2471C89.0429 37.0154 92.4749 44.6832 92.9618 52.7802L95.9564 52.6002Z" fill="black"/>
<path d="M38.1188 58.0265C38.1188 56.8648 38.3476 55.7145 38.7922 54.6412C39.2368 53.568 39.8884 52.5928 40.7098 51.7713C41.5313 50.9499 42.5065 50.2982 43.5797 49.8537C44.653 49.4091 45.8033 49.1803 46.9651 49.1803C48.1268 49.1803 49.2771 49.4091 50.3504 49.8537C51.4236 50.2982 52.3988 50.9499 53.2203 51.7713C54.0417 52.5928 54.6934 53.568 55.1379 54.6412C55.5825 55.7145 55.8113 56.8648 55.8113 58.0265L52.2728 58.0265C52.2728 57.3295 52.1355 56.6393 51.8688 55.9954C51.602 55.3514 51.2111 54.7663 50.7182 54.2734C50.2253 53.7805 49.6402 53.3896 48.9962 53.1228C48.3523 52.8561 47.6621 52.7188 46.9651 52.7188C46.268 52.7188 45.5778 52.8561 44.9339 53.1228C44.2899 53.3896 43.7048 53.7805 43.2119 54.2734C42.719 54.7663 42.3281 55.3514 42.0613 55.9954C41.7946 56.6393 41.6573 57.3295 41.6573 58.0265L38.1188 58.0265Z" fill="black"/>
<path d="M64.6576 58.0265C64.6576 56.8648 64.8864 55.7145 65.3309 54.6412C65.7755 53.568 66.4271 52.5928 67.2486 51.7713C68.07 50.9499 69.0452 50.2982 70.1185 49.8537C71.1918 49.4091 72.3421 49.1803 73.5038 49.1803C74.6655 49.1803 75.8158 49.4091 76.8891 49.8537C77.9624 50.2982 78.9376 50.9499 79.759 51.7713C80.5805 52.5928 81.2321 53.568 81.6767 54.6412C82.1212 55.7145 82.35 56.8648 82.35 58.0265L78.8115 58.0265C78.8115 57.3295 78.6743 56.6393 78.4075 55.9954C78.1408 55.3514 77.7498 54.7663 77.2569 54.2734C76.7641 53.7805 76.1789 53.3896 75.535 53.1228C74.891 52.8561 74.2008 52.7188 73.5038 52.7188C72.8068 52.7188 72.1166 52.8561 71.4726 53.1228C70.8286 53.3896 70.2435 53.7805 69.7507 54.2734C69.2578 54.7663 68.8668 55.3514 68.6001 55.9954C68.3333 56.6393 68.1961 57.3295 68.196 58.0265L64.6576 58.0265Z" fill="black"/>
<rect x="53.3796" y="71.3215" width="12.7267" height="12.7267" rx="6.36333" fill="white" stroke="black" stroke-width="3"/>
</g>
<defs>
<filter id="filter0_d" x="-2.40634" y="5" width="124.787" height="109.108" filterUnits="userSpaceOnUse" color-interpolation-filters="sRGB">
<feFlood flood-opacity="0" result="BackgroundImageFix"/>
<feColorMatrix in="SourceAlpha" type="matrix" values="0 0 0 0 0 0 0 0 0 0 0 0 0 0 0 0 0 0 127 0"/>
<feOffset/>
<feGaussianBlur stdDeviation="5"/>
<feColorMatrix type="matrix" values="0 0 0 0 0 0 0 0 0 0 0 0 0 0 0 0 0 0 0.25 0"/>
<feBlend mode="normal" in2="BackgroundImageFix" result="effect1_dropShadow"/>
<feBlend mode="normal" in="SourceGraphic" in2="effect1_dropShadow" result="shape"/>
</filter>
<clipPath id="clip0">
<rect width="120" height="120" fill="white"/>
</clipPath>
</defs>
</svg>
