<svg width="120" height="120" viewBox="0 0 120 120" fill="none" xmlns="http://www.w3.org/2000/svg">
<g filter="url(#filter0_d)">
<mask id="path-1-outside-1" maskUnits="userSpaceOnUse" x="20" y="15" width="81" height="91" fill="black">
<rect fill="white" x="20" y="15" width="81" height="91"/>
<path fill-rule="evenodd" clip-rule="evenodd" d="M43.0003 18C31.9546 18 23 26.9543 23 38V83C23 94.0457 31.9543 103 43 103H78C89.0457 103 98 94.0437 98 82.998V39.5V38.0003C98 37.3252 97.9666 36.6579 97.9012 36H94.3085C93.8151 34.1975 92.4946 32.7036 90.7364 32.0059C90.9339 29.4015 89.0344 27.0881 86.4177 26.7945C86.3594 26.7879 86.3013 26.7824 86.2433 26.778C86.0104 23.9799 83.8284 21.6445 80.9325 21.3195C79.3613 21.1432 77.8639 21.5905 76.6874 22.4642C75.9992 22.0572 75.2185 21.7822 74.376 21.6776C74.1295 20.4904 74 19.2603 74 18H43.0003Z"/>
</mask>
<path fill-rule="evenodd" clip-rule="evenodd" d="M43.0003 18C31.9546 18 23 26.9543 23 38V83C23 94.0457 31.9543 103 43 103H78C89.0457 103 98 94.0437 98 82.998V39.5V38.0003C98 37.3252 97.9666 36.6579 97.9012 36H94.3085C93.8151 34.1975 92.4946 32.7036 90.7364 32.0059C90.9339 29.4015 89.0344 27.0881 86.4177 26.7945C86.3594 26.7879 86.3013 26.7824 86.2433 26.778C86.0104 23.9799 83.8284 21.6445 80.9325 21.3195C79.3613 21.1432 77.8639 21.5905 76.6874 22.4642C75.9992 22.0572 75.2185 21.7822 74.376 21.6776C74.1295 20.4904 74 19.2603 74 18H43.0003Z" fill="#0B5713"/>
<path d="M97.9012 36L100.887 35.7035L100.618 33H97.9012V36ZM94.3085 36L91.415 36.7921L92.0194 39H94.3085V36ZM90.7364 32.0059L87.7449 31.779L87.578 33.9802L89.6298 34.7944L90.7364 32.0059ZM86.4177 26.7945L86.7522 23.8132L86.7522 23.8132L86.4177 26.7945ZM86.2433 26.778L83.2536 27.0268L83.4656 29.574L86.0142 29.7692L86.2433 26.778ZM80.9325 21.3195L81.267 18.3383L80.9325 21.3195ZM76.6874 22.4642L75.1603 25.0464L76.8758 26.0609L78.4759 24.8727L76.6874 22.4642ZM74.376 21.6776L71.4386 22.2874L71.8752 24.3902L74.0064 24.6547L74.376 21.6776ZM74 18H77V15H74V18ZM26 38C26 28.6112 33.6114 21 43.0003 21V15C30.2979 15 20 25.2974 20 38H26ZM26 83V38H20V83H26ZM43 100C33.6112 100 26 92.3888 26 83H20C20 95.7025 30.2974 106 43 106V100ZM78 100H43V106H78V100ZM95 82.998C95 92.3873 87.3885 100 78 100V106C90.7029 106 101 95.7002 101 82.998H95ZM95 39.5V82.998H101V39.5H95ZM95 38.0003V39.5H101V38.0003H95ZM94.9159 36.2965C94.9715 36.856 95 37.4244 95 38.0003H101C101 37.2261 100.962 36.4598 100.887 35.7035L94.9159 36.2965ZM94.3085 39H97.9012V33H94.3085V39ZM89.6298 34.7944C90.5035 35.1411 91.1681 35.8902 91.415 36.7921L97.202 35.2079C96.4621 32.5048 94.4858 30.2662 91.8429 29.2174L89.6298 34.7944ZM86.0831 29.7757C87.0893 29.8887 87.8208 30.7789 87.7449 31.779L93.7278 32.2328C94.047 28.0241 90.9795 24.2876 86.7522 23.8132L86.0831 29.7757ZM86.0142 29.7692C86.0369 29.771 86.0599 29.7731 86.0831 29.7757L86.7522 23.8132C86.6589 23.8027 86.5656 23.7939 86.4724 23.7868L86.0142 29.7692ZM80.5979 24.3008C82.0425 24.4629 83.1373 25.6292 83.2536 27.0268L89.2329 26.5292C88.8836 22.3306 85.6143 18.8261 81.267 18.3383L80.5979 24.3008ZM78.4759 24.8727C79.0669 24.4339 79.8108 24.2125 80.5979 24.3008L81.267 18.3383C78.9118 18.0739 76.6609 18.7472 74.8988 20.0556L78.4759 24.8727ZM74.0064 24.6547C74.4322 24.7076 74.8199 24.8451 75.1603 25.0464L78.2144 19.8819C77.1786 19.2693 76.0048 18.8567 74.7456 18.7004L74.0064 24.6547ZM71 18C71 19.4664 71.1508 20.9007 71.4386 22.2874L77.3134 21.0678C77.1083 20.08 77 19.0542 77 18H71ZM43.0003 21H74V15H43.0003V21Z" fill="white" mask="url(#path-1-outside-1)"/>
</g>
<path fill-rule="evenodd" clip-rule="evenodd" d="M79.5942 33.2447C80.1607 33.3083 80.7175 33.2908 81.2532 33.2015C81.562 34.1133 82.1353 34.9132 82.8915 35.4989C82.7265 35.9456 82.6124 36.4193 82.5569 36.9138C82.1873 40.2069 84.5573 43.176 87.8503 43.5455C91.1433 43.9151 94.1125 41.5451 94.482 38.2521C94.7905 35.5029 93.1897 32.9794 90.7363 32.0059C90.9339 29.4015 89.0344 27.0881 86.4177 26.7945C86.3594 26.7879 86.3013 26.7824 86.2433 26.778C86.0104 23.9799 83.8284 21.6445 80.9325 21.3195C79.3613 21.1432 77.8639 21.5905 76.6874 22.4642C75.9798 22.0457 75.1744 21.7667 74.3045 21.6691C71.0115 21.2996 68.0424 23.6695 67.6728 26.9626C67.3033 30.2556 69.6732 33.2247 72.9663 33.5943C74.5374 33.7706 76.0349 33.3233 77.2114 32.4496C77.9189 32.8681 78.7244 33.1471 79.5942 33.2447Z" fill="#EB38AE"/>
<mask id="path-4-inside-2" fill="white">
<path fill-rule="evenodd" clip-rule="evenodd" d="M43.0003 18C31.9546 18 23 26.9543 23 38V83C23 94.0457 31.9543 103 43 103H78C89.0457 103 98 94.0437 98 82.998V39.5V38.0003C98 37.3252 97.9666 36.6579 97.9012 36H92C82.0589 36 74 27.9411 74 18H43.0003Z"/>
</mask>
<path fill-rule="evenodd" clip-rule="evenodd" d="M43.0003 18C31.9546 18 23 26.9543 23 38V83C23 94.0457 31.9543 103 43 103H78C89.0457 103 98 94.0437 98 82.998V39.5V38.0003C98 37.3252 97.9666 36.6579 97.9012 36H92C82.0589 36 74 27.9411 74 18H43.0003Z" fill="#449D4D"/>
<path d="M97.9012 36L100.887 35.7035L100.618 33H97.9012V36ZM74 18H77V15H74V18ZM26 38C26 28.6112 33.6114 21 43.0003 21V15C30.2979 15 20 25.2974 20 38H26ZM26 83V38H20V83H26ZM43 100C33.6112 100 26 92.3888 26 83H20C20 95.7025 30.2974 106 43 106V100ZM78 100H43V106H78V100ZM95 82.998C95 92.3873 87.3885 100 78 100V106C90.7029 106 101 95.7002 101 82.998H95ZM95 39.5V82.998H101V39.5H95ZM95 38.0003V39.5H101V38.0003H95ZM94.9159 36.2965C94.9715 36.856 95 37.4244 95 38.0003H101C101 37.2261 100.962 36.4598 100.887 35.7035L94.9159 36.2965ZM97.9012 33H92V39H97.9012V33ZM92 33C83.7157 33 77 26.2843 77 18H71C71 29.598 80.402 39 92 39V33ZM43.0003 21H74V15H43.0003V21Z" fill="black" mask="url(#path-4-inside-2)"/>
<path d="M69.3125 93.5937H50.8047C49.1834 93.6176 47.6132 93.0265 46.4101 91.9393C45.2071 90.8522 44.4604 89.3498 44.3203 87.7344C44.2669 86.8813 44.389 86.0264 44.6791 85.2225C44.9692 84.4185 45.4211 83.6826 46.0069 83.0602C46.5926 82.4378 47.2998 81.9422 48.0848 81.604C48.8697 81.2657 49.7156 81.0921 50.5703 81.0937H69.0625C70.6838 81.0699 72.254 81.661 73.4571 82.7481C74.6601 83.8353 75.4068 85.3377 75.5469 86.9531C75.6002 87.8048 75.4786 88.6584 75.1894 89.4613C74.9003 90.2642 74.4498 90.9994 73.8657 91.6216C73.2816 92.2437 72.5763 92.7397 71.7932 93.0789C71.0101 93.4181 70.1659 93.5933 69.3125 93.5937V93.5937Z" fill="black"/>
<path d="M49.8438 81.0938H54.5312V83.4375C54.5312 84.0591 54.2843 84.6552 53.8448 85.0948C53.4052 85.5343 52.8091 85.7812 52.1875 85.7812V85.7812C51.5659 85.7812 50.9698 85.5343 50.5302 85.0948C50.0907 84.6552 49.8438 84.0591 49.8438 83.4375V81.0938Z" fill="white"/>
<path d="M59.9375 85.6406C53.5703 85.6406 48.3672 88.8203 47.8125 92.8828C48.7408 93.3498 49.7655 93.5933 50.8047 93.5938H69.3125C70.2719 93.5927 71.2182 93.3709 72.0781 92.9453C71.5625 88.8594 66.3359 85.6406 59.9375 85.6406Z" fill="#F5064B"/>
<path d="M67.0312 91.25L67 96" stroke="#F5064B" stroke-width="6" stroke-linecap="round" stroke-linejoin="round"/>
<ellipse cx="56.7083" cy="75.4154" rx="2" ry="3" transform="rotate(15 56.7083 75.4154)" fill="black"/>
<ellipse cx="62.5" cy="73.5" rx="2.5" ry="4.5" transform="rotate(-15 62.5 73.5)" fill="black"/>
<rect x="73" y="55" width="13" height="20" rx="6.5" fill="black"/>
<circle cx="80" cy="61" r="4" fill="white"/>
<rect x="33" y="55" width="13" height="20" rx="6.5" fill="black"/>
<circle cx="39" cy="67" r="4" fill="white"/>
<rect x="26" y="41" width="69" height="3" fill="#13691C"/>
<rect x="34" y="37" width="3" height="12" rx="1.5" fill="#0B5713"/>
<rect x="44" y="37" width="3" height="12" rx="1.5" fill="#0B5713"/>
<rect x="54" y="37" width="3" height="12" rx="1.5" fill="#0B5713"/>
<rect x="64" y="37" width="3" height="12" rx="1.5" fill="#0B5713"/>
<rect x="74" y="37" width="3" height="12" rx="1.5" fill="#0B5713"/>
<rect x="84" y="39" width="3" height="10" rx="1.5" fill="#0B5713"/>
<defs>
<filter id="filter0_d" x="10" y="5" width="101" height="111" filterUnits="userSpaceOnUse" color-interpolation-filters="sRGB">
<feFlood flood-opacity="0" result="BackgroundImageFix"/>
<feColorMatrix in="SourceAlpha" type="matrix" values="0 0 0 0 0 0 0 0 0 0 0 0 0 0 0 0 0 0 127 0"/>
<feOffset/>
<feGaussianBlur stdDeviation="5"/>
<feColorMatrix type="matrix" values="0 0 0 0 0 0 0 0 0 0 0 0 0 0 0 0 0 0 0.25 0"/>
<feBlend mode="normal" in2="BackgroundImageFix" result="effect1_dropShadow"/>
<feBlend mode="normal" in="SourceGraphic" in2="effect1_dropShadow" result="shape"/>
</filter>
</defs>
</svg>
