<svg width="120" height="120" viewBox="0 0 120 120" fill="none" xmlns="http://www.w3.org/2000/svg">
<g clip-path="url(#clip0)">
<g filter="url(#filter0_d)">
<mask id="path-1-outside-1" maskUnits="userSpaceOnUse" x="10.4" y="14.4572" width="101" height="91" fill="black">
<rect fill="white" x="10.4" y="14.4572" width="101" height="91"/>
<path fill-rule="evenodd" clip-rule="evenodd" d="M60 19.5875V19.5905C60.1498 19.5885 60.2998 19.5875 60.45 19.5875C60.6002 19.5875 60.7502 19.5885 60.9 19.5905V19.5875C68.6973 18.597 82.2848 23.4909 88.7631 34.961C89.9796 36.8314 91.0158 38.83 91.847 40.932C92.9324 39.5882 94.3809 38.3222 96.2942 37.4966L101.021 35.4572L102.922 40.2413C104.387 43.9284 105.803 49.8542 105.443 56.1167C105.094 62.2059 103.014 69.0799 97.1399 74.1925C101.145 77.6839 102.104 84.2269 97.8265 88.6991L90.2712 96.5991C88.3847 98.5718 85.7738 99.6875 83.0442 99.6875H60.45H37.5217C34.833 99.6875 32.2575 98.6048 30.3764 96.6836L22.6413 88.7836C18.1807 84.2279 19.2538 77.4254 23.5086 73.9704C17.8265 68.882 15.8011 62.1181 15.4565 56.1167C15.097 49.8542 16.5133 43.9284 17.9782 40.2413L19.879 35.4572L24.6057 37.4966C26.3894 38.2662 27.769 39.4185 28.8271 40.6598C33.5489 24.9442 50.7423 18.4303 60 19.5875ZM26.7 53.3375C26.7 51.5034 26.8463 49.7035 27.1279 47.9488C26.9639 47.4053 26.7555 46.8338 26.4962 46.2657C25.7193 44.5634 24.4858 42.8904 22.6249 42.0875C22.0945 43.4224 21.5642 45.1329 21.1544 47.0759C20.0785 52.1767 19.8334 58.8797 22.6 64.5939C23.6185 66.6976 25.0452 68.6673 26.9889 70.3737C26.7983 68.922 26.7 67.4412 26.7 65.9375V53.3375ZM93.911 70.3737C95.8548 68.6673 97.2815 66.6976 98.3 64.5939C101.067 58.8797 100.821 52.1767 99.7456 47.0759C99.3358 45.1329 98.8054 43.4224 98.2751 42.0875C96.4142 42.8904 95.1807 44.5634 94.4038 46.2657C94.1445 46.8338 93.936 47.4053 93.7721 47.9488C94.0537 49.7035 94.2 51.5034 94.2 53.3375V65.9375C94.2 67.4412 94.1016 68.922 93.911 70.3737Z"/>
</mask>
<path fill-rule="evenodd" clip-rule="evenodd" d="M60 19.5875V19.5905C60.1498 19.5885 60.2998 19.5875 60.45 19.5875C60.6002 19.5875 60.7502 19.5885 60.9 19.5905V19.5875C68.6973 18.597 82.2848 23.4909 88.7631 34.961C89.9796 36.8314 91.0158 38.83 91.847 40.932C92.9324 39.5882 94.3809 38.3222 96.2942 37.4966L101.021 35.4572L102.922 40.2413C104.387 43.9284 105.803 49.8542 105.443 56.1167C105.094 62.2059 103.014 69.0799 97.1399 74.1925C101.145 77.6839 102.104 84.2269 97.8265 88.6991L90.2712 96.5991C88.3847 98.5718 85.7738 99.6875 83.0442 99.6875H60.45H37.5217C34.833 99.6875 32.2575 98.6048 30.3764 96.6836L22.6413 88.7836C18.1807 84.2279 19.2538 77.4254 23.5086 73.9704C17.8265 68.882 15.8011 62.1181 15.4565 56.1167C15.097 49.8542 16.5133 43.9284 17.9782 40.2413L19.879 35.4572L24.6057 37.4966C26.3894 38.2662 27.769 39.4185 28.8271 40.6598C33.5489 24.9442 50.7423 18.4303 60 19.5875ZM26.7 53.3375C26.7 51.5034 26.8463 49.7035 27.1279 47.9488C26.9639 47.4053 26.7555 46.8338 26.4962 46.2657C25.7193 44.5634 24.4858 42.8904 22.6249 42.0875C22.0945 43.4224 21.5642 45.1329 21.1544 47.0759C20.0785 52.1767 19.8334 58.8797 22.6 64.5939C23.6185 66.6976 25.0452 68.6673 26.9889 70.3737C26.7983 68.922 26.7 67.4412 26.7 65.9375V53.3375ZM93.911 70.3737C95.8548 68.6673 97.2815 66.6976 98.3 64.5939C101.067 58.8797 100.821 52.1767 99.7456 47.0759C99.3358 45.1329 98.8054 43.4224 98.2751 42.0875C96.4142 42.8904 95.1807 44.5634 94.4038 46.2657C94.1445 46.8338 93.936 47.4053 93.7721 47.9488C94.0537 49.7035 94.2 51.5034 94.2 53.3375V65.9375C94.2 67.4412 94.1016 68.922 93.911 70.3737Z" fill="black"/>
<path d="M60 19.5905H55V24.6562L60.0653 24.59L60 19.5905ZM60 19.5875H65V15.1736L60.6202 14.6261L60 19.5875ZM60.9 19.5905L60.8347 24.59L65.9 24.6562V19.5905H60.9ZM60.9 19.5875L60.2699 14.6274L55.9 15.1825V19.5875H60.9ZM88.7631 34.961L84.4095 37.4199L84.4864 37.556L84.5716 37.687L88.7631 34.961ZM91.847 40.932L87.1974 42.7707L90.3499 50.7428L95.7367 44.0737L91.847 40.932ZM96.2942 37.4966L94.3134 32.9057L94.3134 32.9057L96.2942 37.4966ZM101.021 35.4572L105.668 33.611L103.767 28.8269L99.0401 30.8663L101.021 35.4572ZM102.922 40.2413L98.2751 42.0875L98.2751 42.0875L102.922 40.2413ZM105.443 56.1167L110.435 56.4033L110.435 56.4033L105.443 56.1167ZM97.1399 74.1925L93.8573 70.4209L89.5274 74.1895L93.8543 77.9614L97.1399 74.1925ZM97.8265 88.6991L94.213 85.2433L94.213 85.2433L97.8265 88.6991ZM90.2712 96.5991L93.8848 100.055L93.8848 100.055L90.2712 96.5991ZM30.3764 96.6836L33.9491 93.1856L33.9491 93.1856L30.3764 96.6836ZM22.6413 88.7836L26.214 85.2856L26.214 85.2856L22.6413 88.7836ZM23.5086 73.9704L26.6604 77.8519L31.2113 74.1565L26.8442 70.2457L23.5086 73.9704ZM15.4565 56.1167L10.4648 56.4033L10.4648 56.4033L15.4565 56.1167ZM17.9782 40.2413L22.6249 42.0875L22.6249 42.0875L17.9782 40.2413ZM19.879 35.4572L21.8599 30.8663L17.1332 28.8269L15.2324 33.611L19.879 35.4572ZM24.6057 37.4966L26.5866 32.9057L26.5866 32.9057L24.6057 37.4966ZM28.8271 40.6598L25.022 43.9035L30.9751 50.887L33.6157 42.0985L28.8271 40.6598ZM27.1279 47.9488L32.0647 48.7409L32.2469 47.6057L31.9149 46.5049L27.1279 47.9488ZM26.4962 46.2657L21.9475 48.3416L21.9475 48.3416L26.4962 46.2657ZM22.6249 42.0875L24.6057 37.4966L19.879 35.4572L17.9782 40.2413L22.6249 42.0875ZM21.1544 47.0759L26.0467 48.1078L26.0467 48.1078L21.1544 47.0759ZM22.6 64.5939L27.1003 62.4151L27.1003 62.4151L22.6 64.5939ZM26.9889 70.3737L23.6902 74.1312L33.6762 82.8979L31.9464 69.7228L26.9889 70.3737ZM98.3 64.5939L102.8 66.7728L102.8 66.7727L98.3 64.5939ZM93.911 70.3737L88.9536 69.7228L87.2238 82.8979L97.2097 74.1312L93.911 70.3737ZM99.7456 47.0759L104.638 46.044L104.638 46.044L99.7456 47.0759ZM98.2751 42.0875L102.922 40.2413L101.021 35.4572L96.2942 37.4966L98.2751 42.0875ZM94.4038 46.2657L89.8551 44.1898L89.8551 44.1898L94.4038 46.2657ZM93.7721 47.9488L88.9851 46.505L88.6531 47.6057L88.8353 48.7409L93.7721 47.9488ZM65 19.5905V19.5875H55V19.5905H65ZM60.45 14.5875C60.278 14.5875 60.1062 14.5886 59.9347 14.5909L60.0653 24.59C60.1933 24.5884 60.3215 24.5875 60.45 24.5875V14.5875ZM60.9653 14.5909C60.7938 14.5886 60.622 14.5875 60.45 14.5875V24.5875C60.5784 24.5875 60.7067 24.5884 60.8347 24.59L60.9653 14.5909ZM55.9 19.5875V19.5905H65.9V19.5875H55.9ZM93.1167 32.502C89.2898 25.7264 83.4308 20.9986 77.5224 18.1097C71.6957 15.2607 65.363 13.9804 60.2699 14.6274L61.5301 24.5477C64.2342 24.2041 68.5939 24.8755 73.1299 27.0933C77.5842 29.2713 81.7581 32.7254 84.4095 37.4199L93.1167 32.502ZM96.4967 39.0933C95.5414 36.6777 94.3511 34.3821 92.9546 32.2349L84.5716 37.687C85.6081 39.2807 86.4902 40.9823 87.1974 42.7707L96.4967 39.0933ZM94.3134 32.9057C91.5128 34.1141 89.4444 35.9491 87.9574 37.7902L95.7367 44.0737C96.4204 43.2272 97.249 42.5302 98.2751 42.0875L94.3134 32.9057ZM99.0401 30.8663L94.3134 32.9057L98.2751 42.0875L103.002 40.0481L99.0401 30.8663ZM107.568 38.3951L105.668 33.611L96.3743 37.3034L98.2751 42.0875L107.568 38.3951ZM110.435 56.4033C110.843 49.2937 109.254 42.6387 107.568 38.3951L98.2751 42.0875C99.5189 45.2182 100.763 50.4147 100.452 55.8301L110.435 56.4033ZM100.422 77.964C107.624 71.6964 110.036 63.3597 110.435 56.4033L100.452 55.8301C100.152 61.052 98.4042 66.4635 93.8573 70.4209L100.422 77.964ZM101.44 92.1549C107.902 85.3975 106.339 75.5788 100.425 70.4235L93.8543 77.9614C95.9508 79.7891 96.3046 83.0562 94.213 85.2433L101.44 92.1549ZM93.8848 100.055L101.44 92.1549L94.213 85.2433L86.6577 93.1433L93.8848 100.055ZM83.0442 104.688C87.1386 104.688 91.0549 103.014 93.8848 100.055L86.6577 93.1433C85.7145 94.1296 84.409 94.6875 83.0442 94.6875V104.688ZM60.45 104.688H83.0442V94.6875H60.45V104.688ZM37.5217 104.688H60.45V94.6875H37.5217V104.688ZM26.8038 100.182C29.6254 103.063 33.4886 104.688 37.5217 104.688V94.6875C36.1773 94.6875 34.8896 94.1461 33.9491 93.1856L26.8038 100.182ZM19.0687 92.2817L26.8038 100.182L33.9491 93.1856L26.214 85.2856L19.0687 92.2817ZM20.3567 70.0889C14.0701 75.1938 12.326 85.3952 19.0687 92.2817L26.214 85.2856C24.0354 83.0606 24.4375 79.6569 26.6604 77.8519L20.3567 70.0889ZM10.4648 56.4033C10.8584 63.2585 13.2055 71.4557 20.173 77.6952L26.8442 70.2457C22.4474 66.3083 20.7439 60.9777 20.4483 55.8301L10.4648 56.4033ZM13.3316 38.3951C11.6455 42.6387 10.0566 49.2937 10.4648 56.4033L20.4483 55.8301C20.1374 50.4147 21.381 45.2182 22.6249 42.0875L13.3316 38.3951ZM15.2324 33.611L13.3316 38.3951L22.6249 42.0875L24.5257 37.3034L15.2324 33.611ZM26.5866 32.9057L21.8599 30.8663L17.8982 40.0481L22.6249 42.0875L26.5866 32.9057ZM32.6322 37.4162C31.1716 35.7028 29.1959 34.0316 26.5866 32.9057L22.6249 42.0875C23.5828 42.5008 24.3663 43.1343 25.022 43.9035L32.6322 37.4162ZM60.6202 14.6261C54.7125 13.8877 47.0211 15.5829 40.2354 19.4532C33.3384 23.3869 26.8476 29.8719 24.0386 39.2211L33.6157 42.0985C35.5285 35.7322 39.9953 31.1023 45.1898 28.1396C50.4957 25.1133 56.0298 24.1302 59.3798 24.5489L60.6202 14.6261ZM22.191 47.1566C21.8676 49.1723 21.7 51.2371 21.7 53.3375H31.7C31.7 51.7697 31.825 50.2347 32.0647 48.7409L22.191 47.1566ZM21.9475 48.3416C22.1028 48.6819 22.2344 49.0396 22.3408 49.3926L31.9149 46.5049C31.6935 45.771 31.4082 44.9858 31.0449 44.1898L21.9475 48.3416ZM20.6441 46.6784C20.7687 46.7322 20.958 46.8497 21.1994 47.1264C21.4498 47.4134 21.7098 47.8206 21.9475 48.3416L31.0449 44.1898C30.0094 41.9208 28.0663 38.9897 24.6057 37.4966L20.6441 46.6784ZM26.0467 48.1078C26.4018 46.4242 26.8528 44.9876 27.2716 43.9337L17.9782 40.2413C17.3362 41.8571 16.7265 43.8416 16.262 46.044L26.0467 48.1078ZM27.1003 62.4151C25.0141 58.1061 25.0839 52.6726 26.0467 48.1078L16.262 46.044C15.0731 51.6809 14.6527 59.6532 18.0997 66.7727L27.1003 62.4151ZM30.2876 66.6162C28.8801 65.3805 27.8483 63.96 27.1003 62.4151L18.0997 66.7727C19.3887 69.4352 21.2103 71.954 23.6902 74.1312L30.2876 66.6162ZM21.7 65.9375C21.7 67.6595 21.8126 69.3576 22.0315 71.0246L31.9464 69.7228C31.784 68.4863 31.7 67.223 31.7 65.9375H21.7ZM21.7 53.3375V65.9375H31.7V53.3375H21.7ZM93.7997 62.415C93.0517 63.96 92.0199 65.3805 90.6123 66.6162L97.2097 74.1312C99.6897 71.954 101.511 69.4352 102.8 66.7728L93.7997 62.415ZM94.8532 48.1078C95.816 52.6726 95.8859 58.1061 93.7997 62.4151L102.8 66.7727C106.247 59.6532 105.827 51.6809 104.638 46.044L94.8532 48.1078ZM93.6284 43.9337C94.0471 44.9876 94.4981 46.4242 94.8532 48.1078L104.638 46.044C104.173 43.8416 103.564 41.8571 102.922 40.2413L93.6284 43.9337ZM98.9525 48.3416C99.1902 47.8206 99.4502 47.4134 99.7005 47.1264C99.942 46.8496 100.131 46.7322 100.256 46.6784L96.2942 37.4966C92.8337 38.9897 90.8906 41.9208 89.8551 44.1898L98.9525 48.3416ZM98.5591 49.3926C98.6656 49.0396 98.7972 48.6819 98.9525 48.3416L89.8551 44.1898C89.4918 44.9858 89.2065 45.771 88.9851 46.505L98.5591 49.3926ZM99.2 53.3375C99.2 51.2371 99.0324 49.1723 98.709 47.1566L88.8353 48.7409C89.075 50.2347 89.2 51.7697 89.2 53.3375H99.2ZM99.2 65.9375V53.3375H89.2V65.9375H99.2ZM98.8685 71.0246C99.0874 69.3576 99.2 67.6595 99.2 65.9375H89.2C89.2 67.223 89.1159 68.4863 88.9536 69.7228L98.8685 71.0246Z" fill="white" mask="url(#path-1-outside-1)"/>
</g>
<path d="M29.7866 73.2875H90.5995C98.0811 73.2875 101.913 82.2554 96.7424 87.6624L89.1872 95.5624C87.5836 97.2391 85.3644 98.1875 83.0442 98.1875H37.5217C35.2363 98.1875 33.0471 97.2672 31.4482 95.6342L23.7131 87.7342C18.4454 82.3541 22.257 73.2875 29.7866 73.2875Z" fill="#AA1F1F" stroke="black" stroke-width="3"/>
<path d="M92.7 53.3375V65.9375C92.7 83.7487 78.2612 98.1875 60.45 98.1875C42.6388 98.1875 28.2 83.7487 28.2 65.9375V53.3375C28.2 35.5263 42.6388 21.0875 60.45 21.0875C78.2612 21.0875 92.7 35.5263 92.7 53.3375Z" fill="white" stroke="black" stroke-width="3"/>
<rect x="68.1" y="53.7875" width="11.7" height="11.7" rx="5.85" fill="black"/>
<rect x="42" y="53.7875" width="11.7" height="11.7" rx="5.85" fill="black"/>
<path fill-rule="evenodd" clip-rule="evenodd" d="M27.6 49.2875C32.85 43.7375 46.68 35.9675 60 49.2875V19.5875C49.2 18.2375 27.6 27.3275 27.6 49.2875ZM92.4 49.2875C87.2958 43.804 73.85 36.127 60.9 49.2875V19.5875C71.4 18.2537 92.4 27.5905 92.4 49.2875Z" fill="black"/>
<path d="M60 49.2875L59.6465 49.6411L60.5 50.4946V49.2875H60ZM27.6 49.2875H27.1V50.5437L27.9632 49.6311L27.6 49.2875ZM60 19.5875H60.5V19.1461L60.062 19.0914L60 19.5875ZM60.9 49.2875H60.4V50.5085L61.2564 49.6382L60.9 49.2875ZM92.4 49.2875L92.034 49.6282L92.9 50.5585V49.2875H92.4ZM60.9 19.5875L60.837 19.0915L60.4 19.147V19.5875H60.9ZM60.3536 48.934C53.5819 42.1623 46.6329 40.7195 40.6909 41.7182C34.7815 42.7114 29.9183 46.1091 27.2368 48.9439L27.9632 49.6311C30.5317 46.9159 35.2085 43.6536 40.8566 42.7044C46.4721 41.7605 53.0981 43.0927 59.6465 49.6411L60.3536 48.934ZM59.5 19.5875V49.2875H60.5V19.5875H59.5ZM28.1 49.2875C28.1 38.4948 33.3996 30.8736 40.0417 26.1024C46.7057 21.3154 54.6817 19.4266 59.938 20.0837L60.062 19.0914C54.5183 18.3984 46.2943 20.3797 39.4583 25.2902C32.6004 30.2164 27.1 38.1202 27.1 49.2875H28.1ZM61.2564 49.6382C67.6205 43.1707 74.0563 41.8577 79.508 42.7889C84.9937 43.7258 89.5377 46.9464 92.034 49.6282L92.766 48.9469C90.1581 46.1451 85.4272 42.7854 79.6764 41.8031C73.8916 40.8151 67.1295 42.2438 60.5436 48.9368L61.2564 49.6382ZM60.4 19.5875V49.2875H61.4V19.5875H60.4ZM92.9 49.2875C92.9 38.2563 87.5541 30.358 80.8858 25.3997C74.2396 20.4578 66.2378 18.4054 60.837 19.0915L60.963 20.0835C66.0622 19.4358 73.8104 21.3849 80.2892 26.2022C86.7459 31.0032 91.9 38.6217 91.9 49.2875H92.9Z" fill="black"/>
<path d="M98.2751 42.0875C94.7925 43.5901 93.5073 48.1397 93.3 50.2266V70.8875C103.25 62.8736 100.763 48.3484 98.2751 42.0875Z" stroke="black" stroke-width="3"/>
<path d="M22.6249 42.0875C26.1075 43.5901 27.3927 48.1397 27.6 50.2266V70.8875C17.6499 62.8736 20.1374 48.3484 22.6249 42.0875Z" stroke="black" stroke-width="3"/>
<path d="M67.2 88.8875L65.6412 81.4625L68.7588 81.4625L67.2 88.8875Z" fill="#F5064B"/>
<path d="M53.7 88.8875L52.1412 81.4625L55.2588 81.4625L53.7 88.8875Z" fill="#F5064B"/>
<path fill-rule="evenodd" clip-rule="evenodd" d="M46.7999 81.2325C47.2439 81.5292 47.766 81.6875 48.3 81.6875H71.7C72.234 81.6875 72.756 81.5292 73.2 81.2325C73.644 80.9358 73.9901 80.5141 74.1945 80.0208C74.3988 79.5274 74.4523 78.9845 74.3481 78.4608C74.2439 77.937 73.9868 77.4559 73.6092 77.0783L71.7 78.9875H48.3L46.3908 77.0783C46.0132 77.4559 45.756 77.937 45.6519 78.4608C45.5477 78.9845 45.6011 79.5274 45.8055 80.0208C46.0099 80.5141 46.3559 80.9358 46.7999 81.2325Z" fill="black"/>
</g>
<defs>
<filter id="filter0_d" x="0.399994" y="4.45717" width="120.1" height="110.23" filterUnits="userSpaceOnUse" color-interpolation-filters="sRGB">
<feFlood flood-opacity="0" result="BackgroundImageFix"/>
<feColorMatrix in="SourceAlpha" type="matrix" values="0 0 0 0 0 0 0 0 0 0 0 0 0 0 0 0 0 0 127 0"/>
<feOffset/>
<feGaussianBlur stdDeviation="5"/>
<feColorMatrix type="matrix" values="0 0 0 0 0 0 0 0 0 0 0 0 0 0 0 0 0 0 0.25 0"/>
<feBlend mode="normal" in2="BackgroundImageFix" result="effect1_dropShadow"/>
<feBlend mode="normal" in="SourceGraphic" in2="effect1_dropShadow" result="shape"/>
</filter>
<clipPath id="clip0">
<rect width="120" height="120" fill="white"/>
</clipPath>
</defs>
</svg>
