<svg width="120" height="120" viewBox="0 0 120 120" fill="none" xmlns="http://www.w3.org/2000/svg">
<g clip-path="url(#clip0)">
<g filter="url(#filter0_d)">
<path d="M74.3564 14.1226L84.0869 26.3051L98.8686 31.2646L99.5802 46.8399L108.624 59.5407L100.044 72.5595L99.8954 88.1503L85.3023 93.6401L76.0177 106.166L60.9849 102.029L46.1111 106.706L36.3806 94.5231L21.5989 89.5636L20.8873 73.9883L11.8438 61.2875L20.4231 48.2686L20.5721 32.6778L35.1652 27.1881L44.4498 14.6624L59.4826 18.7988L74.3564 14.1226Z" fill="#F5064B"/>
<path d="M75.5284 13.1865L74.887 12.3834L73.9065 12.6917L59.4544 17.2352L44.8477 13.2162L43.8568 12.9435L43.2447 13.7692L34.2234 25.9398L20.044 31.2739L19.082 31.6357L19.0722 32.6635L18.9274 47.8123L10.5913 60.4621L10.0258 61.3203L10.6219 62.1575L19.4091 74.4983L20.1004 89.632L20.1473 90.6587L21.1217 90.9857L35.4844 95.8046L44.9391 107.642L45.5805 108.445L46.561 108.136L61.0131 103.593L75.6198 107.612L76.6107 107.885L77.2228 107.059L86.2442 94.8884L100.424 89.5543L101.386 89.1924L101.395 88.1647L101.54 73.0159L109.876 60.366L110.442 59.5078L109.846 58.6706L101.058 46.3299L100.367 31.1961L100.32 30.1694L99.3458 29.8425L84.9831 25.0236L75.5284 13.1865Z" stroke="white" stroke-width="3"/>
</g>
<path d="M82.9149 27.2412L83.1908 27.5866L83.6098 27.7272L97.4171 32.3597L98.0817 46.9083L98.1019 47.3498L98.3583 47.7099L106.806 59.5735L98.7919 71.7342L98.5487 72.1032L98.5445 72.5452L98.4053 87.1083L84.7742 92.2361L84.3605 92.3918L84.0973 92.7468L75.4247 104.447L61.3828 100.583L60.9567 100.466L60.535 100.598L46.6417 104.966L37.5526 93.587L37.2767 93.2416L36.8577 93.101L23.0504 88.4684L22.3858 73.9198L22.3656 73.4783L22.1092 73.1183L13.6619 61.2547L21.6756 49.094L21.9188 48.7249L21.923 48.2829L22.0622 33.7199L35.6933 28.592L36.107 28.4364L36.3702 28.0813L45.0428 16.3814L59.0847 20.245L59.5108 20.3623L59.9325 20.2297L73.8258 15.8618L82.9149 27.2412Z" fill="#F5064B" stroke="black" stroke-width="3"/>
<path d="M77.0957 38.6908L38.6813 77.1052L43.2087 81.6325L81.6231 43.2181L77.0957 38.6908Z" fill="white"/>
<path d="M47.3485 56.9583C52.6435 56.9583 56.9525 52.6493 56.9525 47.3543C56.9525 42.0593 52.6435 37.7503 47.3485 37.7503C42.0535 37.7503 37.7445 42.0593 37.7445 47.3543C37.7445 52.6493 42.0535 56.9583 47.3485 56.9583ZM47.3485 44.153C49.1156 44.153 50.5498 45.5872 50.5498 47.3543C50.5498 49.1214 49.1156 50.5556 47.3485 50.5556C45.5814 50.5556 44.1472 49.1214 44.1472 47.3543C44.1472 45.5872 45.5814 44.153 47.3485 44.153Z" fill="white"/>
<path d="M72.9592 63.361C67.6642 63.361 63.3552 67.67 63.3552 72.965C63.3552 78.26 67.6642 82.569 72.9592 82.569C78.2542 82.569 82.5632 78.26 82.5632 72.965C82.5632 67.67 78.2542 63.361 72.9592 63.361ZM72.9592 76.1663C71.1921 76.1663 69.7579 74.7321 69.7579 72.965C69.7579 71.1978 71.1921 69.7636 72.9592 69.7636C74.7263 69.7636 76.1605 71.1978 76.1605 72.965C76.1605 74.7321 74.7263 76.1663 72.9592 76.1663Z" fill="white"/>
</g>
<defs>
<filter id="filter0_d" x="-12.284" y="-13.7964" width="145.035" height="148.421" filterUnits="userSpaceOnUse" color-interpolation-filters="sRGB">
<feFlood flood-opacity="0" result="BackgroundImageFix"/>
<feColorMatrix in="SourceAlpha" type="matrix" values="0 0 0 0 0 0 0 0 0 0 0 0 0 0 0 0 0 0 127 0"/>
<feOffset/>
<feGaussianBlur stdDeviation="5"/>
<feColorMatrix type="matrix" values="0 0 0 0 0 0 0 0 0 0 0 0 0 0 0 0 0 0 0.25 0"/>
<feBlend mode="normal" in2="BackgroundImageFix" result="effect1_dropShadow"/>
<feBlend mode="normal" in="SourceGraphic" in2="effect1_dropShadow" result="shape"/>
</filter>
<clipPath id="clip0">
<rect width="120" height="120" fill="white"/>
</clipPath>
</defs>
</svg>
