<svg width="120" height="120" viewBox="0 0 120 120" fill="none" xmlns="http://www.w3.org/2000/svg">
<g clip-path="url(#clip0)">
<g filter="url(#filter0_d)">
<path fill-rule="evenodd" clip-rule="evenodd" d="M86.4581 32.593C87.563 31.807 88.5207 30.7766 89.243 29.5256C91.9349 24.8631 90.3374 18.9011 85.6749 16.2092C81.0124 13.5173 75.0505 15.1148 72.3586 19.7773C71.6363 21.0284 71.2228 22.373 71.0945 23.7228L69.0361 22.5344L66.1609 27.5144C48.7224 23.0994 29.7809 30.5404 20.3424 46.8885C8.95424 66.6133 15.7125 91.8353 35.4372 103.223C55.162 114.612 80.384 107.853 91.7722 88.1285C101.211 71.7804 98.1841 51.6561 85.6413 38.7615L88.5166 33.7815L86.4581 32.593ZM83.4521 30.8575C84.7496 30.3043 85.8853 29.3412 86.6449 28.0256C88.5084 24.7979 87.4025 20.6708 84.1749 18.8073C80.9473 16.9438 76.8201 18.0497 74.9566 21.2773C74.1971 22.593 73.9308 24.0581 74.1006 25.4584L83.4521 30.8575Z" fill="white"/>
</g>
<rect x="69.5851" y="24.5835" width="19.4941" height="7.79718" transform="rotate(30 69.5851 24.5835)" fill="#C4C4C4" stroke="black" stroke-width="3"/>
<circle cx="56.0573" cy="67.5085" r="36.74" transform="rotate(30 56.0573 67.5085)" fill="#F5064B" stroke="black" stroke-width="3"/>
<circle cx="80.8008" cy="24.6515" r="5.24824" transform="rotate(30 80.8008 24.6515)" fill="white" stroke="black" stroke-width="3"/>
<path d="M88.8447 85.3994C102.341 62.0228 84.9067 42.4332 74.5024 35.5605C81.4844 61.6175 52.818 89.0149 37.6121 99.4565C49.0661 104.511 75.3483 108.776 88.8447 85.3994Z" fill="#B80237"/>
<rect x="31.8014" y="38.4395" width="71.0814" height="26.0932" transform="rotate(30 31.8014 38.4395)" fill="white"/>
<path d="M35.0224 48.74C33.0894 47.624 31.0707 48.2044 29.9007 50.2309C28.7217 52.273 29.2194 54.327 31.1524 55.443C33.0853 56.559 35.0974 55.954 36.2764 53.9119C37.4464 51.8854 36.9553 49.856 35.0224 48.74ZM27.9915 59.3338L31.2495 61.2148L45.15 54.6703L41.892 52.7893L27.9915 59.3338ZM33.9604 50.5794C34.5683 50.9304 34.616 51.7478 34.094 52.6519C33.563 53.5716 32.8313 53.939 32.2234 53.588C31.6154 53.237 31.5677 52.4196 32.0987 51.4999C32.6207 50.5958 33.3524 50.2284 33.9604 50.5794ZM41.9957 58.5857C40.0628 57.4697 38.0441 58.0502 36.8741 60.0767C35.6951 62.1187 36.1928 64.1728 38.1257 65.2888C40.0587 66.4048 42.0708 65.7997 43.2498 63.7577C44.4198 61.7312 43.9287 59.7017 41.9957 58.5857ZM40.9337 60.4252C41.5417 60.7762 41.5894 61.5935 41.0674 62.4977C40.5364 63.4174 39.8047 63.7847 39.1967 63.4337C38.5888 63.0827 38.5411 62.2654 39.0721 61.3457C39.5941 60.4415 40.3258 60.0742 40.9337 60.4252ZM53.6871 59.5161C51.7541 58.4001 49.7355 58.9805 48.5655 61.007C47.3865 63.0491 47.8841 65.1031 49.8171 66.2191C51.7501 67.3351 53.7621 66.7301 54.9411 64.688C56.1111 62.6615 55.6201 60.6321 53.6871 59.5161ZM46.6562 70.1099L49.9142 71.9909L63.8148 65.4464L60.5568 63.5654L46.6562 70.1099ZM52.6251 61.3555C53.2331 61.7065 53.2808 62.5239 52.7588 63.428C52.2278 64.3477 51.4961 64.7151 50.8881 64.3641C50.2802 64.0131 50.2324 63.1957 50.7634 62.276C51.2854 61.3719 52.0172 61.0045 52.6251 61.3555ZM60.6605 69.3618C58.7275 68.2458 56.7088 68.8262 55.5388 70.8527C54.3598 72.8948 54.8575 74.9489 56.7905 76.0649C58.7234 77.1809 60.7355 76.5758 61.9145 74.5338C63.0845 72.5073 62.5934 70.4778 60.6605 69.3618ZM59.5985 71.2013C60.2064 71.5523 60.2541 72.3696 59.7321 73.2737C59.2011 74.1935 58.4694 74.5608 57.8615 74.2098C57.2535 73.8588 57.2058 73.0415 57.7368 72.1217C58.2588 71.2176 58.9905 70.8503 59.5985 71.2013ZM72.3518 70.2921C70.4189 69.1761 68.4002 69.7566 67.2302 71.7831C66.0512 73.8252 66.5489 75.8792 68.4818 76.9952C70.4148 78.1112 72.4269 77.5062 73.6059 75.4641C74.7759 73.4376 74.2848 71.4081 72.3518 70.2921ZM65.3209 80.886L68.5789 82.767L82.4795 76.2225L79.2215 74.3415L65.3209 80.886ZM71.2898 72.1316C71.8978 72.4826 71.9455 73.2999 71.4235 74.2041C70.8925 75.1238 70.1608 75.4912 69.5528 75.1402C68.9449 74.7892 68.8972 73.9718 69.4282 73.0521C69.9502 72.1479 70.6819 71.7806 71.2898 72.1316ZM79.3252 80.1379C77.3922 79.0219 75.3736 79.6023 74.2036 81.6288C73.0246 83.6709 73.5222 85.7249 75.4552 86.8409C77.3882 87.9569 79.4003 87.3519 80.5793 85.3098C81.7493 83.2833 81.2582 81.2539 79.3252 80.1379ZM78.2632 81.9774C78.8712 82.3284 78.9189 83.1457 78.3969 84.0498C77.8659 84.9696 77.1342 85.3369 76.5262 84.9859C75.9183 84.6349 75.8706 83.8176 76.4016 82.8978C76.9236 81.9937 77.6553 81.6263 78.2632 81.9774Z" fill="#F5064B"/>
<circle cx="56.0573" cy="67.5085" r="36.74" transform="rotate(30 56.0573 67.5085)" stroke="black" stroke-width="3"/>
</g>
<defs>
<filter id="filter0_d" x="-10.2776" y="-14.4108" width="141.667" height="148.254" filterUnits="userSpaceOnUse" color-interpolation-filters="sRGB">
<feFlood flood-opacity="0" result="BackgroundImageFix"/>
<feColorMatrix in="SourceAlpha" type="matrix" values="0 0 0 0 0 0 0 0 0 0 0 0 0 0 0 0 0 0 127 0"/>
<feOffset/>
<feGaussianBlur stdDeviation="5"/>
<feColorMatrix type="matrix" values="0 0 0 0 0 0 0 0 0 0 0 0 0 0 0 0 0 0 0.25 0"/>
<feBlend mode="normal" in2="BackgroundImageFix" result="effect1_dropShadow"/>
<feBlend mode="normal" in="SourceGraphic" in2="effect1_dropShadow" result="shape"/>
</filter>
<clipPath id="clip0">
<rect width="120" height="120" fill="white"/>
</clipPath>
</defs>
</svg>
