<svg width="120" height="120" viewBox="0 0 120 120" fill="none" xmlns="http://www.w3.org/2000/svg">
<g filter="url(#filter0_d)">
<mask id="path-1-outside-1" maskUnits="userSpaceOnUse" x="16.8427" y="10.3115" width="87" height="100" fill="black">
<rect fill="white" x="16.8427" y="10.3115" width="87" height="100"/>
<path fill-rule="evenodd" clip-rule="evenodd" d="M87.3516 48.6853C87.0554 47.423 86.1716 46.1615 84.7205 44.9776C84.1285 42.7592 83.8282 40.4933 83.8282 38.2361C83.8282 36.1692 84.0687 34.1302 84.5466 32.1318C85.7969 34.9696 88.6395 36.9563 91.9374 36.9563C96.3839 36.9563 100.001 33.3402 100 28.8967C100 24.4429 96.3839 20.8195 91.9374 20.8195C89.5654 20.8195 87.429 21.8493 85.9511 23.4857C79.5324 17.0042 70.4906 13.3115 60.9363 13.3115C42.2778 13.3115 27.0983 27.2667 27.0983 44.4206C27.0983 44.7723 27.1216 45.1269 27.1464 45.4844L27.1497 45.5364C26.0734 46.5555 25.4043 47.6213 25.1547 48.6878C25.0057 48.8748 24.9166 49.1116 24.9166 49.3691V58.2117C22.0178 58.8507 19.8427 61.44 19.8427 64.5282V70.9578C19.8427 74.0447 22.0178 76.6328 24.9166 77.2714V78.9854C24.9166 94.2598 37.3439 106.689 52.6212 106.689H59.887C75.1629 106.689 87.5917 94.2612 87.5917 78.9854V77.2716C90.49 76.6333 92.6656 74.0451 92.6656 70.9578V64.5282C92.6656 61.4397 90.49 58.8502 87.5917 58.2116V49.3691C87.5917 49.1104 87.5018 48.8726 87.3516 48.6853Z"/>
</mask>
<path fill-rule="evenodd" clip-rule="evenodd" d="M87.3516 48.6853C87.0554 47.423 86.1716 46.1615 84.7205 44.9776C84.1285 42.7592 83.8282 40.4933 83.8282 38.2361C83.8282 36.1692 84.0687 34.1302 84.5466 32.1318C85.7969 34.9696 88.6395 36.9563 91.9374 36.9563C96.3839 36.9563 100.001 33.3402 100 28.8967C100 24.4429 96.3839 20.8195 91.9374 20.8195C89.5654 20.8195 87.429 21.8493 85.9511 23.4857C79.5324 17.0042 70.4906 13.3115 60.9363 13.3115C42.2778 13.3115 27.0983 27.2667 27.0983 44.4206C27.0983 44.7723 27.1216 45.1269 27.1464 45.4844L27.1497 45.5364C26.0734 46.5555 25.4043 47.6213 25.1547 48.6878C25.0057 48.8748 24.9166 49.1116 24.9166 49.3691V58.2117C22.0178 58.8507 19.8427 61.44 19.8427 64.5282V70.9578C19.8427 74.0447 22.0178 76.6328 24.9166 77.2714V78.9854C24.9166 94.2598 37.3439 106.689 52.6212 106.689H59.887C75.1629 106.689 87.5917 94.2612 87.5917 78.9854V77.2716C90.49 76.6333 92.6656 74.0451 92.6656 70.9578V64.5282C92.6656 61.4397 90.49 58.8502 87.5917 58.2116V49.3691C87.5917 49.1104 87.5018 48.8726 87.3516 48.6853Z" fill="black"/>
<path d="M84.7205 44.9776L81.822 45.7512L82.0722 46.6887L82.824 47.3022L84.7205 44.9776ZM87.3516 48.6853L84.4309 49.3706L84.5861 50.0318L85.0108 50.5616L87.3516 48.6853ZM84.5466 32.1318L87.2919 30.9222L83.7005 22.7712L81.6288 31.4341L84.5466 32.1318ZM100 28.8967L97 28.8967L97 28.8977L100 28.8967ZM85.9511 23.4857L83.8195 25.5967L86.0515 27.8505L88.1775 25.4964L85.9511 23.4857ZM27.1464 45.4844L30.1405 45.2962L30.1399 45.2865L30.1392 45.2768L27.1464 45.4844ZM27.1497 45.5364L29.2122 47.7149L30.2319 46.7496L30.1438 45.3482L27.1497 45.5364ZM25.1547 48.6878L27.5009 50.5573L27.9218 50.0291L28.0757 49.3715L25.1547 48.6878ZM24.9166 58.2117L25.5624 61.1414L27.9166 60.6225V58.2117H24.9166ZM24.9166 77.2714H27.9166V74.8604L25.5621 74.3417L24.9166 77.2714ZM87.5917 77.2716L86.9465 74.3418L84.5917 74.8604V77.2716H87.5917ZM87.5917 58.2116H84.5917V60.6225L86.9462 61.1413L87.5917 58.2116ZM82.824 47.3022C83.965 48.233 84.3364 48.968 84.4309 49.3706L90.2722 47.9999C89.7743 45.8779 88.3782 44.09 86.617 42.6531L82.824 47.3022ZM80.8282 38.2361C80.8282 40.7595 81.1639 43.2853 81.822 45.7512L87.6191 44.2041C87.0931 42.2331 86.8282 40.2271 86.8282 38.2361H80.8282ZM81.6288 31.4341C81.0961 33.6616 80.8282 35.9348 80.8282 38.2361H86.8282C86.8282 36.4036 87.0412 34.5988 87.4643 32.8296L81.6288 31.4341ZM91.9374 33.9563C89.8729 33.9563 88.081 32.7131 87.2919 30.9222L81.8012 33.3415C83.5129 37.2262 87.406 39.9563 91.9374 39.9563V33.9563ZM97 28.8977C97.0009 31.682 94.7286 33.9563 91.9374 33.9563V39.9563C98.0391 39.9563 103.002 34.9985 103 28.8957L97 28.8977ZM91.9374 23.8195C94.7217 23.8195 97 26.0945 97 28.8967H103C103 22.7914 98.046 17.8195 91.9374 17.8195V23.8195ZM88.1775 25.4964C89.113 24.4607 90.4526 23.8195 91.9374 23.8195V17.8195C88.6783 17.8195 85.7451 19.2379 83.7247 21.4749L88.1775 25.4964ZM60.9363 16.3115C69.7269 16.3115 77.9897 19.7099 83.8195 25.5967L88.0827 21.3747C81.0751 14.2985 71.2543 10.3115 60.9363 10.3115V16.3115ZM30.0983 44.4206C30.0983 29.156 43.6922 16.3115 60.9363 16.3115V10.3115C40.8634 10.3115 24.0983 25.3773 24.0983 44.4206H30.0983ZM30.1392 45.2768C30.1139 44.9113 30.0983 44.6543 30.0983 44.4206H24.0983C24.0983 44.8903 24.1293 45.3425 24.1536 45.6921L30.1392 45.2768ZM30.1438 45.3482L30.1405 45.2962L24.1523 45.6727L24.1556 45.7247L30.1438 45.3482ZM28.0757 49.3715C28.1543 49.0357 28.4256 48.4597 29.2122 47.7149L25.0871 43.3579C23.7211 44.6513 22.6543 46.207 22.2336 48.0041L28.0757 49.3715ZM27.9166 49.3691C27.9166 49.8155 27.7595 50.2328 27.5009 50.5573L22.8084 46.8183C22.2518 47.5168 21.9166 48.4076 21.9166 49.3691H27.9166ZM27.9166 58.2117V49.3691H21.9166V58.2117H27.9166ZM22.8427 64.5282C22.8427 62.8801 24.0069 61.4843 25.5624 61.1414L24.2709 55.2821C20.0286 56.2171 16.8427 59.9998 16.8427 64.5282H22.8427ZM22.8427 70.9578V64.5282H16.8427V70.9578H22.8427ZM25.5621 74.3417C24.0059 73.9988 22.8427 72.6036 22.8427 70.9578H16.8427C16.8427 75.4859 20.0297 79.2667 24.2712 80.2011L25.5621 74.3417ZM27.9166 78.9854V77.2714H21.9166V78.9854H27.9166ZM52.6212 103.689C39.0008 103.689 27.9166 92.6029 27.9166 78.9854H21.9166C21.9166 95.9166 35.6871 109.689 52.6212 109.689V103.689ZM59.887 103.689H52.6212V109.689H59.887V103.689ZM84.5917 78.9854C84.5917 92.6042 73.5062 103.689 59.887 103.689V109.689C76.8195 109.689 90.5917 95.9183 90.5917 78.9854H84.5917ZM84.5917 77.2716V78.9854H90.5917V77.2716H84.5917ZM89.6656 70.9578C89.6656 72.604 88.5019 73.9993 86.9465 74.3418L88.2369 80.2014C92.4782 79.2674 95.6656 75.4862 95.6656 70.9578H89.6656ZM89.6656 64.5282V70.9578H95.6656V64.5282H89.6656ZM86.9462 61.1413C88.5008 61.4838 89.6656 62.8797 89.6656 64.5282H95.6656C95.6656 59.9996 92.4792 56.2165 88.2372 55.2818L86.9462 61.1413ZM84.5917 49.3691V58.2116H90.5917V49.3691H84.5917ZM85.0108 50.5616C84.7502 50.2366 84.5917 49.8177 84.5917 49.3691H90.5917C90.5917 48.4032 90.2533 47.5087 89.6923 46.8089L85.0108 50.5616Z" fill="white" mask="url(#path-1-outside-1)"/>
</g>
<path d="M91.5711 70.9593C91.5711 73.9231 89.1662 76.3295 86.1995 76.3295C83.2328 76.3295 80.8279 73.9246 80.8279 70.9593V64.5297C80.8279 61.5629 83.2313 59.1566 86.1995 59.1566C89.1648 59.1566 91.5711 61.5615 91.5711 64.5297V70.9593Z" fill="#F2D1C9"/>
<path d="M86.1995 77.4225C82.6344 77.4225 79.7334 74.5229 79.7334 70.9578V64.5282C79.7334 60.9617 82.6344 58.0606 86.1995 58.0606C89.7645 58.0606 92.6656 60.9617 92.6656 64.5282V70.9578C92.6656 74.5229 89.7645 77.4225 86.1995 77.4225ZM86.1995 60.251C83.8413 60.251 81.9223 62.17 81.9223 64.5296V70.9593C81.9223 73.316 83.8398 75.235 86.1995 75.235C88.5592 75.235 90.4767 73.3175 90.4767 70.9593V64.5296C90.4767 62.17 88.5577 60.251 86.1995 60.251Z" fill="black"/>
<path d="M31.679 70.9593C31.679 73.9231 29.2755 76.3295 26.3088 76.3295C23.342 76.3295 20.9357 73.9246 20.9357 70.9593V64.5297C20.9357 61.5629 23.3406 59.1566 26.3088 59.1566C29.2741 59.1566 31.679 61.5615 31.679 64.5297V70.9593Z" fill="#F2D1C9"/>
<path d="M26.3102 77.4225C22.7437 77.4225 19.8427 74.5229 19.8427 70.9578V64.5282C19.8427 60.9617 22.7437 58.0606 26.3102 58.0606C29.8738 58.0606 32.7749 60.9617 32.7749 64.5282V70.9578C32.7734 74.5229 29.8738 77.4225 26.3102 77.4225ZM26.3102 60.251C23.9506 60.251 22.0316 62.17 22.0316 64.5296V70.9593C22.0316 73.316 23.9506 75.235 26.3102 75.235C28.667 75.235 30.5859 73.3175 30.5859 70.9593V64.5296C30.5845 62.17 28.667 60.251 26.3102 60.251Z" fill="black"/>
<path d="M26.0111 49.3691V78.9854C26.0111 93.6775 37.9262 105.594 52.6212 105.594H59.887C74.5821 105.594 86.4972 93.6775 86.4972 78.9854V49.3691H26.0111Z" fill="white"/>
<path d="M34.1058 49.3691V71.0585C34.1058 76.7308 36.5486 81.8237 40.4172 85.3829V77.1146C40.4172 71.5167 44.9541 66.9798 50.5534 66.9798H61.9549C67.5512 66.9798 72.0911 71.5167 72.0911 77.1146V85.3829C75.9597 81.8208 78.4011 76.7293 78.4011 71.0585V49.3691H34.1058Z" fill="#F2D1C9"/>
<path d="M72.0925 86.4788C71.9437 86.4788 71.7934 86.4482 71.6533 86.3869C71.2564 86.2118 70.9981 85.8192 70.9981 85.3844V77.116C70.9981 72.1311 66.9412 68.0757 61.9563 68.0757H50.5534C45.567 68.0757 41.5117 72.1311 41.5117 77.116V85.3844C41.5117 85.8192 41.2548 86.2118 40.8564 86.3869C40.461 86.5606 39.9955 86.4847 39.6759 86.1899C35.4395 82.2936 33.0113 76.7775 33.0113 71.06V49.3691C33.0113 48.7649 33.5016 48.2746 34.1058 48.2746H78.4025C79.0067 48.2746 79.497 48.7649 79.497 49.3691V71.0585C79.497 76.7746 77.0673 82.2892 72.8339 86.1884C72.6281 86.3782 72.3611 86.4788 72.0925 86.4788ZM35.2002 50.4636V71.0585C35.2002 75.273 36.6785 79.3648 39.3227 82.6249V77.116C39.3227 70.9243 44.3617 65.8868 50.5534 65.8868H61.9549C68.1481 65.8868 73.1856 70.9243 73.1856 77.116V82.6234C75.8298 79.3633 77.3066 75.2715 77.3066 71.0585V50.4636H35.2002Z" fill="black"/>
<path d="M59.887 106.689H52.6212C37.3439 106.689 24.9166 94.2598 24.9166 78.9854V49.3691C24.9166 48.7649 25.4069 48.2746 26.0111 48.2746H86.4972C87.1013 48.2746 87.5916 48.7649 87.5916 49.3691V78.9854C87.5916 94.2612 75.1629 106.689 59.887 106.689ZM27.1055 50.4636V78.9854C27.1055 93.0544 38.5522 104.5 52.6212 104.5H59.887C73.9575 104.5 85.4027 93.0544 85.4027 78.9854V50.4636H27.1055Z" fill="black"/>
<path d="M56.2563 39.5816C39.6233 39.5816 26.138 44.0849 26.138 49.6346V59.1565H26.1774C26.605 53.7294 39.8889 49.369 56.2549 49.369C72.615 49.369 85.8989 53.7294 86.3265 59.1565H86.3659V49.6346C86.3688 44.0849 72.8864 39.5816 56.2563 39.5816Z" fill="#F7F5DC"/>
<path d="M56.2563 39.5816C68.5027 39.5816 79.0242 42.0332 83.7347 45.5326C83.0854 43.1919 82.7308 40.7593 82.7308 38.2362C82.7308 33.5387 83.939 29.1156 86.0288 25.1565C80.0238 18.5926 71.0141 14.4059 60.9333 14.4059C42.8454 14.4059 28.1898 27.8416 28.1898 44.4206C28.1898 44.9226 28.2438 45.429 28.2701 45.9397C32.6975 42.2171 43.5342 39.5816 56.2563 39.5816Z" fill="#F5064B"/>
<path d="M84.962 28.8967C84.962 32.739 88.0878 35.8619 91.9374 35.8619C95.787 35.8619 98.9055 32.7375 98.9055 28.8967C98.9055 25.0398 95.7856 21.914 91.9374 21.914C88.0878 21.9125 84.962 25.0398 84.962 28.8967Z" fill="#F7F5DC"/>
<path d="M86.3688 60.5181C85.7646 60.5181 85.2743 60.0277 85.2743 59.4236C85.2743 55.1887 73.3563 50.4679 56.2563 50.4679C39.152 50.4679 27.2325 55.1873 27.2325 59.4236C27.2325 60.0277 26.7422 60.5181 26.138 60.5181C25.5339 60.5181 25.0435 60.0277 25.0435 59.4236C25.0435 54.0213 35.9824 48.279 56.2563 48.279C76.5258 48.279 87.4632 54.0213 87.4632 59.4236C87.4632 60.0292 86.9729 60.5181 86.3688 60.5181Z" fill="#093260"/>
<path d="M86.3688 60.5181C85.7646 60.5181 85.2743 60.0277 85.2743 59.4236C85.2743 55.1887 73.3563 50.4679 56.2563 50.4679C39.152 50.4679 27.2325 55.1873 27.2325 59.4236C27.2325 60.0277 26.7422 60.5181 26.138 60.5181C25.5339 60.5181 25.0435 60.0277 25.0435 59.4236C25.0435 54.0213 35.9824 48.279 56.2563 48.279C76.5258 48.279 87.4632 54.0213 87.4632 59.4236C87.4632 60.0292 86.9729 60.5181 86.3688 60.5181Z" fill="black"/>
<path d="M86.3688 60.251C85.7646 60.251 85.2743 59.7607 85.2743 59.1565V49.6346C85.2743 45.3983 73.3563 40.6761 56.2563 40.6761C39.152 40.6761 27.2325 45.3969 27.2325 49.6346V59.1565C27.2325 59.7607 26.7422 60.251 26.138 60.251C25.5339 60.251 25.0435 59.7607 25.0435 59.1565V49.6346C25.0435 44.2309 35.9824 38.4871 56.2563 38.4871C76.5258 38.4871 87.4632 44.2309 87.4632 49.6346V59.1565C87.4632 59.7607 86.9729 60.251 86.3688 60.251Z" fill="black"/>
<path d="M28.2715 47.0342C28.1227 47.0342 27.9753 47.0036 27.8352 46.9437C27.4543 46.7774 27.1989 46.4111 27.1785 45.9952L27.1464 45.4844C27.1216 45.1269 27.0982 44.7723 27.0982 44.4206C27.0982 27.2667 42.2778 13.3115 60.9363 13.3115C70.9397 13.3115 80.3813 17.3595 86.8387 24.4181C87.1509 24.7596 87.2152 25.2587 86.9992 25.6673C84.8949 29.6541 83.8281 33.8831 83.8281 38.2361C83.8281 40.5053 84.1317 42.7833 84.73 45.0131C84.8132 45.1678 84.8613 45.3443 84.8613 45.5326C84.8613 46.1411 84.3272 46.5906 83.7523 46.6271C83.5407 46.6387 83.2838 46.5585 83.0854 46.4111C78.3952 42.9263 67.865 40.6761 56.2592 40.6761C44.2814 40.6761 33.3177 43.1277 28.9778 46.7788C28.775 46.9466 28.524 47.0342 28.2715 47.0342ZM60.9333 15.5004C43.6802 15.5004 29.6082 28.1802 29.2901 43.8792C34.7376 40.5652 44.9424 38.4871 56.2563 38.4871C66.7136 38.4871 76.412 40.3113 82.0887 43.243C81.7881 41.5838 81.6363 39.907 81.6363 38.2361C81.6363 33.778 82.668 29.4439 84.7037 25.3433C78.6783 19.0786 70.0612 15.5004 60.9333 15.5004Z" fill="black"/>
<path d="M91.9374 36.9564C87.4881 36.9564 83.8676 33.3402 83.8676 28.8967C83.8676 24.4429 87.4881 20.8195 91.9374 20.8195C96.3839 20.8195 100 24.4429 100 28.8967C100.001 33.3402 96.3839 36.9564 91.9374 36.9564ZM91.9374 23.007C88.6949 23.007 86.0565 25.6483 86.0565 28.8952C86.0565 32.1334 88.6949 34.766 91.9374 34.766C95.1771 34.766 97.8111 32.1319 97.8111 28.8952C97.8125 25.6483 95.1771 23.007 91.9374 23.007Z" fill="black"/>
<path d="M64.2167 65.5978C64.2167 67.7984 62.4349 69.5802 60.2358 69.5802H52.271C50.0704 69.5802 48.2886 67.7984 48.2886 65.5978C48.2886 63.3972 50.0704 61.6154 52.271 61.6154H60.2358C62.4364 61.6154 64.2167 63.3972 64.2167 65.5978Z" fill="#FCE5E0"/>
<path d="M60.2373 70.6732H52.2725C49.4735 70.6732 47.1956 68.3953 47.1956 65.5964C47.1956 62.7975 49.4735 60.5195 52.2725 60.5195H60.2373C63.0347 60.5195 65.3127 62.7975 65.3127 65.5964C65.3127 68.3953 63.0347 70.6732 60.2373 70.6732ZM52.2725 62.7099C50.6804 62.7099 49.3845 64.0057 49.3845 65.5978C49.3845 67.1899 50.6804 68.4858 52.2725 68.4858H60.2373C61.8279 68.4858 63.1237 67.1899 63.1237 65.5978C63.1237 64.0057 61.8294 62.7099 60.2373 62.7099H52.2725Z" fill="black"/>
<path d="M45.7961 73.7319V79.8916C45.7961 82.457 47.8771 84.5379 50.4454 84.5379H62.0628C64.6312 84.5379 66.7121 82.457 66.7121 79.8916V73.7319H45.7961Z" fill="#F5064B"/>
<path d="M66.6713 74.1391H45.837V78.6074H66.6713V74.1391Z" fill="white"/>
<path d="M66.6713 79.7033H45.837C45.2328 79.7033 44.7425 79.213 44.7425 78.6089V73.7319C44.7425 73.1278 45.2328 72.6375 45.837 72.6375H66.6713C67.2754 72.6375 67.7657 73.1278 67.7657 73.7319V78.6089C67.7657 79.213 67.2754 79.7033 66.6713 79.7033ZM46.9315 77.5144H65.5768V74.8264H46.9315V77.5144Z" fill="black"/>
<path d="M62.0628 85.631H50.4454C47.2788 85.631 44.7017 83.0553 44.7017 79.8901V73.7319C44.7017 73.1278 45.192 72.6375 45.7961 72.6375H66.7107C67.3148 72.6375 67.8051 73.1278 67.8051 73.7319V79.8916C67.8051 83.0568 65.2295 85.631 62.0628 85.631ZM46.8906 74.8264V79.8916C46.8906 81.85 48.4856 83.4435 50.4454 83.4435H62.0628C64.0227 83.4435 65.6177 81.85 65.6177 79.8916V74.8264H46.8906Z" fill="black"/>
<path d="M49.7233 60C49.7233 59.2642 49.5784 58.5357 49.2968 57.856C49.0153 57.1762 48.6026 56.5586 48.0823 56.0383C47.5621 55.5181 46.9445 55.1054 46.2647 54.8238C45.585 54.5423 44.8564 54.3974 44.1207 54.3974C43.3849 54.3974 42.6564 54.5423 41.9767 54.8238C41.2969 55.1054 40.6793 55.5181 40.159 56.0383C39.6388 56.5586 39.2261 57.1762 38.9445 57.856C38.663 58.5357 38.5181 59.2642 38.5181 60L40.7591 60C40.7591 59.5585 40.8461 59.1214 41.015 58.7136C41.1839 58.3057 41.4315 57.9352 41.7437 57.623C42.0558 57.3109 42.4264 57.0632 42.8343 56.8943C43.2421 56.7254 43.6792 56.6384 44.1207 56.6384C44.5621 56.6384 44.9993 56.7254 45.4071 56.8943C45.815 57.0632 46.1855 57.3109 46.4977 57.623C46.8098 57.9352 47.0574 58.3057 47.2264 58.7136C47.3953 59.1214 47.4823 59.5585 47.4823 60H49.7233Z" fill="black"/>
<path d="M74.0014 60C74.0014 59.2642 73.8564 58.5357 73.5749 57.856C73.2933 57.1762 72.8806 56.5586 72.3604 56.0383C71.8401 55.5181 71.2225 55.1054 70.5428 54.8238C69.863 54.5423 69.1345 54.3974 68.3987 54.3974C67.663 54.3974 66.9344 54.5423 66.2547 54.8238C65.575 55.1054 64.9573 55.5181 64.4371 56.0383C63.9168 56.5586 63.5041 57.1762 63.2226 57.856C62.941 58.5357 62.7961 59.2642 62.7961 60L65.0372 60C65.0372 59.5585 65.1241 59.1214 65.293 58.7136C65.462 58.3057 65.7096 57.9352 66.0217 57.623C66.3339 57.3109 66.7045 57.0632 67.1123 56.8943C67.5202 56.7254 67.9573 56.6384 68.3987 56.6384C68.8402 56.6384 69.2773 56.7254 69.6852 56.8943C70.093 57.0632 70.4636 57.3109 70.7757 57.623C71.0879 57.9352 71.3355 58.3057 71.5044 58.7136C71.6734 59.1214 71.7603 59.5585 71.7603 60H74.0014Z" fill="black"/>
<defs>
<filter id="filter0_d" x="6.84265" y="0.311462" width="106.157" height="119.377" filterUnits="userSpaceOnUse" color-interpolation-filters="sRGB">
<feFlood flood-opacity="0" result="BackgroundImageFix"/>
<feColorMatrix in="SourceAlpha" type="matrix" values="0 0 0 0 0 0 0 0 0 0 0 0 0 0 0 0 0 0 127 0"/>
<feOffset/>
<feGaussianBlur stdDeviation="5"/>
<feColorMatrix type="matrix" values="0 0 0 0 0 0 0 0 0 0 0 0 0 0 0 0 0 0 0.25 0"/>
<feBlend mode="normal" in2="BackgroundImageFix" result="effect1_dropShadow"/>
<feBlend mode="normal" in="SourceGraphic" in2="effect1_dropShadow" result="shape"/>
</filter>
</defs>
</svg>
